<svg xmlns="http://www.w3.org/2000/svg" class="min-w-[50px] text-primary" fill="currentColor" height="100" width="100" viewBox="-51.2 -51.2 614.4 614.4" xmlns:v="https://vecta.io/nano"><path d="M256 483.894c30.622 6.378 56.881-23.625 86.589-33.412 32.812-10.81 80.672 1.826 98.713-27.636 19.704-32.177-32.065-78.118-13.754-111.107 24.697-44.493 126.009-35.928 123.583-86.759-2.338-48.993-89.964-36.662-130.772-63.873-22.123-14.751-38.386-36.267-52.859-58.573-22.428-34.569-19.493-89.237-55.748-108.822C279.406-23.759 238.563.31 204.685 14.584c-31.178 13.137-52.904 40.536-81.518 58.588-30.561 19.281-77.53 19.719-93.766 52.001-16.532 32.871 8.17 71.925 13.101 108.387 3.996 29.55-1.343 61.531 13.381 87.461 14.418 25.39 43.946 37.033 67.28 54.585 19.914 14.979 41.631 26.12 60.945 41.864 25.568 20.843 39.598 59.696 71.891 66.423" fill="#7ed0ec"/><path d="M383.311 466.06l-47.928-90.073c-4.556-8.563-15.193-11.809-23.754-7.254s-11.811 15.192-7.255 23.754l34.139 64.683h-68.781l41.882-10.169-24.204-45.488c-9.542-17.932-2.74-40.203 15.192-49.744 5.366-2.856 11.12-4.238 16.805-4.306l-.269-59.307h-.256c-.417-1.837 2.439 6.924-41.56-125.327l18.196-133.277c1.945-14.242-8.025-27.364-22.267-29.309s-27.364 8.025-29.309 22.267l-19.015 139.272a26.03 26.03 0 0 0 1.091 11.737l37.169 111.722-19.05-36.316-51.126-34.541 4.105-111.204c.53-14.364-10.685-26.439-25.049-26.97-14.346-.519-26.439 10.684-26.97 25.049l-4.638 125.643a26.03 26.03 0 0 0 11.439 22.527l80.23 54.204.6 163.595c.058 12.682 9.956 24.501 25.293 24.431 2.84.625-4.952 0 109.786 0 6.166 0 11.88-3.023 15.055-8.309a17.56 17.56 0 0 0 .449-17.29z"/><circle cx="171.107" cy="467.518" r="44.479"/></svg>