<svg xmlns="http://www.w3.org/2000/svg" class="min-w-[50px] text-primary" fill="currentColor" height="100" width="100" viewBox="-51.2 -51.2 614.4 614.4" xmlns:v="https://vecta.io/nano"><path d="M256 559.708c83.255-5.549 108.381-110.559 159.803-176.269 50.325-64.308 136.558-112.124 129.548-193.481-7.679-89.12-82.039-158.302-163.117-196.086-79.783-37.181-175.795-42.676-250.97 3.112-68.819 41.916-84.02 128.915-96.498 208.522-11.065 70.594-5.572 140.574 32.282 201.18C112.22 479.007 170.918 565.379 256 559.708" fill="#7ed0ec"/><path d="M361.816 157.046c-17.621-25.124-52.273-31.207-77.397-13.586-26.702 18.728-31.757 56.527-10.283 81.648l77.586 6.655c22.15-18.277 26.864-50.805 10.094-74.717zm115.702 151.953h-.054l-16.253.024c9.071-4.976 15.14-14.742 14.792-25.897-.483-15.498-13.706-27.576-29.21-27.576h-99.366l-158.639-36.235 54.842 3.176c-29.481-33.207-79.81-39.77-117.054-13.681L23.963 279.913C4.406 293.462-4.706 318.142 2.4 340.848a53.86 53.86 0 0 0 51.398 37.77h.054l422.886-.65c19.081-.029 35.401-15.661 35.261-34.741-.138-18.93-15.538-34.228-34.481-34.228zm-262.729.404l21.17-11.295-60.461-26.294 151.5 37.416-112.209.173z"/></svg>