<svg xmlns="http://www.w3.org/2000/svg" class="min-w-[50px] text-primary" fill="currentColor" height="70" width="70" viewBox="-31.29 -31.29 375.43 375.43" xmlns:v="https://vecta.io/nano"><path d="M156.425 338.023c39.905-4.322 56.922-51.331 87.13-77.761 29.165-25.518 79.315-35.14 85.61-73.378s-38.778-63.059-57.569-96.952C252.229 55 254.784 2.729 218.192-13.279c-36.678-16.046-78.433 9.444-112.364 30.69-27.935 17.491-39.253 49.241-58.276 76.156-22.055 31.205-62.049 54.639-61.168 92.841.912 39.539 35.972 68.294 65.491 94.615 30.547 27.237 63.861 61.408 104.55 57.001" fill="#7ed0ec"/><path d="M146.216.146c-3.314-.681-6.636 1.07-7.96 4.177l-48.22 113.148c-14.866 32.859-1.147 72.203 4.714 86.19l-57.86 47.961c-1.478 1.225-2.397 2.996-2.549 4.909a7.11 7.11 0 0 0 1.743 5.25l42.698 48.649a7.11 7.11 0 0 0 5.341 2.419 7.21 7.21 0 0 0 .36-.009c2.169-.11 4.168-1.205 5.428-2.974l60.574-85.014a7.11 7.11 0 0 0 1.319-4.121l.004-10.139.092-203.485c.001-3.375-2.375-6.286-5.684-6.961zm132.293 256.385a7.1 7.1 0 0 0-2.549-4.909l-57.861-47.961c5.862-13.987 19.581-53.331 4.714-86.19L174.593 4.323a7.1 7.1 0 0 0-7.96-4.177c-3.309.675-5.685 3.586-5.685 6.963l.092 203.485.004 10.139c.001 1.477.461 2.917 1.319 4.121l60.574 85.014a7.11 7.11 0 0 0 5.428 2.974 7.27 7.27 0 0 0 .36.009c2.04 0 3.988-.877 5.341-2.419l42.698-48.649c1.268-1.445 1.897-3.338 1.745-5.252z"/></svg>