<svg xmlns="http://www.w3.org/2000/svg" class="min-w-[50px] text-primary" fill="currentColor" height="100" width="100" viewBox="-3.2 -3.2 38.4 38.4" xmlns:v="https://vecta.io/nano"><path d="M16 32.768c3.173.785 6.984.034 9.346-2.225 2.327-2.226 1.27-6.156 2.519-9.124 1.192-2.835 5.223-4.775 4.593-7.785-.642-3.064-5.378-3.092-7.376-5.503-2.072-2.501-1.605-6.675-4.263-8.543-2.842-1.997-6.987-3.102-10.092-1.546-3.15 1.579-2.761 6.338-4.961 9.09-2.064 2.583-6.597 3.122-7.367 6.337-.763 3.182 1.639 6.346 3.724 8.868 1.789 2.164 4.85 2.53 7.094 4.217 2.502 1.88 3.745 5.463 6.783 6.214" fill="#7ed0ec"/><path d="M29 19.121c0 2.086-.844 7.453-5.41 7.453-4.352 0-5.937-3.844-5.637-5.234.25.426 1.043 2.617 5.324 2.617 4.391 0 4.438-4.879 4.438-4.879s-.074-3.461-2.75-3.461c-3.266 0-3.375 5.191-6.656 5.191-1.645 0-2.195-.871-2.527-1.109.707 2.195-.129 7.301-5.504 7.301-7.672 0-7.273-8.277-7.273-8.277s1.285 5.102 7.141 5.102c3.57 0 4.039-2.039 4.039-2.973s-.711-2.57-3.906-2.57l-.699-3.316a7.57 7.57 0 0 0 2.113.309c1.539 0 1.891-1.027 1.891-1.871s-.824-1.691-2.332-1.691c-2.336 0-4.211 2.398-4.211 2.398l-1.816-3.371s1.688-2.176 5.105-2.176 4.965 2.797 4.965 4.438-.766 3-2.219 3.77c1.961.922 1.367 1.598 2.617 1.598 2.07 0 2.352-1.691 3.324-3.227.898-1.41 2.176-2.672 4.438-2.672 4.527 0 5.547 4.57 5.547 6.652zm-8.828-7.141c2.301 0 4.082-1.332 4.082-1.332l-1.91-3.371s-1.328 1.863-3.902 1.863-4.703-2.352-4.703-2.352.977 5.191 6.434 5.191zm.355-5.367l-1.91-2.043-2.129 1.863 1.91 2.176z"/></svg>