<svg xmlns="http://www.w3.org/2000/svg" class="min-w-[50px] text-primary" fill="currentColor" height="100px" width="100px" viewBox="-25.6 -25.6 307.2 307.2" xmlns:v="https://vecta.io/nano"><path d="M128 259.276c20.955 6.552 44.772 1.272 64.319-8.727 19.61-10.031 37.362-26.459 44.917-47.149 7.297-19.986-8.379-41.745-4.801-62.719 3.836-22.488 27.065-39.395 26.106-62.188-.993-23.617-14.895-45.486-31.349-62.456-16.953-17.485-38.651-34.487-63.003-34.855-24.42-.369-44.208 18.985-64.258 32.93-15.164 10.547-23.19 28.452-38.612 38.619C42.537 65.11 8.601 58.662.511 79.65c-8.07 20.933 19.937 39.278 27.091 60.541 5.515 16.39.081 36.044 10.14 50.11 10.038 14.037 30.362 15.219 44.073 25.697 17.01 12.999 25.752 36.889 46.185 43.278" fill="#7ed0ec"/><path d="M128.253 56.864a27.39 27.39 0 0 0 27.432-27.432C155.685 14.247 143.536 2 128.253 2a27.39 27.39 0 0 0-27.432 27.432c.097 15.284 12.344 27.432 27.432 27.432zM64.571 136.32h-49.28c-15.969 0-16.851-24.395.294-24.395H58.3l24.493-36.054c7.25-9.895 15.48-14.598 27.138-14.598h36.544c11.659 0 19.888 4.311 27.138 14.598l24.591 36.054h43.01c17.243 0 16.165 24.395.588 24.395h-49.28c-3.919 0-8.622-1.372-11.365-5.584l-18.811-26.844-.098 67.209H94.844l-.098-67.209-18.811 26.844c-2.743 4.114-7.445 5.584-11.364 5.584zm184.612-83.646h-48.347c-2.678 0-4.837 1.999-4.837 4.457v32.737c0 2.458 2.159 4.457 4.837 4.457h48.327c2.678 0 4.837-1.999 4.837-4.457V57.131c.02-2.458-2.139-4.457-4.817-4.457zm.46 36.635c0 .3-.28.56-.6.56h-48.067c-.34 0-.6-.26-.6-.56V73.5h49.266v15.809zm0-27.721h-49.266v-3.897c0-.3.28-.56.6-.56h48.047c.34 0 .6.26.6.56v3.897h.019zm-45.089 20.606h10.113v3.957h-10.113zm14.05 0h14.63v3.957h-14.63zM15.763 87.779v4.571c0 2.556-2.064 4.571-4.571 4.571S6.62 94.906 6.62 92.35v-4.571H2V72.836h0c0-3.293 2.212-5.997 5.21-6.832l5.358-12.731c.786-1.868 2.605-3.195 4.768-3.195h27.378c2.163 0 3.981 1.327 4.768 3.195l5.308 12.731c2.998.836 5.21 3.539 5.21 6.832h0v14.942h-4.669v4.571c0 2.556-2.064 4.571-4.571 4.571a4.53 4.53 0 0 1-4.571-4.571v-4.571H15.763zm-4.277-8.209c2.556 0 4.62-2.064 4.62-4.62s-2.064-4.62-4.62-4.62-4.62 2.064-4.62 4.62 2.065 4.62 4.62 4.62m43.353-4.62c0-2.556-2.064-4.62-4.62-4.62s-4.62 2.064-4.62 4.62 2.064 4.62 4.62 4.62 4.62-2.064 4.62-4.62m-4.62-9.192l-4.571-11.01c-.197-.541-.737-.934-1.376-.934H17.729a1.44 1.44 0 0 0-1.327.934l-4.571 11.01h38.388z"/></svg>