<svg xmlns="http://www.w3.org/2000/svg" class="min-w-[50px] text-primary" fill="currentColor" height="100" width="100" viewBox="-51.2 -51.2 614.4 614.4" xmlns:v="https://vecta.io/nano"><path d="M256 513.206c62.992-5.278 91.281-76.692 138.606-118.6 53.337-47.231 152.355-67.364 151.85-138.606-.506-71.292-98.736-91.371-153.802-136.654C346.982 81.786 314.208 27.56 256 17.14 187.5 4.878 97.437 1.25 59.752 59.752 22.076 118.24 95.923 186.706 102.135 256c5.082 56.696-39.316 115.11-10.094 163.959 33.554 56.091 98.826 98.705 163.959 93.247" fill="#7ed0ec"/><circle cx="235.584" cy="60.926" r="60.926"/><path d="M392.708 442.023l-57.987-16.239c15.677-13.059 14.657-37.317-1.826-49.07l-84.163-60.013-9.373-111.497 22.788 65.428-.35-77.16c-.126-27.805-22.769-50.244-50.574-50.118-41.787.189-75.51 34.218-75.321 76.006l.918 202.395.244-.001a35.77 35.77 0 0 0 8.426 18.948h-16.585c-19.688 0-35.649 15.961-35.649 35.649S109.218 512 128.905 512h254.191c17.814 0 32.892-13.15 35.317-30.796s-8.551-34.378-25.705-39.181zm-211.966-70.616c-11.692-8.337-16.948-22.366-14.73-35.635l14.762-87.351 7.38 87.781a31 31 0 0 0 12.893 22.643l68.138 48.586c0 0-78.452-28.901-88.443-36.024z"/></svg>