<svg xmlns="http://www.w3.org/2000/svg" class="min-w-[50px] text-primary" fill="currentColor" height="100" width="100" viewBox="-51.2 -51.2 614.4 614.4" xmlns:v="https://vecta.io/nano"><path d="M256 529.696c56.087 5.828 116.633-20.699 151.771-64.802 32.814-41.186 6.731-102.051 21.447-152.613 13.957-47.952 67.02-82.922 61.556-132.565-5.703-51.809-42.453-101.405-89.725-123.36C355.879 35.38 305.28 77.885 256 70.683 191.817 61.304 134.47-20.158 76.493 8.93 21.56 36.491 32.246 121.701 31.817 183.159c-.33 47.342 26.061 87.478 42.54 131.861 15.576 41.951 22.275 86.386 51.18 120.547 35.507 41.964 75.787 88.448 130.463 94.13" fill="#7ed0ec"/><path d="M443.985 433.876c-2.328-14.913-16.304-25.117-31.217-22.79l-97.976 3.907V279.64c1.301-3.07-2.182 13.482 50.565-254.788 2.219-11.288-5.132-22.236-16.42-24.457s-22.236 5.132-24.457 16.42l-26.236 133.434c-7.061-16.344-23.32-27.786-42.256-27.786-18.956 0-35.231 11.466-42.279 27.838L187.464 16.815c-2.22-11.286-13.165-18.638-24.457-16.42s-18.638 13.169-16.42 24.457l50.6 254.865v135.187l-97.976-3.818c-14.219-2.178-27.909 7.095-30.927 21.344-3.128 14.766 6.307 29.273 21.074 32.401l32.446 6.873c-3.78 4.738-5.866 10.845-5.366 17.365 1.051 13.699 13.016 23.91 26.656 22.857l112.895-8.8c2.249.41 113.474 8.874 114.82 8.874 12.849 0 23.73-9.906 24.729-22.932.501-6.531-1.593-12.649-5.386-17.39l32.466-6.846c14.094-3 23.616-16.548 21.367-30.956zM281.267 236.601H230.68l-6.943-35.315c8.304 8.166 19.689 13.208 32.254 13.208 12.545 0 23.912-5.026 32.213-13.168l-6.937 35.275z"/></svg>