<svg id="visual" viewBox="0 0 900 600" width="900" height="600" xmlns="http://www.w3.org/2000/svg" xmlns:xlink="http://www.w3.org/1999/xlink" version="1.1"><rect x="0" y="0" width="900" height="600" fill="#ffffff"></rect><g transform="translate(355.44845978783724 324.2650084257427)"><path d="M174.1 -268.1C225.4 -238 266.4 -189.2 309.9 -130.7C353.4 -72.3 399.4 -4.1 369.6 37.8C339.8 79.8 234.1 95.6 170.5 120.9C106.8 146.2 85.1 181 47.7 216.8C10.3 252.7 -42.7 289.4 -86.2 282C-129.6 274.5 -163.4 222.7 -175.3 172.3C-187.2 122 -177.1 73 -170.3 32.6C-163.5 -7.8 -160 -39.6 -170.2 -102.8C-180.4 -166 -204.3 -260.5 -178.2 -302.1C-152.1 -343.7 -76.1 -332.3 -7.3 -321C61.5 -309.6 122.9 -298.2 174.1 -268.1" fill="#cdb4be"></path></g></svg>