<?xml version="1.0" standalone="no"?>
<svg xmlns:xlink="http://www.w3.org/1999/xlink" id="wave" style="transform:rotate(0deg); transition: 0.3s" viewBox="0 0 1440 490" version="1.1" xmlns="http://www.w3.org/2000/svg"><defs><linearGradient id="sw-gradient-0" x1="0" x2="0" y1="1" y2="0"><stop stop-color="rgba(243, 106, 62, 1)" offset="0%"/><stop stop-color="rgba(255, 179, 11, 1)" offset="100%"/></linearGradient></defs><path style="transform:translate(0, 0px); opacity:1" fill="url(#sw-gradient-0)" d="M0,0L60,57.2C120,114,240,229,360,294C480,359,600,376,720,367.5C840,359,960,327,1080,334.8C1200,343,1320,392,1440,392C1560,392,1680,343,1800,343C1920,343,2040,392,2160,392C2280,392,2400,343,2520,310.3C2640,278,2760,261,2880,245C3000,229,3120,212,3240,220.5C3360,229,3480,261,3600,294C3720,327,3840,359,3960,326.7C4080,294,4200,196,4320,179.7C4440,163,4560,229,4680,285.8C4800,343,4920,392,5040,416.5C5160,441,5280,441,5400,424.7C5520,408,5640,376,5760,302.2C5880,229,6000,114,6120,57.2C6240,0,6360,0,6480,8.2C6600,16,6720,33,6840,89.8C6960,147,7080,245,7200,310.3C7320,376,7440,408,7560,408.3C7680,408,7800,376,7920,367.5C8040,359,8160,376,8280,351.2C8400,327,8520,261,8580,228.7L8640,196L8640,490L8580,490C8520,490,8400,490,8280,490C8160,490,8040,490,7920,490C7800,490,7680,490,7560,490C7440,490,7320,490,7200,490C7080,490,6960,490,6840,490C6720,490,6600,490,6480,490C6360,490,6240,490,6120,490C6000,490,5880,490,5760,490C5640,490,5520,490,5400,490C5280,490,5160,490,5040,490C4920,490,4800,490,4680,490C4560,490,4440,490,4320,490C4200,490,4080,490,3960,490C3840,490,3720,490,3600,490C3480,490,3360,490,3240,490C3120,490,3000,490,2880,490C2760,490,2640,490,2520,490C2400,490,2280,490,2160,490C2040,490,1920,490,1800,490C1680,490,1560,490,1440,490C1320,490,1200,490,1080,490C960,490,840,490,720,490C600,490,480,490,360,490C240,490,120,490,60,490L0,490Z"/></svg>