<?xml version="1.0" encoding="utf-8"?>

<!DOCTYPE svg PUBLIC "-//W3C//DTD SVG 1.1//EN" "http://www.w3.org/Graphics/SVG/1.1/DTD/svg11.dtd">
<svg version="1.1" id="Layer_1" xmlns="http://www.w3.org/2000/svg" xmlns:xlink="http://www.w3.org/1999/xlink" x="0px" y="0px"
	 viewBox="0 0 2630 1643.749" enable-background="new 0 0 2630 1643.749" xml:space="preserve">
<g>
	<path d="M1280.104,523.135c9.863-16.078,21.887-30.789,33.792-45.411c38.044,42.447,96.193,137.661,110.788,173.973l1.066,0.195
		c3.349,8.487,16.71,33.53,33.312,77.642c31.919,82.601,47.628,167.387,48.736,250.476c8.223-27.602,8.226-35.453,8.226-82.624
		c-0.383-5.146-2.2-10.136-1.105-15.222c2.152-9.994-3.252-21.29-2.728-33.281c-0.27-0.446-2.002-20.593-0.204-28.047
		c1.501-2.589-0.298-7.552-0.758-8.414c-1.077-2.022-0.493-3.015-2.022-11.032c-6.28-32.936-24.069-44.555-28.973-90.582
		c-1.162-10.907-0.541-26.113,0.882-41.502c-7.948-15.956-16.576-31.318-25.852-46.027c12.926-10.008,25.862-20.01,38.793-30.016
		c0.223-1.412,0.438-2.825,0.629-4.241c0.286-2.124,0.047-5.173,0.843-7.141c5.078-12.564,0.205-9.557,4.781-15.95
		c1.617-2.259,2.499-4.508,5.2-13.298c6.337-20.627,7.325-32.199,9.107-41.34c-22.209,17.652-42.959,35.713-60.239,51.729
		c-20.986-30.054-43.474-59.087-67.584-86.71c-7.346-11.018,5.722-90.225,46.865-186.035c-0.573-2.21-1.145-4.42-1.719-6.629
		c-0.271-0.041-0.543-0.082-0.814-0.123c-0.484-1.969-0.969-3.937-1.453-5.906c0.269-0.001,0.538-0.002,0.806-0.004
		c-0.552-0.047-1.85-5.31-2.137-6.023c-1.252-3.117-2.238-6.243-2.664-9.589c0.463-0.102,0.926-0.205,1.389-0.307
		c-0.968-4.143-3.366-7.938-6.693-10.591c0.493-0.565,1.594-0.312,1.791,0.411c0.521-0.228,1.042-0.455,1.563-0.683
		c-1.893-2.028-3.431-4.385-4.535-6.93c-1.982-4.567,0.331-2.979,0.416-3.859c0.055-0.571-0.746-0.734-0.794-1.128
		c-0.13-1.041-1.2-1.394-1.948-1.91c-1.721-2.734-5.493-4.693-7.233-6.571c-0.958-0.328-2.066-0.494-2.738-1.321
		c-2.111-1.92-5.294-1.522-7.459-3.333c-2.944-1.983-9.128-1.418-11.165-2.913c-0.318-0.068-5.586-2.37-10.146-1.187
		c-2.009-0.223-4.037,0.347-5.995,0.805c-0.105,0.137-0.312,0.414-0.417,0.554c-0.166-0.006-0.5-0.019-0.665-0.025
		c-0.882-0.914-2.041-1.601-3.33-1.665c-1.394-0.099-2.741-0.914-4.145-0.43c-1.668,0.548-3.566-0.051-5.097,0.926
		c-1.165,0.637-2.531-0.105-3.712,0.36c-2.905,1.308-6.957,1.61-10.092,2.378c-0.732,1.708-2.606,2.853-4.46,2.726
		c-1.667,1.42-3.334,2.841-5.002,4.261c-1.802,3.361-6.508,6.937-9.218,11.826c-0.201,0.363-2.416,5.252-2.36,5.66
		c0.121,0.888,1.497,1.111-0.267,3.455c-2.684,3.569-7.015,11.878-2.559,10.454c0.092,0.302,0.048,0.564,0.035,0.889
		c0.188,0.016,0.563,0.051,0.751,0.067c-0.121,1.964-1.627,3.375-2.114,5.211c-0.204,0.888-1.028,1.401-1.394,2.206
		c-0.14,0.268-0.353,0.462-0.634,0.586c-0.169,0.783-0.347,1.563-0.452,2.359c-0.146,0.127-0.443,0.382-0.589,0.506
		c-0.022,0.414-0.041,0.831-0.051,1.251c0.271-0.013,0.812-0.038,1.082-0.054c-0.076,1.14-0.888,2.018-1.143,3.104
		c-0.401,1.652-0.366,3.413-1.038,4.998c-0.245,0.7-0.111,1.461-0.229,2.187c-0.739,1.901-0.624,3.989-1.146,5.95
		c-0.462,1.662-0.392,3.397-0.398,5.103c0.07,0.678-0.719,0.984-0.866,1.582c0.443,1.566,0.092,3.193,0.175,4.794
		c-0.175,0.318-5.807,4.754-5.151,12.409c0.115,1.054,0.439,2.079,0.446,3.145c0.016,1.223-0.14,2.49,0.328,3.658
		c1.569,4.178-0.959,10.229,3.779,15.841c1.27,0.955,2.356,2.248,3.941,2.703c3.193,0.755,6.609,0.669,9.71-0.452
		c0.449,0.458,0.831,0.981,1.182,1.528c3.005-0.05,0.093,3.292,6.276,15.474c0.416,0.82,0.793,1.78,1.345,2.519
		c0.637,0.854,1.361,1.298,1.551,2.444c0.33,1.989-0.874,4.754-0.261,9.24c0,0,3.808,13.698,5.207,21.684
		c1.179,6.732,1.387,4.128-0.856,19.139c-1.157,7.739-4.208,15.429-6.812,21.733c-4,7.617-4.597,3.866-6.816,5.285
		c-0.844,0.506-1.786,0.777-2.731,1c-0.7,0.71-1.687,0.942-2.572,1.324c-0.767,0.401-1.413,0.99-2.06,1.557
		c-2.065-0.411-1.217-1.227-7.188,2.448c-1.29,0.702-2.365,1.715-3.343,2.797c-0.547,0.606-1.136,1.758-1.964,2.021
		c-0.93,0.295-2.087-0.255-3.107-0.036c-1.947,0.417-4.102,2.354-5.746,0.56c-2.238-2.442-5.131-8.255-9.996-14.18
		c-2.544-2.687-4.794-5.625-7.313-8.325c-2.667-3.139-10.614-9.759-18.035-17.264c-36.623-37.041-22.243-13.67-43.082-69.003
		c-10.607-29.216-21.158-44.336-19.872-57.466c4.059-16.331,60.614-60.437,73.826-69.99c16.997-12.217,88.014-52.031,88.333-52.152
		c0.188-0.013,0.567-0.041,0.758-0.054c1.197-1.442,1.079-3.543,2.365-4.966c0.191-0.048,0.57-0.15,0.758-0.201
		c0.42-1.184,1.856-1.156,2.887-1.353c0.484-0.541,0.926-1.121,1.363-1.706c1.183,1.267,1.367,2.913,5.24,2.913
		c0.022,0.185,0.07,0.557,0.092,0.745c0.197,0.067,0.592,0.207,0.793,0.274c9.392,12.981,48.62,21.601,98.293,49.132
		c7.211-12.728,14.899-25.492,23.083-38.192c-30.622-10.303-56.813-17.028-57.013-17.09c-17.786-3.558-23.677-10.717-30.584-12.301
		c-1.972-0.61-1.298,0.725-5.721-6.042c-4.243-8.161-8.217-22.202-8.595-23.889c-5.99-19.495-9.379-31.837-9.379-52.086
		c0.003-1.41-0.624-2.699-1.031-4.017c-1.449-1.573-0.475-1.78-1.716-9.719c-0.974-2.664,0.151-5.164-1.041-10.751
		c0.029-1.563-0.662-3.031-0.599-4.591c0.414-1.318,0.414-2.894,0.01-4.212c0.045-1.289-0.624-2.413-1.445-3.349
		c-1.554-0.156-2.817,0.821-3.973,1.706c-1.152,0.949-1.557,2.435-1.964,3.804c-0.5-0.261-0.965-0.576-1.273-1.05
		c-0.512-0.787-3.869-3.534-4.719-0.787c-0.67,2.165-1.151,4.379-1.692,6.578c-0.254,1.032-0.357,3.392-1.041,4.231
		c0,0-1.195,5.666-1.673,7.55c-0.534,2.103-1.672,4.375-1.957,6.505c-0.989,7.386-3.202,4.362-4.75,15.475
		c-1.264,17.962-5.694,26.75-5.944,27.486c-3.583,9.758-8.741,34.864-19.413,48.44c-0.752,0.887-4.596,1.31-7.765,3.015
		c-6.348,3.145-8.493,7.192-23.413,12.996c-61.7,24.002-108.028,50.115-135.111,67.835c40.398,75.281,70.412,160.313,81.478,245.684
		c-5.966,7.007-11.88,14.063-17.735,21.17c10.1,18.052,11.884,9.634,23.013,54.591c1.903,7.689,1.953,9.649,3.222,12.571
		c7.631-12.318,15.537-24.417,23.713-36.271L1280.104,523.135z"/>
	<path d="M1132.714,939.509c-17.782,13.478-34.89,27.221-47.878,38.026c0.05,2.493,0.111,4.989,0.189,7.487
		c2.569,48.399,12.774,97.883,26.524,144.76c3.302,1.276,9.18,3.555,9.591,3.773c1.286,0.273,1.77,0.519,2.531,0.945
		c1.165,0.065,3.622,1.401,5.412,1.722c2.145,1.137,12.701,4.342,24.275,7.691c-11.225-41.568-18.738-85.281-21.166-130.308
		C1131.116,988.686,1131.323,963.969,1132.714,939.509z"/>
	<path d="M1391.781,1505.843c-0.043-0.228-0.09-0.435-0.147-0.59c-1.062-7.158-0.262-5.311,0.319-11.066
		c2.044-20.264,3.066-15.584,6.045-29.852c0.121-0.019,0.366-0.057,0.487-0.073c-0.509-1.006,0.185-2.025,0.115-3.056
		c1.04-0.905,1.539-0.835,3.494-1.83c-13.307,3.821-24.309,6.448-32.488,7.92c2.348-2.704,18.399-13.833,42.677-33.274
		c2.003-7.281,4.341-16.894,4.341-16.894c2.202-5.875,9.719-31.078,12.07-39.093c-1.862,1.526-3.29,2.642-4.219,3.318
		c1.682-2.908,3.338-5.818,4.983-8.729c-0.029-1.568-0.068-3.134,0.271-4.672c1.207-9.307,5.409-14.239,6.042-19.088
		c0.975-11.157,4.971-20.35,5.441-25.478c0.121-3.601,0.739-7.153,1.433-10.681c2.092-14.819,3.11-26.211,3.605-35.819
		c-22.834,50.336-51.701,97.525-86.067,140.285c-0.301,1.936-0.837,3.843-0.812,5.824c-0.525,1.703,0.097,5.823-1.77,9.703
		c-0.689,2.65-1.894,1.766-4.218,5.103c-0.013,0.618-0.016,1.248,0.003,1.897c2.711,5.347,6.357,6.958,7.682,12.734
		c0.567,0.71,0.853,1.741,0.337,2.582c0,0.002-1.63,6.058-1.63,6.058c-0.118,0.828,0.178,1.78-0.318,2.54
		c-0.083,0.834,0.111,1.751-0.29,2.547c-0.051,0.274-0.095,0.57-0.134,0.891c-0.015,0.029-1.167,4.338-1.235,4.807
		c-0.201,0.302-0.395,0.621-0.586,0.955c-0.013,0.159-0.038,0.474-0.051,0.634c-1.143,1.682-2.611,6.379-2.731,6.698
		c-3.557,8.99-3.578,6.201-8.038,14.319c-0.009,0.159-0.035,0.478-0.045,0.637c-0.204,0.299-0.404,0.615-0.598,0.949
		c-0.01,0.159-0.032,0.481-0.045,0.64c-0.534,0.819-1.516,3.379-1.63,3.836c-0.181,0.299-0.363,0.611-0.541,0.939
		c-0.003,0.796-0.08,1.611-0.337,2.391c-0.697,2.05-0.083,4.247-0.404,6.358c-0.264,0.86-0.267,1.767-0.287,2.677
		c-0.064,0.134-0.188,0.401-0.248,0.535c-0.01,3.553-0.379,7.083-0.71,10.611c-0.411,0.605-0.213,1.359-0.366,2.063
		c-2.358,10.248-2.221,2.636-2.442,15.017c0.02,0.319-0.906,6.925,0.08,10.302c0.072,0.148,2.059,9.497,2.251,11.477
		c-0.029,0.121-0.086,0.363-0.115,0.484c0.392,0.786,0.331,1.671,0.315,2.547c-0.07,1.222,0.42,2.394,0.376,3.636
		c0.396,0.592,0.311,10.092,0.309,10.41c0.483,1.535,0.494,7.156,0.882,8.274c0.63,1.853-0.745,3.537-0.627,5.38
		c-0.027,2.333,0.98,7.291,1.219,8.003c3.628,7.219,0.016,4.301,3.957,14.475c2.258,5.204,8.964,4.317,15.516,5.262
		c1.643,0.363,3.034-0.751,4.46-1.356c3.71-1.667,2.818-1.671,4.737-6.93c0.506-1.324-0.067-2.868,0.78-4.072
		c0.561-1.174,2.838-2.227,3.782,1.124c0.398,1.464,0.099,2.996,0.223,4.498c2.144,5.547,0.445,3.275,4.298,5.975
		c5.728,3.683,9.467-1.64,11.906-3.512c1.681-0.264,3.429,0.064,5.135-0.048c3.634-0.696,2.298-3.98,4.536-4.759
		c1.442-0.372,2.942,0.204,4.403-0.156c1.219,0.048,1.958-1.038,2.69-1.837c0.584-1.343-0.424-4.347,1.754-4.438
		c5.197-0.779,7.588,1.017,8.701-0.707c2.08-5.072,0.072-15.544-11.587-25.526c-2.931-2.509,1.48-0.902-14.069-12.336
		c-5.036-3.045-4.507-9.17-6.023-14.857c-0.36-0.942-0.242-1.977-0.646-2.894c-0.969-2.725-0.789-2.151-0.92-2.849
		c-0.704-1.323-2.13-7.051-2.13-7.051c-0.039-2.914,0.527-4.316,1.178-5.367c0.162-0.544,0.309-1.082,0.427-1.614
		c0.175-0.334,0.36-0.653,0.554-0.949c0.013-0.156,0.045-0.471,0.057-0.63c0.296-0.544,0.586-1.082,0.891-1.601
		c0.016-0.156,0.045-0.471,0.06-0.627c0.178-0.331,0.363-0.643,0.544-0.942c0.178-1.207,1.213-2.018,1.413-3.202
		c1.363-2.715,2-3.998,2.282-5.158c-22.317-4.11-35.273-6.844-35.582-6.943C1368.384,1510.688,1380.07,1508.42,1391.781,1505.843z"
		/>
	<path d="M1215.499,463.254c-18.888-39.702-30.228-46.057-48.266-98.162c-28.087-81.135-18.045-60.4-23.083-77.94
		c-0.752-2.618-2.031-4.964-2.948-7.498c-7.79-31.16-6.225-30.436-2.742-33.322c1.344-2.194,10.702-9.871,27.186-20.656
		c-28.639-53.368-62.495-101.839-98.53-142.044c-45.768,45.768-122.102,162.704-156.875,248.763
		c-38.044,97.5-28.71,216.336,3.258,315.191c2.371-5.528,23.204-133.909,90.446-208.622
		c57.474,26.202,128.498,83.763,171.677,124.074c16.849-24.311,34.976-47.694,53.767-70.508c-1.201-2.147-2.519-4.665-3.986-7.696
		C1221.956,477.707,1218.891,470.405,1215.499,463.254z"/>
	<path d="M1552.525,191.389c0.318,0.238,51.476,23.334,56.574,28.779c2.698,2.508,4.129,7.248,3.882,7.863
		c-0.433,1.582,0.156,3.266-0.35,4.829c-4.058,12.53-6.474,24.711-6.93,37.801c-0.062,1.779-21.895,97.892-46.401,139.953
		c-7.794,13.378-21.64,49.974-21.767,50.3c-8.758,21.511-2.89,13.329-15.437,31.802c-4.477,6.591-6.187,11.946-7.48,18.578
		c36.138-28.721,76.148-56.355,111.422-72.315c65.015,70.259,88.495,203.507,90.492,208.561
		c32.839-100.348,42.471-227.251-2.057-327.741c-48.981-107.05-110.847-194.223-151.635-236.183
		c-24.606,27.551-46.338,56.759-65.391,86.323c17.952,6.041,37.426,13.31,54.082,21.192
		C1551.847,191.233,1552.178,191.319,1552.525,191.389z"/>
	<path d="M1433.571,291.262c0.527,2.362,1.208,4.689,2.037,6.963c0.646,1.771,2.242,3.93,2.275,5.795
		c0.398,1.901-0.187,3.795-0.111,5.708c0.031,0.876-0.586,1.636-0.478,2.515c0.35,3.951-0.786,7.866-0.417,11.817
		c0.091,6.688-1.133,8.365-4.728,11.585c-1.109,0.993-6.222,2.98-6.155,0.576c-0.078-0.318-0.674-0.317-0.72,0.546
		c-0.265,4.989-0.733,9.867-2.574,14.565c-1.223,3.121-2.977,7.198-5.781,9.214c-0.5,0.529-1.984,3.199-3.632,4.011
		c-0.321,7.667-6.007,34.095-3.273,42.328c1.836,8.474,8.086,19.656,15.822,25.828c0.962,0.768,2.334,0.201,3.378,0.793
		c2.057,1.366,4.686,1.656,6.574,3.308c0.92,0.709,2.11,0.78,3.199,1.066c1.086,0.299,1.961,1.044,2.948,1.563
		c5.011,2.438,4.267,2.753,6.469,5.746c0.296,0.369,0.605,0.85,1.133,0.907c1.215,0.24,6.879,1.829,9.025-1.528
		c6.247-9.552,38.751-47.934,39.058-48.253c23.443-28.021,20.202-23.382,36.964-75.936c15.423-49.851,24.505-50.802,2.45-69.243
		c-21.725-18.259-43.014-32.111-62.669-43.005c-15.821,27.925-29.335,55.669-40.705,82.147c0.087,0.335,0.174,0.67,0.26,1.005
		C1433.803,291.275,1433.687,291.268,1433.571,291.262z"/>
	<path d="M883.58,759.258c-38.868-81.357-60.388-167.02-47.318-293.724c2.596-9.764-150.109-172.801-353.861-240.206
		c-11.121,152.421,30.018,330.743,84.382,430.092C650.332,657.954,761.104,687.261,883.58,759.258z"/>
	<path d="M1778.741,740.208c78.328-43.589,188.767-81.17,284.461-84.788c54.012-97.44,95.692-278.408,84.397-430.092
		c-110.319,35.863-259.624,124.354-353.636,237.549c-0.411,28.63,24.214,147.295-47.513,296.351
		C1757.364,753.148,1767.692,746.063,1778.741,740.208z"/>
	<path d="M1058.094,1113.912c-0.156-0.019-0.471-0.057-0.627-0.076c-3.968-2.461-26.33-10.611-33.532-22.915
		c-5.967-7.968-6.162-12.166-6.698-13.536c0.067-1.908-0.226-3.839-0.24-5.741c-0.181-24.324,3.997-32.342,16.985-46.351
		c0.319-0.285,23.484-25.079,29.562-29.304c3.454-3.313,11.107-9.98,21.293-18.454c-2.836-140.575,37.542-272.233,89.915-354.241
		c-51.671-40.022-103.357-80.044-155.163-119.9c-62.053,100.115-85.617,253.686-81.755,375.043
		c8.013,195.621,137.242,386.997,283.02,502.9c-3.072-7.109-70.39-118.886-109.304-251.555c-1.239-0.479-2.117-0.817-2.205-0.85
		C1091.765,1122.49,1075.33,1123.053,1058.094,1113.912z"/>
	<path d="M1491.17,607.86c-1.76,2.341-7.352,32.222-10.054,61.446c91.767,184.222,92.707,447.789-51.659,703.317
		c0.018,0.986,0.032,1.972-0.054,2.953c-0.008,0.05-0.268,0.953-0.709,2.458c27.025-22.155,147.276-132.588,215.796-293.244
		c89.674-211.667,38.157-463.775-34.077-581.397c-38.823,29.897-77.597,59.877-116.355,89.869c-0.298,1.887-0.617,3.77-0.973,5.647
		C1492.536,601.797,1491.196,604.92,1491.17,607.86z"/>
	<path d="M741.686,1210.381c-68.808-82.954-122.678-159.153-163.645-275.064c-45.714-129.539-39.739-217.41-40.472-232.385
		c-23.753-47.653-167.633-156.218-290.976-177.546c-25.129,157.168,15.88,300.288,97.187,435.557
		C411.489,1075.129,611.506,1177.826,741.686,1210.381z"/>
	<path d="M2094.187,699.9c-3.063,3.213-1.636,7.956-1.937,11.935c4.301,182.379-86.319,358.41-203.937,498.531
		c130.309-32.743,299.783-124.067,375.013-216.757c44.414-52.929,155.328-244.551,120.095-468.237
		C2373.067,526.414,2201.107,564.517,2094.187,699.9z"/>
	<path d="M589.871,708.382c7.809,104.881,13.945,250.674,130.949,409.976c164.01,221.299,451.797,333.627,539.574,348.937
		c-1.289-1.501-400.201-277.346-370.134-651.578C873.511,801.373,754.19,727.186,589.871,708.382z"/>
	<path d="M1407.855,1452.591c-0.282,1.513,0.719,2.712-1.484,3.734c-0.876,0.442-1.398,1.318-2.184,1.881
		c-0.853,0.513-1.531,0.883-2.093,1.169c135.5-38.911,511.322-202.348,607.846-545.165c19.38-66.923,26.316-136.609,30.174-205.934
		c-95.98,8.259-234.682,58.175-300.389,107.455c6.155,70.961-8.286,142.103-30.114,209.386
		c-71.861,212.202-223.084,349.449-297.328,408.904c-0.733,2.667-1.422,5.023-1.934,6.476
		C1409.138,1444.441,1408.738,1448.57,1407.855,1452.591z"/>
	<path d="M1350.865,941.742c-67.026,28.098-67.613,44.488-157.049,90.593c-20.521,11.603-18.817,11.505-30.412,21.476
		c-0.837,0.751-1.884,1.289-2.572,2.203c-0.239,0.754-0.49,0.713,12.301,6.666c2.301,1.125,4.79-0.043,8.131,3.629
		c1.259,1.412,7.429,3.838,14.784,8.452c11.204,6.25,9.904,6.287,12.333,7.726c6.841,4.303,9.195,7.111,11.352,7.433
		c4.497,0.742,4.859,3.573,6.294,5.161c4.042,3.261,5.271,1.529,7.819,3.712c0.993,0.802,1.903,1.792,3.18,2.158
		c5.05,1.591,2.197,2.26,12.18,6.981c1.474,0.682,2.713,1.764,4.177,2.474c2.503,1.449,5.438,1.955,7.851,3.588
		c8.164,5.28,10.415,1.988,13.501,5.049c2.512,2.611,6.027,3.897,9.452,4.82c1.076,0.277,2.191,0.054,3.289,0.118
		c3.672,0.109,2.733,5.291,3.986,7.258c0.519,0.341,5.254,2.531,7.691,3.381c0.13,0.102,0.394,0.306,0.528,0.411
		c8.764,2.627,36.624,16.571,53.079,11.343c1.633-0.541,3.374-0.35,5.068-0.417c13.395,0.063,13.569-0.471,18.999,2.066
		c0.433,0.136,0.891,0.42,1.372,0.286c0,0,2.422-30.656,7.535-69.089c3.093-21.181,1.834-83.564,0.92-89.159
		C1383.688,962.744,1362.376,936.25,1350.865,941.742z"/>
	<path d="M1361.265,1402.633c0.417-10.108,1.951-0.549,1.009-25.802c-0.303-5.192,3.367-6.772,1.92-13.982
		c-0.027-0.319,0.727-7.59,0.057-10.827c-0.137-2.451-0.026-4.912-0.051-7.357c0.095-1.173-1.46-16.292-0.223-19.882
		c2.612-7.999,3.658-7.991,3.267-9.34c-0.511-1.764-3.643-1.438-4.248-3.173c-0.273-0.784,0.127-1.623,0.231-2.446
		c0.238-1.892-3.508-2.83-4.7-4.049c-1.216-1.107-1.375-2.858-1.633-4.377c0.104-4.067-2.535-5.059-1.398-10.897
		c0.001-0.005,0.475-6.652,0.522-6.883c1.42-6.797-2.607-10.451-12.747-26.617c-8.656-12.512-5.189-3.799-11.54-19.263
		c-2.84-5.692-6.071-11.206-9.796-16.363c-11.12-14.82-48.299-36.524-48.619-36.738c-1.378-0.351-3.563-2.043-6.861-3.266
		c-1.238,0.596-2.445,1.248-3.661,1.885c-0.964,0.044-2.009,0.121-2.83-0.478c-10.486-7.314-26.482-14.34-29.002-15.704
		c-0.156-0.022-0.471-0.067-0.627-0.086c-2.229-1.28-13.41-4.801-15.94-5.568c-5.88-2.398-12.378-2.416-15.224-2.846
		c-3.635-0.517-4.601-2.861-11.499-5.021c-0.186-0.053-18.233-4.986-34.314-9.64c36.08,133.616,110.577,245.019,178.388,306.269
		c9.86-10.676,19.338-21.69,28.437-33.011c0.007-0.043,0.016-0.086,0.022-0.129
		C1360.406,1416.179,1360.745,1404.244,1361.265,1402.633z"/>
	<path d="M1240.146,872.058c1.469-1.703,10.085-10.17,12.849-10.318c1.793-2.407,4.706-7.194,9.299-10.865
		c1.403-0.948,2.052-2.715,3.666-3.414c2.179-0.944,6.624-0.491,6.505-4.409c-0.09-2.974-6.358-4.322-3.072-10.946
		c1.944-3.917,3.652-8.166,6.245-11.697c2.113-2.878,3.446-3.013,3.179-9.001c-0.365-8.2-1.17-20.991,2.032-30.089
		c14.024-39.847,14.675-33.468,13.108-60.787c-3.197-55.727-12.159-79.153-14.4-86.614c-0.096-0.32-8.142-26.625-8.097-27.821
		c-0.079-0.318-2.057-10.074-3.432-13.845c-3.636-9.971-7.199-10.963-7.368-15.309c-0.201-5.151,1.842-4.889-2.773-12.931
		c-1.07-1.865-1.76-3.167-2.261-4.321c-69.102,111.549-115.046,241.564-122.911,379.817c17.612-13.349,35.884-26.437,51.469-36.15
		C1214.213,884.97,1235.814,877.667,1240.146,872.058z"/>
	<path d="M1507.798,980.01c-4.182,14.037-10.488,33.177-20.005,65.206c-50.417,180.108-38.983,182.008-41.543,231.669
		C1487.615,1185.696,1509.186,1084.188,1507.798,980.01z"/>
	<path d="M35,1287.978c542.121,336.896,839.363,288.912,1226.415,227.146c3.963-0.675,8.046-0.946,11.799-2.537
		c-172.285-29.08-343.648-125.76-453.465-234.937C583.634,1196.969,203.291,1222.496,35,1287.978z"/>
	<path d="M2550.655,1274.527c-405.986-106.902-735.629-3.563-743.601,5.93c-92.253,96.37-256.176,190.384-415.273,225.386
		c0.454,2.417,0.179,8.469,0.703,9.667c0.067,1.962,0.118,2.944-0.147,4.036c88.124,16.231,322.278,53.939,500.734,35.736
		c251.34-23.603,488.064-134.846,701.928-267.302C2580.679,1282.183,2565.502,1278.716,2550.655,1274.527z"/>
</g>
</svg>
