<?xml version="1.0" encoding="utf-8"?>
<!-- Generator: Adobe Illustrator 27.5.0, SVG Export Plug-In . SVG Version: 6.00 Build 0)  -->
<svg version="1.1" xmlns="http://www.w3.org/2000/svg" xmlns:xlink="http://www.w3.org/1999/xlink" x="0px" y="0px"
	 viewBox="0 0 750 500" style="enable-background:new 0 0 750 500;" xml:space="preserve">
<g id="BACKGROUND">
	<rect style="fill:#FFFFFF;" width="750" height="500"/>
</g>
<g id="OBJECTS">
	<g>
		<circle style="fill:#FE1F43;" cx="74.586" cy="283.233" r="33.308"/>
		<g>
			<g>
				<path style="fill:#FFFFFF;" d="M88.1,269.462c5.14-9.5-12.281-11.287-13.408-16.54H74.48c-1.127,5.253-18.548,7.04-13.408,16.54
					"/>
				<path style="fill:#FFFFFF;" d="M61.072,297.003c-5.14,9.501,12.281,11.287,13.408,16.541h0.212
					c1.126-5.253,18.548-7.04,13.408-16.541"/>
				<path style="fill:#FFFFFF;" d="M88.357,296.746c9.501,5.14,11.287-12.281,16.541-13.408v-0.212
					c-5.253-1.126-7.04-18.548-16.541-13.408"/>
				<path style="fill:#FFFFFF;" d="M60.815,269.719c-9.5-5.14-11.287,12.281-16.541,13.408v0.212
					c5.253,1.126,7.04,18.548,16.541,13.408"/>
			</g>
			<circle style="fill:#FE1F43;stroke:#FFFFFF;stroke-width:1.28;stroke-miterlimit:10;" cx="74.562" cy="283.115" r="19.2"/>
			
				<rect x="61.762" y="270.315" style="fill:none;stroke:#FFFFFF;stroke-width:1.28;stroke-miterlimit:10;" width="25.6" height="25.6"/>
			<polygon style="fill:none;stroke:#FFFFFF;stroke-width:1.28;stroke-miterlimit:10;" points="74.562,290.571 83.17,275.66 
				65.953,275.66 74.562,290.571 83.17,275.66 65.953,275.66 			"/>
		</g>
	</g>
	<g>
		<circle style="fill:#FF8C00;" cx="174.724" cy="283.233" r="33.308"/>
		<g>
			<g>
				<path style="fill:#FFFFFF;" d="M184.115,267.577c3.548-9.026-8.477-10.723-9.255-15.714h-0.146
					c-0.778,4.991-12.803,6.688-9.255,15.714"/>
				<path style="fill:#FFFFFF;" d="M193.01,283.433c9.587-1.466,5.013-12.717,8.937-15.896l-0.074-0.126
					c-4.706,1.835-12.215-7.71-18.236-0.108"/>
				<path style="fill:#FFFFFF;" d="M183.768,299.09c6.084,7.552,13.514-2.054,18.235-0.258l0.072-0.127
					c-3.951-3.147,0.531-14.435-9.068-15.822"/>
				<path style="fill:#FFFFFF;" d="M165.588,298.965c-3.474,9.054,8.565,10.653,9.383,15.637l0.146-0.001
					c0.737-4.997,12.748-6.793,9.126-15.789"/>
				<path style="fill:#FFFFFF;" d="M156.563,283.182c-9.574,1.545-4.908,12.757-8.807,15.969l0.074,0.126
					c4.691-1.873,12.278,7.61,18.236-0.041"/>
				<path style="fill:#FFFFFF;" d="M165.676,267.45c-6.145-7.502-13.497,2.165-18.232,0.408l-0.071,0.128
					c3.976,3.115-0.412,14.439,9.197,15.747"/>
			</g>
			<circle style="fill:#FF8C00;stroke:#FFFFFF;stroke-width:1.28;stroke-miterlimit:10;" cx="174.787" cy="283.233" r="18.24"/>
			
				<ellipse transform="matrix(0.2298 -0.9732 0.9732 0.2298 -141.0269 388.2703)" style="fill:none;stroke:#FFFFFF;stroke-width:1.28;stroke-miterlimit:10;" cx="174.787" cy="283.233" rx="13.277" ry="13.277"/>
			<circle style="fill:none;stroke:#FFFFFF;stroke-width:1.28;stroke-miterlimit:10;" cx="174.787" cy="277.107" r="7.15"/>
		</g>
	</g>
	<g>
		<circle style="fill:#FFD900;" cx="274.862" cy="283.233" r="33.308"/>
		<g>
			<g>
				<path style="fill:#FFFFFF;" d="M282.211,265.313c2.796-7.111-6.679-8.448-7.292-12.38h-0.115
					c-0.613,3.932-10.087,5.269-7.292,12.38"/>
				<path style="fill:#FFFFFF;" d="M292.721,275.736c7.001-3.06,1.238-10.698,3.581-13.915l-0.082-0.081
					c-3.211,2.351-10.863-3.393-13.906,3.616"/>
				<path style="fill:#FFFFFF;" d="M292.8,290.537c7.118,2.778,8.431-6.7,12.362-7.323l0-0.115
					c-3.934-0.603-5.295-10.074-12.399-7.261"/>
				<path style="fill:#FFFFFF;" d="M282.404,301.073c3.078,6.993,10.701,1.211,13.924,3.546l0.081-0.082
					c-2.359-3.205,3.366-10.872-3.651-13.897"/>
				<path style="fill:#FFFFFF;" d="M267.603,301.19c-2.76,7.125,6.721,8.415,7.354,12.344l0.115-0.001
					c0.593-3.935,10.061-5.32,7.229-12.417"/>
				<path style="fill:#FFFFFF;" d="M257.041,290.82c-6.986,3.095-1.184,10.704-3.511,13.933l0.082,0.081
					c3.199-2.367,10.88,3.339,13.887-3.686"/>
				<path style="fill:#FFFFFF;" d="M256.887,276.019c-7.132-2.742-8.398,6.743-12.325,7.385l0.001,0.115
					c3.936,0.583,5.345,10.047,12.435,7.198"/>
				<path style="fill:#FFFFFF;" d="M267.23,265.431c-3.113-6.978-10.707-1.157-13.941-3.475l-0.081,0.082
					c2.375,3.193-3.311,10.888,3.721,13.878"/>
			</g>
			<circle style="fill:#FFD900;stroke:#FFFFFF;stroke-width:1.28;stroke-miterlimit:10;" cx="274.862" cy="283.233" r="19.2"/>
			
				<polyline style="fill:none;stroke:#FFFFFF;stroke-width:1.28;stroke-linecap:round;stroke-linejoin:round;stroke-miterlimit:10;" points="
				289.158,270.852 260.566,270.852 274.862,302.433 289.158,270.852 260.566,270.852 			"/>
		</g>
	</g>
	<g>
		<circle style="fill:#17D1FF;" cx="475.138" cy="283.233" r="33.308"/>
		<g>
			<circle style="fill:#17D1FF;stroke:#FFFFFF;stroke-width:1.28;stroke-miterlimit:10;" cx="475.204" cy="283.236" r="19.2"/>
			<g>
				<path style="fill:#FFFFFF;" d="M479.26,264.356c1.543-3.925-3.687-6.583-4.025-8.754h-0.064
					c-0.338,2.17-5.568,4.829-4.025,8.754"/>
				<path style="fill:#FFFFFF;" d="M486.997,267.945c3.083-2.878-0.491-7.529,0.138-9.634l-0.057-0.027
					c-1.24,1.813-7.105,1.959-7.403,6.166"/>
				<path style="fill:#FFFFFF;" d="M492.434,274.517c4.022-1.269,2.8-7.007,4.275-8.635l-0.04-0.049
					c-1.9,1.102-7.256-1.292-9.337,2.376"/>
				<path style="fill:#FFFFFF;" d="M494.51,282.789c4.176,0.588,5.545-5.117,7.577-5.951l-0.015-0.062
					c-2.19,0.176-5.992-4.292-9.45-1.878"/>
				<path style="fill:#FFFFFF;" d="M492.819,291.149c3.516,2.329,7.208-2.229,9.402-2.107l0.013-0.062
					c-2.052-0.784-3.558-6.454-7.719-5.766"/>
				<path style="fill:#FFFFFF;" d="M487.692,297.966c2.17,3.617,7.466,1.093,9.392,2.149l0.039-0.051
					c-1.514-1.592-0.431-7.358-4.483-8.528"/>
				<path style="fill:#FFFFFF;" d="M480.129,301.909c0.4,4.198,6.267,4.203,7.55,5.985l0.057-0.029
					c-0.681-2.089,2.78-6.826-0.372-9.628"/>
				<path style="fill:#FFFFFF;" d="M471.606,302.209c-1.448,3.961,3.845,6.492,4.236,8.654l0.064-0.002
					c0.285-2.178,5.449-4.962,3.812-8.849"/>
				<path style="fill:#FFFFFF;" d="M463.784,298.809c-3.013,2.951,0.674,7.515,0.095,9.634l0.058,0.026
					c1.196-1.843,7.055-2.131,7.251-6.344"/>
				<path style="fill:#FFFFFF;" d="M458.19,292.371c-3.99,1.366-2.629,7.073-4.064,8.736l0.041,0.048
					c1.873-1.148,7.285,1.116,9.277-2.602"/>
				<path style="fill:#FFFFFF;" d="M455.914,284.151c-4.19-0.486-5.419,5.25-7.431,6.133l0.016,0.062
					c2.185-0.229,6.094,4.145,9.493,1.648"/>
				<path style="fill:#FFFFFF;" d="M457.402,275.753c-3.571-2.243-7.152,2.403-9.348,2.334l-0.012,0.063
					c2.07,0.734,3.714,6.366,7.857,5.577"/>
				<path style="fill:#FFFFFF;" d="M462.362,268.814c-2.257-3.563-7.49-0.912-9.441-1.921l-0.038,0.051
					c1.552,1.554,0.609,7.345,4.688,8.417"/>
				<path style="fill:#FFFFFF;" d="M469.827,264.689c-0.502-4.188-6.367-4.049-7.693-5.8l-0.056,0.03
					c0.731,2.071-2.614,6.891,0.605,9.616"/>
				
					<circle style="fill:none;stroke:#FFFFFF;stroke-width:1.28;stroke-linecap:round;stroke-linejoin:round;stroke-miterlimit:10;" cx="475.204" cy="280.036" r="8.918"/>
			</g>
			
				<polygon style="fill:none;stroke:#FFFFFF;stroke-width:1.28;stroke-linecap:round;stroke-linejoin:round;stroke-miterlimit:10;" points="
				475.204,302.436 489.684,270.696 460.723,270.696 			"/>
		</g>
	</g>
	<g>
		<circle style="fill:#8F20F7;" cx="575.276" cy="283.233" r="33.308"/>
		<g>
			<g>
				<path style="fill:#FFFFFF;" d="M589.047,296.746c9.5,5.14,11.287-12.281,16.54-13.408v-0.212
					c-5.253-1.126-7.04-18.548-16.54-13.408"/>
				<path style="fill:#FFFFFF;" d="M561.505,269.719c-9.501-5.14-11.287,12.281-16.541,13.408v0.212
					c5.253,1.126,7.04,18.548,16.541,13.408"/>
			</g>
			<circle style="fill:#8F20F7;stroke:#FFFFFF;stroke-width:1.28;stroke-miterlimit:10;" cx="575.276" cy="283.233" r="19.2"/>
			
				<polygon style="fill:none;stroke:#FFFFFF;stroke-width:1.28;stroke-linecap:round;stroke-linejoin:round;stroke-miterlimit:10;" points="
				575.276,302.433 590.014,271.269 560.538,271.269 			"/>
		</g>
	</g>
	<g>
		<circle style="fill:#FF54FB;" cx="675.414" cy="283.233" r="33.308"/>
		<g>
			<g>
				<path style="fill:#FFFFFF;" d="M682.396,266.208c2.656-6.755-6.345-8.026-6.927-11.761h-0.11
					c-0.582,3.735-9.583,5.006-6.927,11.761"/>
				<path style="fill:#FFFFFF;" d="M692.38,276.11c6.651-2.907,1.176-10.163,3.402-13.219l-0.078-0.077
					c-3.05,2.234-10.32-3.223-13.21,3.435"/>
				<path style="fill:#FFFFFF;" d="M692.456,290.172c6.762,2.639,8.01-6.365,11.744-6.957l0-0.109
					c-3.737-0.573-5.03-9.57-11.779-6.897"/>
				<path style="fill:#FFFFFF;" d="M682.579,300.181c2.924,6.644,10.166,1.15,13.227,3.368l0.077-0.078
					c-2.241-3.044,3.198-10.328-3.468-13.202"/>
				<path style="fill:#FFFFFF;" d="M668.518,300.292c-2.622,6.769,6.385,7.994,6.986,11.726l0.109-0.001
					c0.563-3.738,9.558-5.054,6.868-11.796"/>
				<path style="fill:#FFFFFF;" d="M658.484,290.44c-6.637,2.941-1.125,10.169-3.335,13.236l0.078,0.077
					c3.039-2.249,10.336,3.172,13.193-3.501"/>
				<path style="fill:#FFFFFF;" d="M658.337,276.379c-6.775-2.605-7.978,6.406-11.709,7.016l0.001,0.109
					c3.74,0.554,5.078,9.545,11.813,6.838"/>
				<path style="fill:#FFFFFF;" d="M668.164,266.321c-2.957-6.629-10.172-1.099-13.244-3.302l-0.077,0.078
					c2.257,3.033-3.146,10.344,3.534,13.184"/>
			</g>
			<g>
				
					<path style="fill:none;stroke:#FFFFFF;stroke-width:1.216;stroke-linecap:round;stroke-linejoin:round;stroke-miterlimit:10;" d="
					M693.814,283.266c7.258-0.093,5.034-8.907,8.273-10.857l-0.041-0.101c-3.678,0.872-8.255-6.982-13.507-1.971"/>
				
					<path style="fill:none;stroke:#FFFFFF;stroke-width:1.216;stroke-linecap:round;stroke-linejoin:round;stroke-miterlimit:10;" d="
					M688.418,296.25c5.204,5.06,9.854-2.751,13.525-1.844l0.042-0.101c-3.22-1.98-0.914-10.773-8.171-10.934"/>
				
					<path style="fill:none;stroke:#FFFFFF;stroke-width:1.216;stroke-linecap:round;stroke-linejoin:round;stroke-miterlimit:10;" d="
					M675.427,301.633c0.111,7.258,8.92,5.012,10.878,8.246l0.101-0.042c-0.882-3.676,6.961-8.273,1.937-13.512"/>
				
					<path style="fill:none;stroke:#FFFFFF;stroke-width:1.216;stroke-linecap:round;stroke-linejoin:round;stroke-miterlimit:10;" d="
					M662.429,296.269c-5.047,5.217,2.776,9.847,1.878,13.52l0.101,0.042c1.972-3.225,10.771-0.941,10.913-8.199"/>
				
					<path style="fill:none;stroke:#FFFFFF;stroke-width:1.216;stroke-linecap:round;stroke-linejoin:round;stroke-miterlimit:10;" d="
					M657.014,283.292c-7.258,0.129-4.989,8.932-8.218,10.898l0.042,0.101c3.674-0.891,8.29,6.94,13.516,1.903"/>
				
					<path style="fill:none;stroke:#FFFFFF;stroke-width:1.216;stroke-linecap:round;stroke-linejoin:round;stroke-miterlimit:10;" d="
					M662.345,270.28c-5.23-5.034-9.84,2.8-13.515,1.912l-0.042,0.101c3.23,1.964,0.968,10.768,8.226,10.893"/>
				
					<path style="fill:none;stroke:#FFFFFF;stroke-width:1.216;stroke-linecap:round;stroke-linejoin:round;stroke-miterlimit:10;" d="
					M675.308,264.832c-0.148-7.257-8.945-4.967-10.919-8.191l-0.101,0.042c0.9,3.672-6.919,8.308-1.869,13.521"/>
				
					<path style="fill:none;stroke:#FFFFFF;stroke-width:1.216;stroke-linecap:round;stroke-linejoin:round;stroke-miterlimit:10;" d="
					M688.333,270.131c5.021-5.242-2.825-9.833-1.946-13.51l-0.101-0.042c-1.956,3.235-10.766,0.995-10.872,8.253"/>
			</g>
			<circle style="fill:none;stroke:#FFFFFF;stroke-width:1.216;stroke-miterlimit:10;" cx="675.414" cy="283.233" r="18.24"/>
		</g>
	</g>
	<g>
		<circle style="fill:#9ADD38;" cx="375" cy="283.233" r="33.308"/>
		<g>
			<g>
				<path style="fill:#FFFFFF;" d="M380.25,265.256c2.025-5.15-4.838-6.119-5.281-8.967h-0.083
					c-0.444,2.848-7.306,3.816-5.281,8.967"/>
				<path style="fill:#FFFFFF;" d="M389.341,271.017c4.477-3.253-0.787-7.761,0.371-10.4l-0.07-0.045
					c-1.906,2.162-8.212-0.713-9.276,4.718"/>
				<path style="fill:#FFFFFF;" d="M393.906,280.763c5.524-0.334,3.511-6.965,5.907-8.568l-0.035-0.076
					c-2.77,0.798-6.539-5.018-10.357-1.012"/>
				<path style="fill:#FFFFFF;" d="M392.511,291.434c4.836,2.69,6.707-3.983,9.589-4.045l0.011-0.083
					c-2.764-0.818-2.813-7.748-8.187-6.424"/>
				<path style="fill:#FFFFFF;" d="M385.596,299.68c2.63,4.869,7.796,0.25,10.259,1.748l0.054-0.064
					c-1.89-2.176,1.796-8.045-3.446-9.82"/>
				<path style="fill:#FFFFFF;" d="M375.33,302.911c-0.402,5.52,6.438,4.404,7.708,6.992l0.08-0.025
					c-0.423-2.851,5.841-5.816,2.377-10.132"/>
				<path style="fill:#FFFFFF;" d="M364.938,300.114c-3.308,4.437,3.058,7.176,2.737,10.04l0.081,0.022
					c1.177-2.631,8.053-1.761,7.454-7.262"/>
				<path style="fill:#FFFFFF;" d="M357.683,292.165c-5.175,1.961-1.282,7.694-3.093,9.936l0.056,0.062
					c2.408-1.585,7.736,2.847,10.19-2.113"/>
				<path style="fill:#FFFFFF;" d="M355.842,281.562c-5.417-1.131-5.22,5.797-7.953,6.712l0.014,0.082
					c2.882-0.041,4.99,6.561,9.727,3.7"/>
				<path style="fill:#FFFFFF;" d="M359.994,271.633c-3.958-3.867-7.518,2.079-10.315,1.381l-0.032,0.077
					c2.451,1.516,0.677,8.215,6.209,8.351"/>
				<path style="fill:#FFFFFF;" d="M368.835,265.496c-1.257-5.39-7.456-2.292-9.438-4.384l-0.069,0.047
					c1.251,2.596-3.849,7.289,0.742,10.38"/>
			</g>
			
				<circle style="fill:#9ADD38;stroke:#FFFFFF;stroke-width:1.28;stroke-linecap:round;stroke-linejoin:round;stroke-miterlimit:10;" cx="374.927" cy="283.71" r="19.2"/>
			
				<polygon style="fill:none;stroke:#FFFFFF;stroke-width:1.28;stroke-linecap:round;stroke-linejoin:round;stroke-miterlimit:10;" points="
				374.927,264.51 358.545,292.468 391.309,292.468 			"/>
			
				<polygon style="fill:none;stroke:#FFFFFF;stroke-width:1.28;stroke-linecap:round;stroke-linejoin:round;stroke-miterlimit:10;" points="
				374.927,302.91 391.309,274.952 358.545,274.952 			"/>
		</g>
	</g>
	<text transform="matrix(1 0 0 1 57.8662 352.8242)" style="fill:#FE1F43; font-family:'Aleo-Regular'; font-size:17px;">Root</text>
	<text transform="matrix(1 0 0 1 49.9785 373.5341)" style="fill:#FE1F43; font-family:'Aleo-Regular'; font-size:17px;">Chakra</text>
	<text transform="matrix(1 0 0 1 153.746 352.8242)" style="fill:#FF8C00; font-family:'Aleo-Regular'; font-size:17px;">Sacral</text>
	<text transform="matrix(1 0 0 1 150.1166 373.5341)" style="fill:#FF8C00; font-family:'Aleo-Regular'; font-size:17px;">Chakra</text>
	<text transform="matrix(1 0 0 1 257.1224 352.8242)" style="fill:#FFD900; font-family:'Aleo-Regular'; font-size:17px;">Solar</text>
	<text transform="matrix(1 0 0 1 250.2548 373.5341)" style="fill:#FFD900; font-family:'Aleo-Regular'; font-size:17px;">Chakra</text>
	<text transform="matrix(1 0 0 1 355.5094 352.8242)" style="fill:#9ADD38; font-family:'Aleo-Regular'; font-size:17px;">Heart</text>
	<text transform="matrix(1 0 0 1 350.3929 373.5341)" style="fill:#9ADD38; font-family:'Aleo-Regular'; font-size:17px;">Chakra</text>
	<text transform="matrix(1 0 0 1 451.8395 352.8242)" style="fill:#17D1FF; font-family:'Aleo-Regular'; font-size:17px;">Throat</text>
	<text transform="matrix(1 0 0 1 450.5309 373.5341)" style="fill:#17D1FF; font-family:'Aleo-Regular'; font-size:17px;">Chakra</text>
	<text transform="matrix(1 0 0 1 542.5259 352.8242)" style="fill:#8F20F7; font-family:'Aleo-Regular'; font-size:17px;">Third Eye</text>
	<text transform="matrix(1 0 0 1 550.6689 373.5341)" style="fill:#8F20F7; font-family:'Aleo-Regular'; font-size:17px;">Chakra</text>
	<text transform="matrix(1 0 0 1 652.0648 352.8242)" style="fill:#FF54FB; font-family:'Aleo-Regular'; font-size:17px;">Crown</text>
	<text transform="matrix(1 0 0 1 650.8071 373.5341)" style="fill:#FF54FB; font-family:'Aleo-Regular'; font-size:17px;">Chakra</text>
	<g>
		<path style="fill:#EFE3D3;" d="M114.497,212.985c-0.018-0.161-0.144-0.187-0.278-0.217c-0.346-0.077-0.648-0.174-0.899-0.441
			c-0.338-0.361-0.464-0.864-0.759-1.254c-0.319-0.422-0.752-0.508-1.256-0.579c-0.332-0.047-0.664-0.094-0.996-0.139
			c-0.434-0.059-1.298-0.442-1.639-0.788c-2.503-2.54-8.438-14.75-9.881-16.419c-0.58-0.666-1.29-1.66-1.772-2.4
			c-0.334-0.512-0.582-1.076-0.787-1.651c-1.266-3.56-1.618-15.049-1.411-16.186c0.553-3.038,0.42-4.545-0.232-7.578
			c-0.565-2.632-2.072-4.032-4.485-5.007c-1.367-0.552-2.916-0.967-4.216-1.766c-1.527-0.939-2.904-2.214-4.315-3.317
			c-0.347-0.271-0.699-0.548-0.948-0.911c-0.219-0.32-0.348-0.692-0.441-1.068c-0.546-2.205,0.082-4.492,0.699-6.679
			c1.241,0.591,3.02-4.007,2.51-4.832c-0.178-0.288-0.543,0.155-0.638-0.171c-0.082-0.281,0.308-0.785,0.357-1.074
			c0.369-2.189,0.207-4.467-0.468-6.581c-0.258-0.809-0.598-1.606-1.137-2.262c-1.478-1.799-4.307-2.894-6.613-2.877v-0.001
			c-0.103,0-0.205,0.001-0.306,0.004c-0.101-0.004-0.203-0.005-0.306-0.004v0.001c-2.305-0.017-5.135,1.078-6.613,2.877
			c-0.539,0.656-0.878,1.453-1.137,2.262c-0.676,2.115-0.838,4.392-0.468,6.581c0.049,0.289,0.378,0.886,0.296,1.167
			c-0.095,0.325-0.399-0.211-0.577,0.077c-0.51,0.825,1.269,5.423,2.51,4.832c0.616,2.186,1.245,4.474,0.699,6.679
			c-0.093,0.376-0.222,0.749-0.441,1.068c-0.249,0.363-0.601,0.64-0.948,0.911c-1.411,1.103-2.788,2.378-4.315,3.317
			c-1.299,0.799-2.848,1.214-4.216,1.766c-2.412,0.974-3.919,2.375-4.485,5.007c-0.652,3.034-0.785,4.54-0.232,7.578
			c0.207,1.137-0.146,12.626-1.411,16.186c-0.205,0.576-0.453,1.139-0.787,1.651c-0.482,0.74-1.192,1.734-1.772,2.4
			c-1.443,1.669-7.379,13.879-9.881,16.419c-0.341,0.346-1.204,0.728-1.639,0.788c-0.332,0.046-0.664,0.093-0.996,0.139
			c-0.504,0.071-0.937,0.157-1.256,0.579c-0.295,0.391-0.421,0.893-0.759,1.254c-0.251,0.268-0.553,0.364-0.899,0.441
			c-0.134,0.03-0.26,0.055-0.278,0.217c-0.034,0.309,0.422,0.569,0.657,0.652c0.003,0.001,0.005,0.013-0.005,0.016
			c-0.148,0.05-0.185,0.077-0.172,0.232c0.303,0.671,0.111,1.37,0.285,2.728c0.032,0.254,0.356,0.648,0.597,0.656
			c-0.045,0.374-0.045,0.749-0.009,1.124c-0.486,0.897-0.915,1.855-0.636,2.022c0.154,0.092,0.505-0.186,0.922-0.618
			c0.239,0.786,0.581,1.555,0.949,2.283c0.561,1.107,1.214,2.231,2.257,2.903c0.755,0.487,1.654,0.694,2.541,0.836
			c1.606,0.256,3.242,0.324,4.864,0.2c2.178-0.166,4.314-0.672,6.439-1.177c9.564-2.272,14.877-4.376,23.547-6.825
			c2.974,1.156,7.19,2.788,11.792,4.227c0.875,0.274,1.764,0.54,2.66,0.795c0.448,0.127,0.898,0.252,1.349,0.373
			c0.902,0.242,1.809,0.469,2.715,0.678c0.905,0.209,1.81,0.399,2.706,0.566c3.586,0.667,7.054,0.959,10.017,0.579
			c0.386-0.049,0.779-0.12,1.164-0.218c0.578-0.148,1.138-0.359,1.628-0.659c0.49-0.3,0.91-0.688,1.207-1.19
			c0,0,0-0.001,0.001-0.001c0.129-0.218,0.237-0.469,0.336-0.731c0.018-0.047,0.035-0.092,0.052-0.14
			c0.094-0.27,0.177-0.552,0.245-0.846c0,0,0-0.001,0-0.001v0c0.113-0.483,0.193-0.985,0.253-1.472
			c0.338,0.327,0.614,0.516,0.745,0.438c0.275-0.165-0.138-1.098-0.615-1.984c0.02-0.439-0.008-0.82-0.072-1.161
			c0.243,0.041,0.604-0.389,0.638-0.658c0.174-1.358-0.018-2.057,0.285-2.728c0.012-0.155-0.024-0.182-0.172-0.232
			c-0.01-0.004-0.008-0.015-0.005-0.016C114.075,213.554,114.53,213.294,114.497,212.985z M88.387,179.437
			c-0.189,3.566,0.245,7.132,0.678,10.677c0.136,1.115-0.005,2.018,0.122,3.232c0.11,1.044,0.654,1.942,1.344,2.731
			c0.153,0.175,0.298,0.354,0.433,0.544c2.864,4.046,9.624,10.577,12.937,13.855c-1.957-0.991-3.948-1.926-5.975-2.735
			c-2.281-0.91-5.407-2.739-7.834-5.478c0,0,0,0,0,0c0.038-4.079-3.216-9.682-3.25-13.293c0-0.047-0.001-0.094-0.001-0.141
			C86.82,185.982,88.048,179.589,88.387,179.437z M35.772,213.656c0.529-0.163,1.152-0.838,1.536-1.208
			c0.02-0.019,0.041-0.038,0.061-0.057c0.045-0.04,0.12-0.014,0.121,0.05c0.004,0.33-0.128,0.664-0.182,0.99
			c-0.045,0.271-0.283,1.135-0.387,1.396c-0.161,0.408-0.383,0.87-0.563,0.912C36.359,215.74,36.209,213.852,35.772,213.656z
			 M46.897,208.872c3.555-3.506,8.859-8.787,11.31-12.251c0.135-0.19,0.279-0.368,0.433-0.544c0.69-0.789,1.234-1.687,1.344-2.731
			c0.127-1.214-0.014-2.117,0.122-3.232c0.433-3.545,0.867-7.111,0.678-10.677c0.339,0.152,1.568,6.545,1.547,9.392
			c0,0.047-0.001,0.094-0.001,0.141c-0.034,3.613-3.291,9.22-3.25,13.3c0,0-0.519,0.902-1.281,1.822
			c-0.098-0.019-0.192-0.053-0.294-0.056c-1.097-0.038-1.968,0.858-2.948,1.351c-0.924,0.465-1.983,0.576-2.955,0.928
			c-0.188,0.068-0.373,0.155-0.548,0.255c-0.053,0.03-0.109,0.056-0.159,0.09c-0.045,0.03-0.081,0.068-0.123,0.102
			c-0.059,0.047-0.122,0.091-0.175,0.145c0,0,0,0,0,0c-0.034,0.035-0.057,0.079-0.087,0.117c-0.049,0.062-0.103,0.12-0.142,0.191
			c0,0,0,0,0,0.001c0,0,0,0,0,0c0,0,0,0.001,0,0.001c-0.115,0.211-0.153,0.379-0.159,0.529
			C49.098,208.108,47.99,208.476,46.897,208.872z M112.813,215.74c-0.18-0.042-0.401-0.504-0.563-0.912
			c-0.103-0.262-0.342-1.125-0.387-1.396c-0.054-0.326-0.186-0.66-0.182-0.99c0.001-0.064,0.076-0.09,0.121-0.05
			c0.021,0.018,0.041,0.037,0.061,0.057c0.384,0.37,1.007,1.045,1.536,1.208C112.963,213.852,112.813,215.74,112.813,215.74z"/>
		<path style="fill:#FE1F43;" d="M70.179,209.612c0-2.434,1.973-4.407,4.407-4.407c2.434,0,4.407,1.973,4.407,4.407
			c0,2.434-1.973,4.407-4.407,4.407C72.152,214.019,70.179,212.046,70.179,209.612z"/>
	</g>
	<g>
		<path style="fill:#EFE3D3;" d="M214.635,212.985c-0.018-0.161-0.144-0.187-0.278-0.217c-0.346-0.077-0.648-0.174-0.899-0.441
			c-0.338-0.361-0.464-0.864-0.759-1.254c-0.319-0.422-0.752-0.508-1.256-0.579c-0.332-0.047-0.664-0.094-0.996-0.139
			c-0.435-0.059-1.298-0.442-1.639-0.788c-2.503-2.54-8.438-14.75-9.881-16.419c-0.58-0.666-1.29-1.66-1.772-2.4
			c-0.334-0.512-0.582-1.076-0.787-1.651c-1.266-3.56-1.618-15.049-1.411-16.186c0.553-3.038,0.42-4.545-0.232-7.578
			c-0.565-2.632-2.072-4.032-4.485-5.007c-1.367-0.552-2.916-0.967-4.216-1.766c-1.527-0.939-2.904-2.214-4.315-3.317
			c-0.347-0.271-0.699-0.548-0.948-0.911c-0.219-0.32-0.348-0.692-0.441-1.068c-0.546-2.205,0.082-4.492,0.699-6.679
			c1.241,0.591,3.02-4.007,2.51-4.832c-0.178-0.288-0.21-0.049-0.305-0.374c-0.082-0.281-0.025-0.581,0.024-0.87
			c0.37-2.189,0.207-4.467-0.468-6.581c-0.258-0.809-0.598-1.606-1.137-2.262c-1.478-1.799-4.307-2.894-6.613-2.877v-0.001
			c-0.103,0-0.205,0.001-0.306,0.004c-0.101-0.004-0.204-0.005-0.306-0.004v0.001c-2.305-0.017-5.135,1.078-6.613,2.877
			c-0.539,0.656-0.878,1.453-1.137,2.262c-0.676,2.115-0.838,4.392-0.469,6.581c0.049,0.289,0.106,0.589,0.024,0.87
			c-0.095,0.325-0.127,0.086-0.305,0.374c-0.51,0.825,1.269,5.423,2.51,4.832c0.616,2.186,1.245,4.474,0.698,6.679
			c-0.093,0.376-0.222,0.749-0.441,1.068c-0.249,0.363-0.601,0.64-0.948,0.911c-1.411,1.103-2.788,2.378-4.315,3.317
			c-1.299,0.799-2.848,1.214-4.216,1.766c-2.412,0.974-3.919,2.375-4.485,5.007c-0.652,3.034-0.785,4.54-0.232,7.578
			c0.207,1.137-0.146,12.626-1.411,16.186c-0.205,0.576-0.453,1.139-0.787,1.651c-0.482,0.74-1.192,1.734-1.772,2.4
			c-1.443,1.669-7.379,13.879-9.881,16.419c-0.341,0.346-1.204,0.728-1.639,0.788c-0.332,0.046-0.664,0.093-0.996,0.139
			c-0.504,0.071-0.937,0.157-1.256,0.579c-0.295,0.391-0.421,0.893-0.759,1.254c-0.251,0.268-0.553,0.364-0.899,0.441
			c-0.134,0.03-0.26,0.055-0.278,0.217c-0.034,0.309,0.422,0.569,0.657,0.652c0.003,0.001,0.005,0.013-0.005,0.016
			c-0.148,0.05-0.185,0.077-0.172,0.232c0.303,0.671,0.111,1.37,0.285,2.728c0.032,0.254,0.356,0.648,0.597,0.656
			c-0.045,0.374-0.045,0.749-0.009,1.124c-0.486,0.897-0.915,1.855-0.636,2.022c0.154,0.092,0.505-0.186,0.922-0.618
			c0.239,0.786,0.581,1.555,0.949,2.283c0.561,1.107,1.214,2.231,2.257,2.903c0.755,0.487,1.654,0.694,2.541,0.836
			c1.606,0.256,3.242,0.324,4.864,0.2c2.178-0.166,4.314-0.672,6.439-1.177c9.564-2.272,14.878-4.376,23.547-6.825
			c2.974,1.156,7.19,2.788,11.792,4.227c0.875,0.274,1.764,0.54,2.66,0.795c0.448,0.127,0.898,0.252,1.349,0.373
			c0.902,0.242,1.809,0.469,2.715,0.678c0.905,0.209,1.809,0.399,2.706,0.566c3.586,0.667,7.054,0.959,10.017,0.579
			c0.385-0.049,0.779-0.12,1.164-0.218c1.156-0.296,2.241-0.845,2.835-1.848c0.13-0.219,0.238-0.47,0.337-0.732
			c0.018-0.047,0.035-0.092,0.052-0.14c0.25-0.714,0.402-1.535,0.498-2.319c0.338,0.327,0.613,0.516,0.745,0.438
			c0.275-0.165-0.138-1.098-0.615-1.984c0.02-0.439-0.008-0.82-0.072-1.161c0.243,0.041,0.604-0.389,0.639-0.658
			c0.174-1.358-0.018-2.057,0.285-2.728c0.012-0.155-0.024-0.182-0.172-0.232c-0.01-0.004-0.008-0.015-0.005-0.016
			C214.213,213.554,214.668,213.294,214.635,212.985z M188.525,179.437c-0.189,3.566,0.245,7.132,0.678,10.677
			c0.136,1.115-0.005,2.018,0.122,3.232c0.11,1.044,0.654,1.942,1.344,2.731c0.153,0.175,0.298,0.354,0.433,0.544
			c2.864,4.046,9.624,10.577,12.936,13.855c-1.957-0.991-3.947-1.926-5.975-2.735c-2.281-0.91-5.407-2.739-7.834-5.478c0,0,0,0,0,0
			c0.038-4.079-3.216-9.682-3.25-13.293c0-0.047-0.001-0.094-0.001-0.141C186.958,185.982,188.186,179.589,188.525,179.437z
			 M135.91,213.656c0.529-0.163,1.152-0.838,1.536-1.208c0.02-0.019,0.041-0.038,0.061-0.057c0.045-0.04,0.12-0.014,0.121,0.05
			c0.004,0.33-0.128,0.664-0.182,0.99c-0.045,0.271-0.283,1.135-0.387,1.396c-0.161,0.408-0.383,0.87-0.563,0.912
			C136.497,215.74,136.347,213.852,135.91,213.656z M147.035,208.872c3.555-3.506,8.859-8.787,11.31-12.251
			c0.135-0.19,0.279-0.368,0.433-0.544c0.69-0.789,1.234-1.687,1.344-2.731c0.127-1.214-0.014-2.117,0.122-3.232
			c0.433-3.545,0.867-7.111,0.678-10.677c0.339,0.152,1.568,6.545,1.547,9.392c0,0.047-0.001,0.094-0.001,0.141
			c-0.034,3.613-3.291,9.22-3.25,13.3c0,0-0.519,0.902-1.281,1.822c-0.098-0.019-0.192-0.053-0.294-0.056
			c-1.096-0.038-1.968,0.858-2.948,1.351c-0.924,0.465-1.983,0.576-2.955,0.928c-0.188,0.068-0.373,0.155-0.548,0.255
			c-0.053,0.03-0.109,0.056-0.159,0.09c-0.045,0.03-0.081,0.068-0.123,0.102c-0.059,0.047-0.122,0.091-0.175,0.145
			c-0.034,0.035-0.057,0.079-0.087,0.117c-0.049,0.062-0.103,0.12-0.142,0.191c0,0,0,0,0,0.001c0,0,0,0,0,0c0,0,0,0.001,0,0.001
			c-0.115,0.211-0.152,0.379-0.159,0.529C149.236,208.108,148.128,208.476,147.035,208.872z M212.951,215.74
			c-0.18-0.042-0.401-0.504-0.563-0.912c-0.103-0.262-0.342-1.125-0.387-1.396c-0.054-0.326-0.186-0.66-0.182-0.99
			c0.001-0.064,0.076-0.09,0.121-0.05c0.021,0.018,0.041,0.037,0.061,0.057c0.384,0.37,1.007,1.045,1.536,1.208
			C213.101,213.852,212.951,215.74,212.951,215.74z"/>
		<path style="fill:#FF8C00;" d="M170.317,196.611c0-2.434,1.973-4.407,4.407-4.407c2.434,0,4.407,1.973,4.407,4.407
			s-1.973,4.407-4.407,4.407C172.29,201.018,170.317,199.045,170.317,196.611z"/>
	</g>
	<g>
		<path style="fill:#EFE3D3;" d="M314.773,212.985c-0.017-0.161-0.143-0.187-0.278-0.217c-0.346-0.077-0.648-0.174-0.899-0.441
			c-0.338-0.361-0.464-0.864-0.759-1.254c-0.319-0.422-0.752-0.508-1.256-0.579c-0.332-0.047-0.664-0.094-0.996-0.139
			c-0.435-0.059-1.298-0.442-1.638-0.788c-2.503-2.54-8.438-14.75-9.881-16.419c-0.58-0.666-1.29-1.66-1.772-2.4
			c-0.334-0.512-0.582-1.076-0.787-1.651c-1.266-3.56-1.618-15.049-1.411-16.186c0.553-3.038,0.42-4.545-0.232-7.578
			c-0.566-2.632-2.073-4.032-4.485-5.007c-1.367-0.552-2.916-0.967-4.216-1.766c-1.527-0.939-2.904-2.214-4.315-3.317
			c-0.347-0.271-0.699-0.548-0.948-0.911c-0.219-0.32-0.348-0.692-0.441-1.068c-0.546-2.205,0.082-4.492,0.699-6.679
			c1.241,0.591,3.02-4.007,2.51-4.832c-0.178-0.288-0.21-0.049-0.305-0.374c-0.082-0.281-0.025-0.581,0.024-0.87
			c0.369-2.189,0.207-4.467-0.469-6.581c-0.258-0.809-0.598-1.606-1.137-2.262c-1.478-1.799-4.307-2.894-6.613-2.877v-0.001
			c-0.103,0-0.205,0.001-0.306,0.004c-0.101-0.004-0.203-0.005-0.306-0.004v0.001c-2.305-0.017-5.135,1.078-6.613,2.877
			c-0.539,0.656-0.878,1.453-1.137,2.262c-0.676,2.115-0.838,4.392-0.469,6.581c0.049,0.289,0.106,0.589,0.024,0.87
			c-0.095,0.325-0.127,0.086-0.305,0.374c-0.51,0.825,1.269,5.423,2.51,4.832c0.616,2.186,1.245,4.474,0.699,6.679
			c-0.093,0.376-0.222,0.749-0.441,1.068c-0.249,0.363-0.601,0.64-0.948,0.911c-1.411,1.103-2.788,2.378-4.315,3.317
			c-1.299,0.799-2.849,1.214-4.216,1.766c-2.412,0.974-3.919,2.375-4.485,5.007c-0.652,3.034-0.785,4.54-0.232,7.578
			c0.207,1.137-0.146,12.626-1.411,16.186c-0.205,0.576-0.453,1.139-0.787,1.651c-0.482,0.74-1.192,1.734-1.772,2.4
			c-1.443,1.669-7.379,13.879-9.881,16.419c-0.341,0.346-1.204,0.728-1.639,0.788c-0.332,0.046-0.664,0.093-0.996,0.139
			c-0.504,0.071-0.937,0.157-1.256,0.579c-0.295,0.391-0.421,0.893-0.759,1.254c-0.251,0.268-0.553,0.364-0.899,0.441
			c-0.134,0.03-0.26,0.055-0.278,0.217c-0.033,0.309,0.422,0.569,0.657,0.652c0.003,0.001,0.005,0.013-0.005,0.016
			c-0.148,0.05-0.185,0.077-0.172,0.232c0.303,0.671,0.111,1.37,0.285,2.728c0.032,0.254,0.356,0.648,0.597,0.656
			c-0.045,0.374-0.045,0.749-0.009,1.124c-0.486,0.897-0.915,1.855-0.636,2.022c0.154,0.092,0.505-0.186,0.922-0.618
			c0.239,0.786,0.581,1.555,0.949,2.283c0.561,1.107,1.214,2.231,2.257,2.903c0.755,0.487,1.654,0.694,2.541,0.836
			c1.606,0.256,3.242,0.324,4.864,0.2c2.178-0.166,4.314-0.672,6.439-1.177c9.564-2.272,14.877-4.376,23.547-6.825
			c0.146,0.057,0.288,0.112,0.44,0.171c0.589,0.229,1.221,0.473,1.891,0.729c1.34,0.512,2.83,1.07,4.423,1.637
			c1.593,0.567,3.289,1.143,5.039,1.69c0.875,0.274,1.764,0.54,2.66,0.795c0.448,0.127,0.898,0.252,1.349,0.373
			c0.902,0.242,1.809,0.469,2.715,0.678c0.905,0.209,1.81,0.399,2.706,0.566c0.839,0.156,1.671,0.289,2.493,0.401
			c0.102,0.014,0.203,0.027,0.304,0.04c2.577,0.331,5.036,0.418,7.22,0.138c0.385-0.049,0.779-0.12,1.164-0.218
			c0.385-0.098,0.763-0.225,1.117-0.388c0.354-0.162,0.685-0.36,0.976-0.601c0.292-0.241,0.544-0.525,0.742-0.859
			c0.13-0.219,0.238-0.47,0.337-0.732c0.017-0.046,0.035-0.091,0.052-0.139c0.25-0.714,0.402-1.535,0.498-2.32
			c0.338,0.327,0.613,0.516,0.745,0.438c0.275-0.165-0.138-1.098-0.615-1.984c0.02-0.439-0.009-0.819-0.072-1.161
			c0.242,0.041,0.604-0.389,0.638-0.658c0.174-1.358-0.018-2.057,0.285-2.728c0.013-0.155-0.024-0.182-0.172-0.232
			c-0.01-0.004-0.008-0.015-0.005-0.016C314.351,213.554,314.806,213.294,314.773,212.985z M288.664,179.437
			c-0.189,3.566,0.245,7.132,0.678,10.677c0.136,1.115-0.005,2.018,0.122,3.232c0.11,1.044,0.654,1.942,1.344,2.731
			c0.153,0.175,0.298,0.354,0.433,0.544c2.864,4.046,9.624,10.577,12.937,13.855c-1.957-0.991-3.947-1.926-5.975-2.735
			c-2.281-0.91-5.407-2.739-7.834-5.478c0,0,0,0,0,0c0.038-4.079-3.216-9.682-3.25-13.293c0-0.047-0.001-0.094-0.001-0.141
			C287.096,185.982,288.324,179.589,288.664,179.437z M236.048,213.656c0.529-0.163,1.152-0.838,1.536-1.208
			c0.02-0.019,0.041-0.038,0.061-0.057c0.045-0.04,0.12-0.014,0.121,0.05c0.004,0.33-0.128,0.664-0.182,0.99
			c-0.045,0.271-0.283,1.135-0.387,1.396c-0.161,0.408-0.383,0.87-0.563,0.912C236.635,215.74,236.485,213.852,236.048,213.656z
			 M247.173,208.872c3.555-3.506,8.859-8.787,11.31-12.251c0.135-0.19,0.279-0.368,0.433-0.544c0.69-0.789,1.234-1.687,1.344-2.731
			c0.127-1.214-0.014-2.117,0.122-3.232c0.433-3.545,0.867-7.111,0.678-10.677c0.339,0.152,1.568,6.545,1.547,9.392
			c0,0.047-0.001,0.094-0.001,0.141c-0.034,3.613-3.291,9.22-3.25,13.3c0,0-0.519,0.902-1.281,1.822
			c-0.098-0.019-0.192-0.053-0.294-0.056l0,0l0,0c-0.411-0.014-0.791,0.103-1.156,0.281c-0.609,0.297-1.179,0.762-1.792,1.07
			c-0.924,0.465-1.983,0.576-2.955,0.928c-0.188,0.068-0.373,0.155-0.548,0.255c-0.053,0.03-0.109,0.056-0.159,0.09
			c-0.045,0.03-0.081,0.068-0.123,0.102c-0.059,0.047-0.122,0.091-0.174,0.145c0,0,0,0,0,0c-0.034,0.035-0.057,0.079-0.087,0.117
			c-0.049,0.062-0.103,0.12-0.142,0.191c0,0,0,0,0,0.001c0,0,0,0,0,0c0,0,0,0.001,0,0.001c-0.115,0.211-0.153,0.379-0.159,0.529
			C249.374,208.108,248.266,208.476,247.173,208.872z M313.089,215.74c-0.18-0.042-0.401-0.504-0.563-0.912
			c-0.103-0.262-0.342-1.125-0.387-1.396c-0.054-0.326-0.186-0.66-0.182-0.99c0.001-0.064,0.076-0.09,0.121-0.05
			c0.021,0.018,0.041,0.037,0.061,0.057c0.384,0.37,1.007,1.045,1.536,1.208C313.239,213.852,313.089,215.74,313.089,215.74z"/>
		<path style="fill:#FFD900;" d="M270.455,187.611c0-2.434,1.973-4.407,4.407-4.407s4.407,1.973,4.407,4.407
			c0,2.434-1.973,4.407-4.407,4.407S270.455,190.044,270.455,187.611z"/>
	</g>
	<g>
		<path style="fill:#EFE3D3;" d="M414.911,212.985c-0.018-0.161-0.144-0.187-0.278-0.217c-0.346-0.077-0.648-0.174-0.899-0.441
			c-0.338-0.361-0.464-0.864-0.759-1.254c-0.319-0.422-0.752-0.508-1.256-0.579c-0.332-0.047-0.664-0.094-0.996-0.139
			c-0.435-0.059-1.298-0.442-1.639-0.788c-2.503-2.54-8.438-14.75-9.881-16.419c-0.58-0.666-1.29-1.66-1.772-2.4
			c-0.334-0.512-0.582-1.076-0.787-1.651c-1.266-3.56-1.618-15.049-1.411-16.186c0.553-3.038,0.42-4.545-0.232-7.578
			c-0.566-2.632-2.073-4.032-4.485-5.007c-1.367-0.552-2.916-0.967-4.216-1.766c-1.527-0.939-2.904-2.214-4.315-3.317
			c-0.347-0.271-0.699-0.548-0.948-0.911c-0.219-0.32-0.348-0.692-0.441-1.068c-0.546-2.205,0.082-4.492,0.699-6.679
			c1.241,0.591,3.02-4.007,2.51-4.832c-0.178-0.288-0.21-0.049-0.305-0.374c-0.082-0.281-0.025-0.581,0.024-0.87
			c0.369-2.189,0.207-4.467-0.469-6.581c-0.258-0.809-0.598-1.606-1.137-2.262c-1.478-1.799-4.307-2.894-6.613-2.877v-0.001
			c-0.103,0-0.205,0.001-0.306,0.004c-0.101-0.004-0.203-0.005-0.306-0.004v0.001c-2.305-0.017-5.135,1.078-6.613,2.877
			c-0.539,0.656-0.878,1.453-1.137,2.262c-0.676,2.115-0.838,4.392-0.469,6.581c0.049,0.289,0.106,0.589,0.024,0.87
			c-0.095,0.325-0.127,0.086-0.305,0.374c-0.51,0.825,1.269,5.423,2.51,4.832c0.616,2.186,1.245,4.474,0.699,6.679
			c-0.093,0.376-0.222,0.749-0.441,1.068c-0.249,0.363-0.601,0.64-0.948,0.911c-1.411,1.103-2.788,2.378-4.315,3.317
			c-1.299,0.799-2.849,1.214-4.216,1.766c-2.412,0.974-3.919,2.375-4.485,5.007c-0.652,3.034-0.785,4.54-0.232,7.578
			c0.207,1.137-0.146,12.626-1.411,16.186c-0.205,0.576-0.453,1.139-0.787,1.651c-0.482,0.74-1.192,1.734-1.772,2.4
			c-1.443,1.669-7.379,13.879-9.881,16.419c-0.341,0.346-1.204,0.728-1.639,0.788c-0.332,0.046-0.664,0.093-0.996,0.139
			c-0.504,0.071-0.937,0.157-1.256,0.579c-0.295,0.391-0.421,0.893-0.759,1.254c-0.251,0.268-0.553,0.364-0.899,0.441
			c-0.134,0.03-0.26,0.055-0.278,0.217c-0.034,0.309,0.422,0.569,0.657,0.652c0.003,0.001,0.005,0.013-0.005,0.016
			c-0.148,0.05-0.185,0.077-0.172,0.232c0.303,0.671,0.111,1.37,0.285,2.728c0.032,0.254,0.357,0.648,0.597,0.656
			c-0.045,0.374-0.045,0.749-0.009,1.124c-0.486,0.897-0.915,1.855-0.636,2.022c0.154,0.092,0.505-0.186,0.922-0.618
			c0.239,0.786,0.581,1.555,0.949,2.283c0.56,1.107,1.214,2.231,2.257,2.903c0.755,0.487,1.654,0.694,2.541,0.836
			c1.606,0.256,3.242,0.324,4.864,0.2c2.178-0.166,4.314-0.672,6.439-1.177c9.564-2.272,14.877-4.376,23.547-6.825
			c2.974,1.156,7.19,2.788,11.792,4.227c0.875,0.274,1.764,0.54,2.66,0.795c0.54,0.154,1.084,0.301,1.628,0.445
			c0.81,0.214,1.623,0.419,2.436,0.606c0.906,0.209,1.81,0.399,2.706,0.566c3.586,0.667,7.054,0.959,10.017,0.579
			c0.578-0.074,1.174-0.195,1.734-0.388c0.934-0.322,1.77-0.843,2.265-1.679c0.13-0.219,0.238-0.469,0.336-0.732
			c0.018-0.047,0.035-0.092,0.052-0.14c0.094-0.27,0.177-0.552,0.245-0.846c0,0,0-0.001,0-0.001l0,0
			c0.113-0.483,0.193-0.985,0.253-1.472c0.338,0.327,0.614,0.516,0.745,0.438c0.275-0.165-0.138-1.098-0.615-1.984
			c0.02-0.439-0.009-0.819-0.072-1.161c0.242,0.041,0.604-0.389,0.638-0.658c0.174-1.358-0.017-2.057,0.285-2.728
			c0.013-0.155-0.024-0.182-0.172-0.232c-0.01-0.004-0.008-0.015-0.005-0.016C414.489,213.554,414.944,213.294,414.911,212.985z
			 M388.802,179.437c-0.189,3.566,0.245,7.132,0.678,10.677c0.136,1.115-0.005,2.018,0.122,3.232
			c0.11,1.044,0.654,1.942,1.344,2.731c0.153,0.175,0.298,0.354,0.433,0.544c2.864,4.046,9.624,10.577,12.937,13.855
			c-1.957-0.991-3.947-1.926-5.975-2.735c-2.281-0.91-5.407-2.739-7.834-5.478c0,0,0,0,0,0c0.038-4.079-3.216-9.682-3.25-13.293
			c0-0.047-0.001-0.094-0.001-0.141C387.234,185.982,388.462,179.589,388.802,179.437z M336.186,213.656
			c0.529-0.163,1.152-0.838,1.536-1.208c0.02-0.019,0.041-0.038,0.061-0.057c0.045-0.04,0.12-0.014,0.121,0.05
			c0.004,0.33-0.128,0.664-0.182,0.99c-0.045,0.271-0.283,1.135-0.387,1.396c-0.161,0.408-0.383,0.87-0.563,0.912
			C336.773,215.74,336.623,213.852,336.186,213.656z M347.311,208.872c3.555-3.506,8.859-8.787,11.31-12.251
			c0.135-0.19,0.279-0.368,0.433-0.544c0.69-0.789,1.234-1.687,1.344-2.731c0.127-1.214-0.014-2.117,0.122-3.232
			c0.433-3.545,0.867-7.111,0.678-10.677c0.339,0.152,1.568,6.545,1.547,9.392c0,0.047-0.001,0.094-0.001,0.141
			c-0.034,3.613-3.291,9.22-3.25,13.3c0,0-0.519,0.902-1.281,1.822c-0.098-0.019-0.192-0.053-0.294-0.056
			c-0.274-0.01-0.534,0.039-0.785,0.126c-0.754,0.259-1.427,0.855-2.162,1.225c-0.924,0.465-1.983,0.576-2.955,0.928
			c-0.238,0.087-0.477,0.195-0.689,0.335c-0.006,0.004-0.012,0.006-0.018,0.01c-0.061,0.041-0.113,0.092-0.169,0.14
			c-0.043,0.036-0.09,0.067-0.129,0.107c-0.042,0.043-0.07,0.096-0.107,0.144c-0.041,0.055-0.089,0.104-0.122,0.165c0,0,0,0,0,0
			c0,0,0,0,0,0c0,0.001,0,0.001-0.001,0.002c-0.114,0.211-0.152,0.379-0.158,0.528C349.512,208.108,348.404,208.476,347.311,208.872
			z M413.227,215.74c-0.18-0.042-0.401-0.504-0.563-0.912c-0.103-0.262-0.342-1.125-0.387-1.396c-0.054-0.326-0.186-0.66-0.182-0.99
			c0.001-0.064,0.076-0.09,0.121-0.05c0.021,0.018,0.041,0.037,0.061,0.057c0.384,0.37,1.007,1.045,1.536,1.208
			C413.377,213.852,413.227,215.74,413.227,215.74z"/>
		<path style="fill:#9ADD38;" d="M370.593,171.112c0-2.434,1.973-4.407,4.407-4.407c2.434,0,4.407,1.973,4.407,4.407
			c0,2.434-1.973,4.407-4.407,4.407C372.566,175.519,370.593,173.546,370.593,171.112z"/>
	</g>
	<g>
		<path style="fill:#EFE3D3;" d="M515.049,212.985c-0.018-0.161-0.144-0.187-0.278-0.217c-0.346-0.077-0.648-0.174-0.899-0.441
			c-0.338-0.361-0.464-0.864-0.759-1.254c-0.319-0.422-0.752-0.508-1.255-0.579c-0.332-0.047-0.664-0.094-0.996-0.139
			c-0.435-0.059-1.298-0.442-1.639-0.788c-2.503-2.54-8.438-14.75-9.881-16.419c-0.58-0.666-1.29-1.66-1.772-2.4
			c-0.334-0.512-0.582-1.076-0.787-1.651c-1.266-3.56-1.618-15.049-1.411-16.186c0.553-3.038,0.42-4.545-0.232-7.578
			c-0.566-2.632-2.073-4.032-4.485-5.007c-1.367-0.552-2.916-0.967-4.216-1.766c-1.527-0.939-2.904-2.214-4.315-3.317
			c-0.347-0.271-0.699-0.548-0.948-0.911c-0.219-0.32-0.348-0.692-0.441-1.068c-0.546-2.205,0.082-4.492,0.699-6.679
			c1.241,0.591,3.02-4.007,2.51-4.832c-0.178-0.288-0.21-0.049-0.305-0.374c-0.082-0.281-0.025-0.581,0.024-0.87
			c0.369-2.189,0.207-4.467-0.469-6.581c-0.258-0.809-0.598-1.606-1.137-2.262c-1.478-1.799-4.307-2.894-6.613-2.877v-0.001
			c-0.103,0-0.205,0.001-0.306,0.004c-0.101-0.004-0.203-0.005-0.306-0.004v0.001c-2.305-0.017-5.135,1.078-6.613,2.877
			c-0.539,0.656-0.878,1.453-1.137,2.262c-0.676,2.115-0.838,4.392-0.469,6.581c0.049,0.289,0.106,0.589,0.024,0.87
			c-0.095,0.325-0.127,0.086-0.305,0.374c-0.51,0.825,1.269,5.423,2.51,4.832c0.616,2.186,1.245,4.474,0.699,6.679
			c-0.093,0.376-0.222,0.749-0.441,1.068c-0.249,0.363-0.601,0.64-0.948,0.911c-1.411,1.103-2.788,2.378-4.315,3.317
			c-1.299,0.799-2.849,1.214-4.216,1.766c-2.412,0.974-3.919,2.375-4.485,5.007c-0.652,3.034-0.785,4.54-0.232,7.578
			c0.207,1.137-0.146,12.626-1.411,16.186c-0.205,0.576-0.453,1.139-0.787,1.651c-0.482,0.74-1.192,1.734-1.772,2.4
			c-1.443,1.669-7.379,13.879-9.881,16.419c-0.341,0.346-1.204,0.728-1.639,0.788c-0.332,0.046-0.664,0.093-0.996,0.139
			c-0.504,0.071-0.937,0.157-1.256,0.579c-0.295,0.391-0.421,0.893-0.759,1.254c-0.251,0.268-0.553,0.364-0.899,0.441
			c-0.134,0.03-0.26,0.055-0.278,0.217c-0.034,0.309,0.422,0.569,0.657,0.652c0.003,0.001,0.005,0.013-0.005,0.016
			c-0.148,0.05-0.185,0.077-0.172,0.232c0.303,0.671,0.111,1.37,0.285,2.728c0.032,0.254,0.357,0.648,0.597,0.656
			c-0.045,0.374-0.045,0.749-0.009,1.124c-0.486,0.897-0.915,1.855-0.636,2.022c0.153,0.092,0.505-0.186,0.922-0.618
			c0.239,0.786,0.581,1.555,0.949,2.283c0.56,1.107,1.214,2.231,2.257,2.903c0.755,0.487,1.654,0.694,2.541,0.836
			c1.606,0.256,3.242,0.324,4.864,0.2c2.178-0.166,4.314-0.672,6.439-1.177c9.564-2.272,14.877-4.376,23.547-6.825
			c2.691,1.046,6.398,2.482,10.49,3.812c0.531,0.173,1.069,0.342,1.611,0.51c0.775,0.24,1.559,0.475,2.35,0.7
			c0.448,0.127,0.898,0.252,1.349,0.373c0.902,0.242,1.809,0.469,2.715,0.678c0.984,0.227,1.965,0.429,2.938,0.606
			c3.504,0.636,6.886,0.911,9.785,0.539c0.964-0.124,1.975-0.378,2.792-0.877c0.163-0.1,0.319-0.21,0.465-0.33
			c0.292-0.241,0.544-0.525,0.742-0.859c0.13-0.219,0.238-0.47,0.337-0.732c0.017-0.047,0.035-0.092,0.052-0.14
			c0.094-0.27,0.177-0.552,0.245-0.846c0,0,0-0.001,0-0.001l0,0c0.113-0.483,0.193-0.985,0.253-1.472
			c0.338,0.327,0.613,0.516,0.745,0.437c0.275-0.165-0.138-1.098-0.615-1.984c0.019-0.439-0.008-0.819-0.072-1.161
			c0.242,0.041,0.604-0.389,0.638-0.658c0.174-1.358-0.018-2.057,0.285-2.728c0.013-0.155-0.024-0.182-0.172-0.232
			c-0.01-0.004-0.008-0.015-0.005-0.016C514.627,213.554,515.083,213.294,515.049,212.985z M488.94,179.437
			c-0.189,3.566,0.245,7.132,0.678,10.677c0.136,1.115-0.005,2.018,0.122,3.232c0.11,1.044,0.654,1.942,1.344,2.731
			c0.153,0.175,0.298,0.354,0.433,0.544c2.864,4.046,9.624,10.577,12.937,13.855c-1.957-0.991-3.948-1.926-5.975-2.735
			c-2.281-0.91-5.407-2.739-7.834-5.478h0c0.038-4.079-3.216-9.682-3.25-13.293c0-0.047-0.001-0.094-0.001-0.141
			C487.372,185.982,488.6,179.589,488.94,179.437z M436.324,213.656c0.529-0.163,1.152-0.838,1.536-1.208
			c0.02-0.019,0.041-0.038,0.061-0.057c0.045-0.04,0.12-0.014,0.121,0.05c0.004,0.33-0.128,0.664-0.182,0.99
			c-0.045,0.271-0.283,1.135-0.387,1.396c-0.161,0.408-0.383,0.87-0.563,0.912C436.911,215.74,436.761,213.852,436.324,213.656z
			 M447.449,208.872c3.555-3.506,8.859-8.787,11.31-12.251c0.135-0.19,0.279-0.368,0.433-0.544c0.69-0.789,1.234-1.687,1.344-2.731
			c0.127-1.214-0.014-2.117,0.122-3.232c0.433-3.545,0.867-7.111,0.678-10.677c0.339,0.152,1.568,6.545,1.547,9.392
			c0,0.047-0.001,0.094-0.001,0.141c-0.034,3.613-3.291,9.22-3.25,13.3c0,0-0.519,0.902-1.281,1.822
			c-0.098-0.019-0.192-0.053-0.294-0.056c-0.274-0.01-0.534,0.039-0.785,0.126c-0.754,0.259-1.427,0.855-2.162,1.225
			c-0.693,0.348-1.462,0.498-2.213,0.7c-0.25,0.067-0.499,0.14-0.742,0.228c-0.238,0.087-0.477,0.195-0.689,0.335
			c-0.006,0.004-0.012,0.006-0.018,0.01l0,0c-0.049,0.033-0.089,0.074-0.134,0.111c-0.056,0.045-0.115,0.085-0.164,0.136
			c-0.021,0.022-0.035,0.051-0.055,0.074c-0.063,0.074-0.126,0.147-0.174,0.234c0,0,0,0,0,0.001c0,0,0,0,0,0c0,0,0,0.001,0,0.001
			c-0.115,0.211-0.152,0.379-0.159,0.529C449.65,208.108,448.542,208.476,447.449,208.872z M513.365,215.74
			c-0.18-0.042-0.401-0.504-0.563-0.912c-0.103-0.262-0.342-1.125-0.387-1.396c-0.054-0.326-0.186-0.66-0.182-0.99
			c0.001-0.064,0.076-0.09,0.121-0.05c0.021,0.018,0.041,0.037,0.061,0.057c0.384,0.37,1.007,1.045,1.536,1.208
			C513.515,213.852,513.365,215.74,513.365,215.74z"/>
		<path style="fill:#17D1FF;" d="M470.731,154.33c0-2.434,1.973-4.407,4.407-4.407c2.434,0,4.407,1.973,4.407,4.407
			c0,2.434-1.973,4.407-4.407,4.407C472.704,158.737,470.731,156.764,470.731,154.33z"/>
	</g>
	<g>
		<path style="fill:#EFE3D3;" d="M615.187,212.985c-0.018-0.161-0.143-0.187-0.278-0.217c-0.346-0.077-0.648-0.174-0.899-0.441
			c-0.338-0.361-0.464-0.864-0.759-1.254c-0.319-0.422-0.752-0.508-1.255-0.579c-0.332-0.047-0.664-0.094-0.996-0.139
			c-0.435-0.059-1.298-0.442-1.638-0.788c-2.503-2.54-8.438-14.75-9.881-16.419c-0.58-0.666-1.29-1.66-1.772-2.4
			c-0.334-0.512-0.582-1.076-0.787-1.651c-1.266-3.56-1.618-15.049-1.411-16.186c0.553-3.038,0.42-4.545-0.232-7.578
			c-0.565-2.632-2.072-4.032-4.485-5.007c-1.367-0.552-2.916-0.967-4.216-1.766c-1.527-0.939-2.904-2.214-4.316-3.317
			c-0.347-0.271-0.699-0.548-0.948-0.911c-0.219-0.32-0.348-0.692-0.441-1.068c-0.546-2.205,0.082-4.492,0.699-6.679
			c1.241,0.591,3.02-4.007,2.51-4.832c-0.178-0.288-0.21-0.049-0.305-0.374c-0.082-0.281-0.025-0.581,0.024-0.87
			c0.37-2.189,0.207-4.467-0.469-6.581c-0.258-0.809-0.598-1.606-1.137-2.262c-1.478-1.799-4.307-2.894-6.613-2.877v-0.001
			c-0.103,0-0.205,0.001-0.306,0.004c-0.101-0.004-0.203-0.005-0.306-0.004v0.001c-2.305-0.017-5.135,1.078-6.613,2.877
			c-0.539,0.656-0.878,1.453-1.137,2.262c-0.676,2.115-0.838,4.392-0.469,6.581c0.049,0.289,0.106,0.589,0.024,0.87
			c-0.095,0.325-0.127,0.086-0.305,0.374c-0.51,0.825,1.269,5.423,2.51,4.832c0.616,2.186,1.245,4.474,0.698,6.679
			c-0.093,0.376-0.222,0.749-0.441,1.068c-0.249,0.363-0.601,0.64-0.948,0.911c-1.411,1.103-2.788,2.378-4.315,3.317
			c-1.299,0.799-2.848,1.214-4.216,1.766c-2.412,0.974-3.919,2.375-4.485,5.007c-0.652,3.034-0.784,4.54-0.232,7.578
			c0.207,1.137-0.146,12.626-1.411,16.186c-0.205,0.576-0.453,1.139-0.787,1.651c-0.482,0.74-1.192,1.734-1.772,2.4
			c-1.443,1.669-7.379,13.879-9.881,16.419c-0.341,0.346-1.204,0.728-1.638,0.788c-0.332,0.046-0.664,0.093-0.996,0.139
			c-0.504,0.071-0.937,0.157-1.256,0.579c-0.295,0.391-0.421,0.893-0.759,1.254c-0.251,0.268-0.553,0.364-0.899,0.441
			c-0.134,0.03-0.26,0.055-0.278,0.217c-0.034,0.309,0.422,0.569,0.657,0.652c0.003,0.001,0.005,0.013-0.005,0.016
			c-0.148,0.05-0.185,0.077-0.172,0.232c0.303,0.671,0.111,1.37,0.285,2.728c0.032,0.254,0.357,0.648,0.597,0.656
			c-0.045,0.374-0.045,0.749-0.009,1.124c-0.486,0.897-0.915,1.855-0.636,2.022c0.154,0.092,0.505-0.186,0.922-0.618
			c0.239,0.786,0.581,1.555,0.949,2.283c0.56,1.107,1.214,2.231,2.257,2.903c0.755,0.487,1.654,0.694,2.541,0.836
			c1.606,0.256,3.242,0.324,4.864,0.2c2.178-0.166,4.314-0.672,6.439-1.177c9.564-2.272,14.877-4.376,23.547-6.825
			c2.974,1.156,7.19,2.788,11.792,4.227c0.875,0.274,1.764,0.54,2.66,0.795c0.448,0.127,0.898,0.252,1.349,0.373
			c0.902,0.242,1.809,0.469,2.715,0.678c0.906,0.209,1.81,0.399,2.706,0.566c3.586,0.667,7.054,0.959,10.017,0.579
			c0.386-0.049,0.779-0.12,1.164-0.218c1.156-0.296,2.241-0.845,2.835-1.848c0.13-0.219,0.238-0.47,0.337-0.732
			c0.017-0.047,0.035-0.092,0.052-0.14c0.094-0.27,0.177-0.552,0.245-0.846c0,0,0-0.001,0-0.001l0,0
			c0.113-0.483,0.193-0.985,0.253-1.472c0.338,0.327,0.613,0.516,0.745,0.438c0.275-0.165-0.138-1.098-0.615-1.984
			c0.019-0.439-0.009-0.82-0.072-1.161c0.243,0.041,0.604-0.389,0.638-0.658c0.174-1.358-0.018-2.057,0.285-2.728
			c0.013-0.155-0.024-0.182-0.172-0.232c-0.01-0.004-0.008-0.015-0.005-0.016C614.765,213.554,615.221,213.294,615.187,212.985z
			 M589.078,179.437c-0.189,3.566,0.245,7.132,0.678,10.677c0.136,1.115-0.005,2.018,0.122,3.232
			c0.11,1.044,0.654,1.942,1.344,2.731c0.153,0.175,0.298,0.354,0.433,0.544c2.864,4.046,9.624,10.577,12.937,13.855
			c-1.957-0.991-3.948-1.926-5.975-2.735c-2.281-0.91-5.407-2.739-7.834-5.478h0c0.038-4.079-3.216-9.682-3.25-13.293
			c0-0.047-0.001-0.094-0.001-0.141C587.51,185.982,588.738,179.589,589.078,179.437z M536.462,213.656
			c0.529-0.163,1.152-0.838,1.536-1.208c0.02-0.019,0.041-0.038,0.061-0.057c0.045-0.04,0.12-0.014,0.121,0.05
			c0.004,0.33-0.128,0.664-0.182,0.99c-0.045,0.271-0.283,1.135-0.387,1.396c-0.161,0.408-0.383,0.87-0.563,0.912
			C537.049,215.74,536.899,213.852,536.462,213.656z M547.587,208.872c3.555-3.506,8.859-8.787,11.31-12.251
			c0.134-0.19,0.279-0.368,0.433-0.544c0.69-0.789,1.234-1.687,1.344-2.731c0.127-1.214-0.014-2.117,0.122-3.232
			c0.433-3.545,0.867-7.111,0.678-10.677c0.339,0.152,1.568,6.545,1.547,9.392c0,0.047-0.001,0.094-0.001,0.141
			c-0.034,3.613-3.291,9.22-3.25,13.3c0,0-0.519,0.902-1.281,1.822c-0.098-0.019-0.192-0.053-0.294-0.056
			c-0.274-0.01-0.534,0.039-0.785,0.126c-0.502,0.173-0.969,0.495-1.443,0.801c-0.237,0.153-0.475,0.301-0.72,0.424
			c-0.693,0.348-1.462,0.498-2.213,0.7c-0.25,0.067-0.499,0.14-0.742,0.228c-0.238,0.087-0.477,0.195-0.689,0.335
			c-0.006,0.004-0.012,0.006-0.018,0.01c-0.049,0.033-0.089,0.074-0.134,0.111c-0.055,0.045-0.115,0.085-0.164,0.136
			c-0.021,0.022-0.035,0.051-0.055,0.074c-0.063,0.074-0.127,0.147-0.174,0.234c0,0,0,0,0,0.001c0,0,0,0,0,0c0,0,0,0.001,0,0.001
			c-0.077,0.142-0.127,0.27-0.153,0.383c-0.013,0.055-0.003,0.097-0.005,0.146C549.788,208.108,548.68,208.476,547.587,208.872z
			 M613.503,215.74c-0.18-0.042-0.401-0.504-0.563-0.912c-0.103-0.262-0.342-1.125-0.387-1.396c-0.054-0.326-0.186-0.66-0.182-0.99
			c0.001-0.064,0.076-0.09,0.121-0.05c0.021,0.018,0.041,0.037,0.061,0.057c0.384,0.37,1.007,1.045,1.536,1.208
			C613.653,213.852,613.503,215.74,613.503,215.74z"/>
		<path style="fill:#8F20F7;" d="M570.869,139.112c0-2.434,1.973-4.407,4.407-4.407c2.434,0,4.407,1.973,4.407,4.407
			c0,2.434-1.973,4.407-4.407,4.407C572.842,143.519,570.869,141.546,570.869,139.112z"/>
	</g>
	<g>
		<path style="fill:#EFE3D3;" d="M715.325,212.985c-0.018-0.161-0.143-0.187-0.278-0.217c-0.346-0.077-0.648-0.174-0.899-0.441
			c-0.338-0.361-0.464-0.864-0.759-1.254c-0.319-0.422-0.752-0.508-1.255-0.579c-0.332-0.047-0.664-0.094-0.996-0.139
			c-0.435-0.059-1.298-0.442-1.638-0.788c-2.503-2.54-8.438-14.75-9.881-16.419c-0.58-0.666-1.289-1.66-1.772-2.4
			c-0.334-0.512-0.582-1.076-0.787-1.651c-1.266-3.56-1.618-15.049-1.411-16.186c0.553-3.038,0.42-4.545-0.232-7.578
			c-0.565-2.632-2.072-4.032-4.485-5.007c-1.367-0.552-2.916-0.967-4.216-1.766c-1.527-0.939-2.904-2.214-4.315-3.317
			c-0.347-0.271-0.699-0.548-0.948-0.911c-0.219-0.32-0.348-0.692-0.441-1.068c-0.546-2.205,0.082-4.492,0.699-6.679
			c1.241,0.591,3.02-4.007,2.51-4.832c-0.178-0.288-0.21-0.049-0.305-0.374c-0.082-0.281-0.025-0.581,0.024-0.87
			c0.37-2.189,0.207-4.467-0.469-6.581c-0.258-0.809-0.598-1.606-1.137-2.262c-1.478-1.799-4.307-2.894-6.613-2.877v-0.001
			c-0.103,0-0.205,0.001-0.306,0.004c-0.101-0.004-0.203-0.005-0.306-0.004v0.001c-2.305-0.017-5.135,1.078-6.613,2.877
			c-0.539,0.656-0.878,1.453-1.137,2.262c-0.676,2.115-0.838,4.392-0.469,6.581c0.049,0.289,0.106,0.589,0.024,0.87
			c-0.095,0.325-0.127,0.086-0.305,0.374c-0.51,0.825,1.269,5.423,2.51,4.832c0.616,2.186,1.245,4.474,0.698,6.679
			c-0.093,0.376-0.222,0.749-0.441,1.068c-0.249,0.363-0.601,0.64-0.948,0.911c-1.411,1.103-2.788,2.378-4.315,3.317
			c-1.299,0.799-2.848,1.214-4.216,1.766c-2.412,0.974-3.919,2.375-4.485,5.007c-0.652,3.034-0.784,4.54-0.232,7.578
			c0.207,1.137-0.146,12.626-1.411,16.186c-0.205,0.576-0.453,1.139-0.787,1.651c-0.482,0.74-1.192,1.734-1.772,2.4
			c-1.443,1.669-7.379,13.879-9.881,16.419c-0.341,0.346-1.204,0.728-1.638,0.788c-0.332,0.046-0.664,0.093-0.996,0.139
			c-0.504,0.071-0.937,0.157-1.256,0.579c-0.295,0.391-0.421,0.893-0.759,1.254c-0.251,0.268-0.553,0.364-0.899,0.441
			c-0.134,0.03-0.26,0.055-0.278,0.217c-0.034,0.309,0.422,0.569,0.657,0.652c0.003,0.001,0.005,0.013-0.005,0.016
			c-0.148,0.05-0.185,0.077-0.172,0.232c0.303,0.671,0.111,1.37,0.285,2.728c0.032,0.254,0.356,0.648,0.597,0.656
			c-0.045,0.374-0.045,0.749-0.009,1.124c-0.486,0.897-0.915,1.855-0.636,2.022c0.154,0.092,0.505-0.186,0.922-0.618
			c0.239,0.786,0.581,1.555,0.949,2.283c0.56,1.107,1.214,2.231,2.256,2.903c0.755,0.487,1.654,0.694,2.541,0.836
			c1.606,0.256,3.242,0.324,4.864,0.2c2.178-0.166,4.314-0.672,6.439-1.177c9.564-2.272,14.877-4.376,23.547-6.825
			c2.974,1.156,7.19,2.788,11.792,4.227c0.875,0.274,1.764,0.54,2.66,0.795c0.448,0.127,0.898,0.252,1.349,0.373
			c0.902,0.242,1.809,0.469,2.715,0.678c0.906,0.209,1.81,0.399,2.706,0.566c3.586,0.667,7.054,0.959,10.017,0.579
			c0.386-0.049,0.779-0.12,1.164-0.218c1.156-0.296,2.241-0.845,2.835-1.848c0.13-0.219,0.238-0.47,0.336-0.732
			c0.017-0.047,0.035-0.092,0.052-0.14c0.25-0.714,0.402-1.535,0.498-2.319c0.338,0.327,0.613,0.516,0.745,0.438
			c0.275-0.165-0.138-1.098-0.615-1.984c0.019-0.439-0.009-0.82-0.072-1.161c0.243,0.041,0.604-0.389,0.638-0.658
			c0.174-1.358-0.018-2.057,0.285-2.728c0.013-0.155-0.024-0.182-0.172-0.232c-0.01-0.004-0.008-0.015-0.005-0.016
			C714.903,213.554,715.359,213.294,715.325,212.985z M689.216,179.437c-0.189,3.566,0.245,7.132,0.678,10.677
			c0.136,1.115-0.005,2.018,0.122,3.232c0.11,1.044,0.654,1.942,1.344,2.731c0.153,0.175,0.298,0.354,0.433,0.544
			c2.864,4.046,9.624,10.577,12.937,13.855c-1.957-0.991-3.948-1.926-5.975-2.735c-2.281-0.91-5.407-2.739-7.834-5.478h0
			c0.038-4.079-3.216-9.682-3.25-13.293c0-0.047-0.001-0.094-0.001-0.141C687.648,185.982,688.876,179.589,689.216,179.437z
			 M636.6,213.656c0.529-0.163,1.152-0.838,1.536-1.208c0.02-0.019,0.041-0.038,0.061-0.057c0.045-0.04,0.12-0.014,0.121,0.05
			c0.004,0.33-0.128,0.664-0.182,0.99c-0.045,0.271-0.283,1.135-0.387,1.396c-0.161,0.408-0.383,0.87-0.563,0.912
			C637.187,215.74,637.037,213.852,636.6,213.656z M647.725,208.872c3.555-3.506,8.859-8.787,11.31-12.251
			c0.134-0.19,0.279-0.368,0.433-0.544c0.69-0.789,1.234-1.687,1.344-2.731c0.127-1.214-0.014-2.117,0.122-3.232
			c0.433-3.545,0.867-7.111,0.678-10.677c0.339,0.152,1.568,6.545,1.547,9.392c0,0.047-0.001,0.094-0.001,0.141
			c-0.034,3.613-3.291,9.22-3.25,13.3c0,0-0.519,0.902-1.281,1.822c-0.098-0.019-0.192-0.053-0.294-0.056
			c-1.096-0.038-1.967,0.858-2.948,1.351c-0.924,0.465-1.983,0.576-2.955,0.928c-0.188,0.068-0.372,0.155-0.548,0.255
			c-0.053,0.03-0.109,0.056-0.159,0.09c-0.045,0.03-0.081,0.068-0.123,0.102c-0.059,0.047-0.122,0.091-0.175,0.145
			c-0.034,0.035-0.057,0.079-0.087,0.117c-0.049,0.062-0.103,0.12-0.142,0.191c0,0,0,0,0,0.001c0,0,0,0,0,0c0,0,0,0.001,0,0.001
			c-0.115,0.211-0.152,0.379-0.159,0.529C649.926,208.108,648.818,208.476,647.725,208.872z M713.641,215.74
			c-0.18-0.042-0.401-0.504-0.563-0.912c-0.103-0.262-0.342-1.125-0.387-1.396c-0.054-0.326-0.186-0.66-0.182-0.99
			c0.001-0.064,0.076-0.09,0.121-0.05c0.021,0.018,0.041,0.037,0.061,0.057c0.384,0.37,1.007,1.045,1.536,1.208
			C713.791,213.852,713.641,215.74,713.641,215.74z"/>
		<path style="fill:#FF54FB;" d="M671.007,127.779c0-2.434,1.973-4.407,4.407-4.407c2.434,0,4.407,1.973,4.407,4.407
			s-1.973,4.407-4.407,4.407C672.98,132.186,671.007,130.213,671.007,127.779z"/>
	</g>
</g>
</svg>
