<svg width="81" height="51" viewBox="0 0 81 51" fill="none" xmlns="http://www.w3.org/2000/svg">
<path d="M40.8289 50.93C34.1579 50.93 27.4862 48.4927 22.4077 43.6174C17.4873 38.8946 14.7773 32.6152 14.7773 25.9361C14.7773 19.2569 17.4873 12.9775 22.4077 8.25469C27.3281 3.53187 33.8703 0.929993 40.8289 0.929993C47.7875 0.929993 54.3296 3.53111 59.2501 8.25469C64.1705 12.9775 66.8804 19.2569 66.8804 25.9361C66.8804 32.6152 64.1705 38.8946 59.2501 43.6174C54.1716 48.4927 47.4998 50.93 40.8289 50.93ZM40.8289 2.77483C34.3832 2.77483 28.3239 5.18402 23.7663 9.55866C19.2086 13.9333 16.6985 19.7492 16.6985 25.9361C16.6985 32.1222 19.2086 37.9388 23.7663 42.3127C33.1748 51.3427 48.483 51.3427 57.8915 42.3127C62.4492 37.9381 64.9592 32.1222 64.9592 25.9361C64.9592 19.7492 62.4492 13.9333 57.8915 9.55866C53.3339 5.18478 47.2738 2.77483 40.8289 2.77483Z" fill="#00477A"/>
<path d="M40.8288 50.6895C40.4929 50.6895 40.1824 50.5173 40.014 50.2382L18.4554 14.3968C18.287 14.1176 18.287 13.7732 18.4554 13.4933C18.6237 13.2142 18.9343 13.042 19.2702 13.042H62.3883C62.7242 13.042 63.0356 13.2142 63.2031 13.4933C63.3714 13.7725 63.3714 14.1169 63.2031 14.3968L41.6444 50.2382C41.4753 50.5173 41.1647 50.6895 40.8288 50.6895ZM20.8998 14.8481L40.8288 47.9799L60.7579 14.8481H20.8998Z" fill="#00477A"/>
<path d="M75.1256 13.598L75.1192 13.5722C73.5094 7.68958 68.2365 3.58044 62.2958 3.58044H50.1733C51.4821 4.08413 52.7537 4.70161 53.9771 5.42528H62.2966C67.36 5.42528 71.8656 8.96246 73.2573 14.0282C73.379 14.5288 75.2915 22.251 78.2646 25.9786C75.2615 29.7213 73.3893 37.3252 73.266 37.8364C71.8687 42.8923 67.3656 46.4226 62.31 46.4226H54.0166C52.8019 47.144 51.5398 47.763 50.2397 48.2675H62.3084C68.2404 48.2675 73.5117 44.1659 75.1271 38.2939L75.1343 38.265C75.1548 38.1801 77.2104 29.7213 80.2214 26.6074L80.8284 25.9801L80.2214 25.3528C77.2515 22.2806 75.1469 13.6853 75.1256 13.598Z" fill="#00477A"/>
<path d="M19.3327 46.4226C14.2938 46.4226 9.79856 42.912 8.38866 37.8797C8.26379 37.2007 6.91948 30.2872 3.40817 26.1128C6.85468 21.968 8.29144 14.6964 8.41789 14.0258C9.81119 8.96091 14.3135 5.426 19.3778 5.426H27.6815C28.9049 4.70233 30.1757 4.08486 31.4852 3.58118H19.3778C13.4268 3.58118 8.15156 7.69866 6.54883 13.5942L6.53224 13.6663C6.51722 13.7475 4.99665 21.8034 1.43555 25.487L0.828613 26.1143L1.43555 26.7417C5.08437 30.5155 6.48796 38.158 6.50219 38.2347L6.52037 38.3151C8.14207 44.1742 13.411 48.2667 19.3327 48.2667H31.418C30.118 47.7622 28.8559 47.144 27.6412 46.4218L19.3327 46.4226Z" fill="#00477A"/>
</svg>
