<svg width="81" height="81" viewBox="0 0 81 81" fill="none" xmlns="http://www.w3.org/2000/svg">
<path d="M40.817 72.8805C23.0075 72.8805 8.51953 58.5123 8.51953 40.8522C8.51953 23.1921 23.0085 8.82379 40.817 8.82379C58.6265 8.82379 73.1145 23.1921 73.1145 40.8522C73.1145 58.5123 58.6265 72.8805 40.817 72.8805ZM40.817 11.1858C24.3214 11.1858 10.9024 24.494 10.9024 40.8522C10.9024 57.2103 24.3224 70.5185 40.817 70.5185C57.3126 70.5185 70.7326 57.2103 70.7326 40.8522C70.7326 24.494 57.3126 11.1858 40.817 11.1858Z" fill="#FFD000"/>
<path d="M40.9805 72.4365C40.5631 72.4365 40.1781 72.216 39.9704 71.8584L13.2429 25.9505C13.0343 25.5929 13.0343 25.1518 13.2429 24.7933C13.4516 24.4357 13.8367 24.2152 14.2531 24.2152H67.7089C68.1253 24.2152 68.5104 24.4357 68.7191 24.7933C68.9278 25.1508 68.9278 25.592 68.7191 25.9505L41.9917 71.8584C41.782 72.216 41.3969 72.4365 40.9805 72.4365ZM16.2734 26.5286L40.9805 68.9659L65.6876 26.5286H16.2734Z" fill="#FFD000"/>
<path d="M39.5194 71.8273C39.5625 71.7777 39.6057 71.7262 39.6488 71.6757C39.5674 71.6728 39.4861 71.6699 39.4058 71.667C39.443 71.7204 39.4812 71.7738 39.5194 71.8273Z" fill="#FFD000"/>
<path d="M42.1764 9.80511C42.1117 9.87896 42.0481 9.95378 41.9844 10.0286C42.1049 10.0325 42.2254 10.0364 42.3449 10.0422C42.2891 9.96252 42.2332 9.88284 42.1764 9.80511Z" fill="#FFD000"/>
<path d="M20.2394 17.7209C20.0689 15.0557 20.5755 12.7491 21.764 11.3626C22.2539 10.938 25.0149 8.40698 26.0917 4.56326C29.5493 6.56091 33.4988 6.50455 34.1356 6.47735C35.9051 6.64447 37.8157 7.87453 39.5127 9.80416C39.9379 9.22216 40.3837 8.67999 40.8442 8.17864C38.8121 5.96918 36.4842 4.58754 34.2424 4.40682L34.1709 4.40099L34.0994 4.40488C34.0524 4.40779 29.3279 4.63808 26.0397 2.02346L24.5955 0.875L24.3516 2.69484C23.7853 6.91554 20.3864 9.8061 20.3541 9.83331L20.2394 9.94407C18.6571 11.7338 17.9614 14.5826 18.1594 17.8316C18.7208 17.8763 19.293 17.9444 19.874 18.0425C19.9945 17.9346 20.117 17.8278 20.2394 17.7209Z" fill="#FFD000"/>
<path d="M61.496 63.8931C61.6802 66.6136 61.1609 68.9649 59.9313 70.3553C59.6286 70.6672 56.6677 73.7754 55.5537 77.2353C52.3341 75.4757 48.0936 75.2668 47.6449 75.2493C45.8431 75.0861 43.8923 73.8162 42.1689 71.8263C41.7456 72.4113 41.3028 72.9593 40.8442 73.4645C42.8851 75.7109 45.2317 77.1236 47.4911 77.316L47.5459 77.3189C47.5979 77.3208 52.7946 77.5132 55.5772 79.7266L57.0214 80.875L57.2653 79.0552C57.7278 75.6088 61.4098 71.8195 61.446 71.7816L61.4803 71.7457C63.0725 69.9628 63.775 67.1189 63.582 63.8707C62.9922 63.8231 62.3906 63.7483 61.7782 63.6414C61.6861 63.727 61.5911 63.8095 61.496 63.8931Z" fill="#FFD000"/>
<path d="M77.4843 48.2646L77.4823 48.2151C77.3216 45.6413 75.5453 42.9178 72.7235 40.6442C72.4639 40.8599 72.1944 41.0708 71.9172 41.2787C71.9113 41.7334 71.8956 42.1852 71.8691 42.6351C73.9551 44.4335 75.27 46.4691 75.3944 48.321C75.4032 48.7543 75.5286 53.0275 77.2119 56.2542C73.6817 57.2705 70.5367 60.0999 70.2075 60.4011C68.775 61.5865 66.3883 62.046 63.6458 61.8002C63.5606 61.8915 63.4764 61.9829 63.3901 62.0732C63.4842 62.6834 63.5479 63.2829 63.5822 63.8707C64.0623 63.9096 64.5365 63.9358 64.9979 63.9358C67.6786 63.9358 70.0066 63.279 71.5732 61.9693L71.6144 61.9333C71.6526 61.8983 75.4747 58.385 79.0068 57.9973L80.8469 57.7952L79.7211 56.3378C77.5901 53.5774 77.4853 48.3161 77.4843 48.2646Z" fill="#FFD000"/>
<path d="M9.76953 38.975C7.75706 37.2164 6.47944 35.2362 6.33051 33.4271C6.37264 32.7829 6.51765 29.0567 4.53555 25.5861C8.40372 24.5708 11.153 21.757 11.5851 21.2935C12.996 20.1354 15.32 19.6729 17.9967 19.8915C18.1094 19.77 18.2231 19.6496 18.3377 19.53C18.2505 18.9539 18.1927 18.3884 18.1584 17.8326C14.8899 17.5742 12.0113 18.2125 10.183 19.7555L10.0811 19.8546C10.0498 19.8895 6.87625 23.3679 2.68671 23.8285L0.84668 24.0306L1.97245 25.488C4.58356 28.8683 4.24554 33.2949 4.2426 33.3377L4.23574 33.4164L4.24064 33.4961C4.4121 36.0514 6.1757 38.7535 8.96808 41.0135C9.21008 40.8143 9.45895 40.619 9.71565 40.4266C9.72251 39.9398 9.74014 39.456 9.76953 38.975Z" fill="#FFD000"/>
<path d="M61.7803 63.6414C62.3917 63.7483 62.9932 63.8231 63.5841 63.8707C63.5498 63.2839 63.4861 62.6844 63.392 62.0732C62.8737 62.6154 62.3358 63.1381 61.7803 63.6414Z" fill="#FFD000"/>
<path d="M19.8738 18.0444C19.2918 17.9463 18.7206 17.8783 18.1592 17.8336C18.1935 18.3894 18.2513 18.9548 18.3385 19.531C18.8323 19.018 19.3447 18.5225 19.8738 18.0444Z" fill="#FFD000"/>
<path d="M63.3952 19.634C66.0906 19.3736 68.441 19.807 69.8754 20.9554C70.3124 21.414 73.095 24.1957 76.9749 25.1654C75.033 28.6593 75.2221 32.3845 75.2721 33.0277C75.1428 34.8544 73.8671 36.8685 71.8438 38.6631C71.8762 39.1139 71.8987 39.5667 71.9114 40.0224C72.1907 40.2255 72.4621 40.4324 72.7237 40.6433C75.4896 38.3512 77.2209 35.6287 77.362 33.0714L77.3659 32.9918L77.3581 32.915C77.3541 32.8713 76.9632 28.4475 79.5351 25.0381L80.6442 23.5681L78.8022 23.3874C74.6303 22.9783 71.3931 19.533 71.3618 19.4999L71.2589 19.4018C69.4659 17.9239 66.6941 17.3099 63.5471 17.546C63.5177 18.2077 63.4501 18.8868 63.3433 19.5786C63.3609 19.5971 63.3776 19.6155 63.3952 19.634Z" fill="#FFD000"/>
<path d="M18.2391 62.0703C15.5231 62.3366 13.154 61.9013 11.7167 60.7412C11.3835 60.4419 8.20613 57.6514 4.66324 56.6759C6.30731 53.4298 6.38276 49.1546 6.38668 48.7223C6.48857 46.8859 7.75836 44.8552 9.78945 43.0461C9.75515 42.5651 9.73164 42.0813 9.71988 41.5935C9.4622 41.4041 9.21138 41.2117 8.96839 41.0144C6.17406 43.3201 4.43005 46.0649 4.29974 48.6397L4.29875 48.6892C4.29875 48.7417 4.25663 54.004 2.15697 56.7886L1.04785 58.2587L2.89081 58.4394C6.41508 58.7853 10.2637 62.2307 10.3293 62.2889L10.3714 62.3249C11.9156 63.5861 14.1779 64.2157 16.7802 64.2157C17.2074 64.2157 17.6463 64.1924 18.0911 64.1583C18.1195 63.4957 18.1862 62.8165 18.291 62.1238C18.2724 62.1063 18.2567 62.0878 18.2391 62.0703Z" fill="#FFD000"/>
<path d="M9.71094 40.8522C9.71094 40.7103 9.71485 40.5685 9.71681 40.4266C9.46011 40.619 9.21026 40.8143 8.96924 41.0135C9.21222 41.2097 9.46306 41.4031 9.72074 41.5925C9.71388 41.3467 9.71094 41.0999 9.71094 40.8522Z" fill="#FFD000"/>
<path d="M71.9239 40.8522C71.9239 40.995 71.92 41.1359 71.918 41.2778C72.1953 41.0708 72.4647 40.859 72.7244 40.6433C72.4628 40.4324 72.1913 40.2255 71.9121 40.0224C71.919 40.2984 71.9239 40.5753 71.9239 40.8522Z" fill="#FFD000"/>
<path d="M34.0437 75.2503C33.595 75.2678 29.3555 75.4767 26.135 77.2363C25.021 73.7764 22.061 70.6692 21.7573 70.3563C20.5355 68.9737 20.0143 66.6408 20.1897 63.9388C20.171 63.9223 20.1524 63.9067 20.1348 63.8902C19.4401 64.0185 18.7572 64.1069 18.09 64.1584C17.9548 67.286 18.6632 70.0153 20.2083 71.7457L20.2416 71.7817C20.2788 71.8196 23.9598 75.6089 24.4223 79.0552L24.6663 80.875L26.1105 79.7266C28.8832 77.522 34.0908 77.3209 34.1427 77.3189L34.1976 77.316C36.456 77.1236 38.8035 75.7109 40.8444 73.4645C40.3859 72.9593 39.943 72.4122 39.5187 71.8264C37.7963 73.8172 35.8456 75.0871 34.0437 75.2503Z" fill="#FFD000"/>
<path d="M42.0386 71.6738C42.0817 71.7253 42.1258 71.7768 42.1699 71.8273C42.2091 71.7739 42.2473 71.7185 42.2855 71.6641C42.2032 71.6679 42.1209 71.6699 42.0386 71.6738Z" fill="#FFD000"/>
<path d="M39.7028 10.0267C39.6401 9.95184 39.5764 9.87799 39.5127 9.80511C39.4559 9.88284 39.4011 9.96155 39.3452 10.0403C39.4638 10.0344 39.5833 10.0305 39.7028 10.0267Z" fill="#FFD000"/>
<path d="M47.5538 6.47834C48.1906 6.5036 52.1401 6.56093 55.5978 4.56329C56.6745 8.40701 59.4365 10.9381 59.9254 11.3627C61.1208 12.7579 61.6263 15.082 61.4461 17.7666C61.4637 17.7821 61.4804 17.7967 61.498 17.8123C62.1946 17.685 62.8785 17.5966 63.5467 17.546C63.6878 14.4165 62.9873 11.6823 61.451 9.94508L61.3383 9.83528C61.304 9.8071 57.9051 6.91556 57.3388 2.69583L57.0949 0.876007L55.6507 2.02445C52.3802 4.62547 47.637 4.40977 47.591 4.40589L47.5195 4.402L47.448 4.40783C45.2062 4.58855 42.8783 5.97019 40.8462 8.17965C41.3067 8.681 41.7525 9.22315 42.1777 9.80515C43.8737 7.87552 45.7843 6.64546 47.5538 6.47834Z" fill="#FFD000"/>
<path d="M42.0386 71.6738C41.6329 71.6893 41.2263 71.7 40.8168 71.7C40.4258 71.7 40.0369 71.6903 39.6489 71.6757C39.6058 71.7263 39.5626 71.7778 39.5195 71.8273C39.9428 72.4122 40.3857 72.9602 40.8452 73.4655C41.3037 72.9602 41.7466 72.4132 42.1699 71.8273C42.1258 71.7768 42.0826 71.7253 42.0386 71.6738Z" fill="#FFD000"/>
<path d="M39.7028 10.0267C40.0731 10.014 40.4435 10.0053 40.8168 10.0053C41.2077 10.0053 41.5967 10.015 41.9847 10.0296C42.0484 9.95474 42.112 9.87896 42.1767 9.80609C41.7505 9.22409 41.3057 8.68193 40.8452 8.18057C40.3847 8.68193 39.9389 9.22409 39.5137 9.80609C39.5764 9.87799 39.6401 9.95184 39.7028 10.0267Z" fill="#FFD000"/>
<path d="M63.343 19.5786C63.4488 18.8868 63.5164 18.2077 63.5468 17.546C62.8786 17.5965 62.1947 17.685 61.498 17.8122C62.1369 18.3768 62.7531 18.9646 63.343 19.5786Z" fill="#FFD000"/>
<path d="M18.2897 62.1237C18.1849 62.8165 18.1183 63.4957 18.0898 64.1583C18.7571 64.1068 19.44 64.0184 20.1347 63.8902C19.4958 63.3266 18.8795 62.7378 18.2897 62.1237Z" fill="#FFD000"/>
<path d="M61.4962 63.8931C61.5912 63.8095 61.6862 63.726 61.7803 63.6414C61.6784 63.624 61.5755 63.6026 61.4727 63.5831C61.4825 63.6871 61.4893 63.7901 61.4962 63.8931Z" fill="#FFD000"/>
<path d="M20.2395 17.7209C20.117 17.8278 19.9945 17.9346 19.874 18.0435C20.0053 18.0658 20.1386 18.0911 20.2708 18.1163C20.2591 17.9842 20.2483 17.8521 20.2395 17.7209Z" fill="#FFD000"/>
<path d="M18.3376 19.531C18.2219 19.6505 18.1093 19.771 17.9966 19.8924C18.1308 19.9031 18.268 19.9177 18.4042 19.9323C18.3816 19.7982 18.3581 19.6641 18.3376 19.531Z" fill="#FFD000"/>
<path d="M9.76921 38.975C9.73982 39.456 9.72219 39.9398 9.71533 40.4266C10.0318 40.1895 10.36 39.9573 10.698 39.7329C10.3737 39.4861 10.0641 39.2325 9.76921 38.975Z" fill="#FFD000"/>
<path d="M63.3913 62.0733C63.4775 61.9829 63.5627 61.8916 63.647 61.8002C63.5451 61.7915 63.4442 61.7818 63.3413 61.7701C63.3589 61.8721 63.3766 61.9732 63.3913 62.0733Z" fill="#FFD000"/>
<path d="M71.8701 42.6351C71.8965 42.1852 71.9112 41.7334 71.9181 41.2787C71.6202 41.5012 71.3126 41.7179 70.9961 41.9297C71.2998 42.159 71.5928 42.3951 71.8701 42.6351Z" fill="#FFD000"/>
<path d="M71.9122 40.0234C71.9005 39.5677 71.877 39.114 71.8446 38.6641C71.5693 38.908 71.2813 39.1489 70.9785 39.3841C71.2999 39.591 71.6105 39.8048 71.9122 40.0234Z" fill="#FFD000"/>
<path d="M63.3948 19.634C63.3771 19.6155 63.3605 19.5971 63.3428 19.5786C63.3399 19.599 63.3359 19.6194 63.333 19.6408C63.3536 19.6388 63.3742 19.6359 63.3948 19.634Z" fill="#FFD000"/>
<path d="M9.71973 41.5925C9.73148 42.0793 9.755 42.5632 9.78929 43.0451C10.0813 42.7847 10.3889 42.5292 10.7122 42.2795C10.3703 42.056 10.0401 41.8277 9.71973 41.5925Z" fill="#FFD000"/>
<path d="M18.2388 62.0703C18.2554 62.0878 18.2721 62.1063 18.2887 62.1238C18.2917 62.1034 18.2956 62.083 18.2985 62.0635C18.2799 62.0655 18.2593 62.0684 18.2388 62.0703Z" fill="#FFD000"/>
<path d="M61.4982 17.8122C61.4806 17.7967 61.4639 17.7821 61.4463 17.7666C61.4453 17.785 61.4434 17.8045 61.4414 17.8229C61.461 17.819 61.4796 17.8152 61.4982 17.8122Z" fill="#FFD000"/>
<path d="M20.1348 63.8902C20.1534 63.9067 20.172 63.9222 20.1896 63.9388C20.1906 63.9193 20.1926 63.8989 20.1945 63.8785C20.1749 63.8824 20.1544 63.8873 20.1348 63.8902Z" fill="#FFD000"/>
</svg>
