<svg width="81" height="81" viewBox="0 0 81 81" fill="none" xmlns="http://www.w3.org/2000/svg">
<path d="M40.0789 64.3848C26.9881 64.3848 16.3379 53.7368 16.3379 40.6487C16.3379 27.5605 26.9881 16.9125 40.0789 16.9125C53.1698 16.9125 63.82 27.5605 63.82 40.6487C63.82 53.7368 53.169 64.3848 40.0789 64.3848ZM40.0789 18.6639C27.9541 18.6639 18.0897 28.5263 18.0897 40.6487C18.0897 52.771 27.9541 62.6334 40.0789 62.6334C52.2038 62.6334 62.0682 52.771 62.0682 40.6487C62.0682 28.5255 52.2038 18.6639 40.0789 18.6639Z" fill="#6C2383"/>
<path d="M40.079 60.29C29.246 60.29 20.4336 51.4786 20.4336 40.6487C20.4336 29.8188 29.2468 21.0073 40.079 21.0073C50.9119 21.0073 59.7244 29.8188 59.7244 40.6487C59.7244 51.4786 50.9111 60.29 40.079 60.29ZM40.079 21.869C29.7216 21.869 21.2954 30.2934 21.2954 40.6487C21.2954 51.0039 29.7216 59.4284 40.079 59.4284C50.4364 59.4284 58.8626 51.0039 58.8626 40.6487C58.8626 30.2934 50.4356 21.869 40.079 21.869Z" fill="#6C2383"/>
<path d="M28.7512 12.5291C28.1194 12.2207 27.4891 11.966 26.8688 11.7651C26.5802 12.3406 26.2634 12.8632 25.9458 13.3213C26.686 13.5322 27.4527 13.8398 28.2277 14.2383C28.3774 13.6446 28.5519 13.0741 28.7512 12.5291Z" fill="#6C2383"/>
<path d="M51.4146 68.7153C52.0919 69.051 52.7676 69.3272 53.4326 69.5405C53.7394 68.984 54.0728 68.4647 54.3995 67.9967C53.6005 67.7767 52.7693 67.4418 51.9307 67.0027C51.7826 67.5973 51.6097 68.1687 51.4146 68.7153Z" fill="#6C2383"/>
<path d="M33.144 17.9726L33.809 18.6655C34.4615 18.4795 35.1248 18.3216 35.7997 18.1942L34.4169 16.7529C33.1258 15.4076 31.7305 14.278 30.3138 13.3974C30.1211 13.9605 29.9557 14.5559 29.8184 15.1769C30.9639 15.9376 32.0945 16.8786 33.144 17.9726Z" fill="#6C2383"/>
<path d="M65.7456 53.0761C66.2146 53.9948 66.5702 54.9052 66.7951 55.7759C67.2558 55.4551 67.7818 55.1202 68.35 54.8068C68.1342 54.0932 67.8488 53.3663 67.4981 52.6378C66.9374 52.8082 66.351 52.9545 65.7456 53.0761Z" fill="#6C2383"/>
<path d="M62.4885 48.558C63.3776 49.4841 64.1542 50.464 64.8051 51.4562C65.4411 51.3512 66.0531 51.2148 66.6371 51.0519C65.8621 49.7785 64.8969 48.5207 63.7613 47.3375L62.3404 45.8565C62.1841 46.5254 62.0005 47.182 61.7871 47.8262L62.4885 48.558Z" fill="#6C2383"/>
<path d="M13.3828 21.7284C13.6458 21.2099 15.1627 18.0214 14.7037 14.2896C18.3949 14.8651 21.8132 13.418 22.3326 13.1857C22.8371 13.0352 23.392 12.9748 23.9817 12.9947C24.3431 12.5457 24.7393 11.9875 25.0983 11.3384C23.8965 11.154 22.7618 11.2044 21.7561 11.5178L21.6436 11.5616C21.6039 11.5807 17.605 13.4255 13.8451 12.2926L12.3482 11.842L12.736 13.3552C13.7302 17.2317 11.8089 20.9312 11.7907 20.966L11.7361 21.09C11.3458 22.2055 11.2796 23.4963 11.5004 24.8739C12.1571 24.4819 12.7153 24.0627 13.1462 23.7022C13.114 22.9861 13.1851 22.3188 13.3828 21.7284Z" fill="#6C2383"/>
<path d="M14.4838 28.1989C14.0454 27.343 13.708 26.4946 13.4797 25.6785C13.029 26.0059 12.5087 26.3425 11.9331 26.6542C12.1432 27.31 12.4103 27.9748 12.7329 28.6429C13.2936 28.4701 13.8784 28.3213 14.4838 28.1989Z" fill="#6C2383"/>
<path d="M66.8155 59.5805C66.6682 59.9443 65.1853 63.7166 65.4739 67.1053C62.0879 66.6604 58.3181 67.9694 57.9377 68.1058C57.4555 68.2514 56.9262 68.3134 56.3638 68.3026C55.9999 68.7731 55.5938 69.342 55.2183 69.9655C55.6583 70.0308 56.0883 70.0647 56.5068 70.0647C57.2007 70.0647 57.8616 69.9738 58.4736 69.7852L58.5183 69.7704C58.5638 69.7538 63.1118 68.1149 66.2944 69.0733L67.7905 69.5239L67.4027 68.0107C66.5913 64.8454 68.4357 60.2734 68.4547 60.2271L68.4696 60.1883C68.8459 59.129 68.9294 57.9093 68.7491 56.6086C68.1023 56.9989 67.5276 57.4099 67.0785 57.7555C67.0909 58.4162 67.0073 59.0314 66.8155 59.5805Z" fill="#6C2383"/>
<path d="M47.1133 63.3222L46.4285 62.6086C45.7784 62.7963 45.1167 62.9576 44.4443 63.0874L45.8404 64.5419C47.1034 65.8583 48.4663 66.9672 49.8517 67.8396C50.0411 67.2723 50.2041 66.6736 50.3372 66.0502C49.2273 65.301 48.1314 64.384 47.1133 63.3222Z" fill="#6C2383"/>
<path d="M17.7279 32.6955C16.8471 31.7777 16.0754 30.8061 15.4286 29.8221C14.7926 29.9279 14.1806 30.0652 13.5967 30.2289C14.3683 31.4941 15.3286 32.7419 16.455 33.9161L17.8362 35.3557C17.9942 34.6892 18.1811 34.0351 18.3961 33.3926L17.7279 32.6955Z" fill="#6C2383"/>
<path d="M13.8994 50.196C12.7961 49.8942 11.7855 49.4998 10.9071 49.0293C10.8501 49.5668 10.7624 50.1944 10.6284 50.86C11.3447 51.2048 12.1205 51.5058 12.9459 51.7572C13.2312 51.2346 13.5504 50.7128 13.8994 50.196Z" fill="#6C2383"/>
<path d="M61.5291 30.4042C62.5175 30.424 63.481 30.5134 64.4024 30.663C64.7886 30.133 65.136 29.5972 65.447 29.0597C64.2188 28.8133 62.9145 28.6677 61.5639 28.6404L59.5078 28.5999C59.8668 29.1771 60.1992 29.7733 60.5069 30.3835L61.5291 30.4042Z" fill="#6C2383"/>
<path d="M66.2759 31.0666C67.3453 31.3568 68.327 31.7339 69.1863 32.1821C69.231 31.6454 69.3154 31.0244 69.4651 30.3563C68.7703 30.0296 68.021 29.7427 67.2262 29.5029C66.9425 30.0263 66.6249 30.5481 66.2759 31.0666Z" fill="#6C2383"/>
<path d="M67.4981 52.6371C68.3914 52.3642 69.2235 52.0301 69.9777 51.6415C69.8008 51.0312 69.6684 50.4268 69.5683 49.8653C68.7214 50.3466 67.7306 50.7476 66.6372 51.0527C66.9581 51.5795 67.2442 52.1087 67.4981 52.6371Z" fill="#6C2383"/>
<path d="M78.7716 40.6701C75.9579 39.0081 74.0242 34.4725 74.0052 34.4262L73.9878 34.3882C73.4205 33.1975 72.4122 32.1382 71.0856 31.2617C70.9376 32.1084 70.9045 32.8361 70.9053 33.3107C71.5645 33.8623 72.0715 34.4734 72.3874 35.1299C72.5413 35.4913 74.164 39.2057 76.766 41.3953C74.059 43.4758 72.3221 47.0687 72.15 47.4342C71.911 47.8799 71.5802 48.2999 71.1733 48.6902C71.2494 49.2798 71.3643 49.9686 71.5405 50.6748C72.4908 49.9686 73.236 49.15 73.7173 48.2412L73.738 48.1999C73.7587 48.1561 75.8214 43.7743 78.7393 42.2049L80.1156 41.4648L78.7716 40.6701Z" fill="#6C2383"/>
<path d="M61.1171 51.7142L60.0981 51.6936C59.7681 52.2906 59.4141 52.8727 59.0337 53.4358L61.0815 53.4764C61.2361 53.4797 61.3892 53.4805 61.5422 53.4805C63.011 53.4805 64.4254 53.3383 65.7454 53.0745C65.4699 52.5353 65.1581 51.9929 64.805 51.4546C63.638 51.6489 62.3949 51.7407 61.1171 51.7142Z" fill="#6C2383"/>
<path d="M7.84386 46.1938C7.66273 45.6414 6.47668 42.3157 3.51164 40.0037C6.52713 37.7975 7.91828 34.3576 8.12009 33.8259C8.36904 33.3637 8.71721 32.9295 9.14645 32.5268C9.0836 31.9538 8.96784 31.2782 8.7619 30.5654C7.7843 31.2848 7.02091 32.1225 6.53294 33.0544L6.48412 33.1652C6.46923 33.2065 4.94995 37.3394 1.49197 39.1999L0.115723 39.94L1.46133 40.7346C4.90773 42.7704 6.169 46.7429 6.18058 46.7809L6.23021 46.9066C6.78351 48.0527 7.74459 49.0772 9.00587 49.9322C9.14151 49.1062 9.20271 48.3752 9.23 47.8972C8.62293 47.3779 8.14988 46.8057 7.84386 46.1938Z" fill="#6C2383"/>
<path d="M18.677 50.8675C17.6779 50.8476 16.7036 50.7558 15.7715 50.6028C15.3844 51.1321 15.0363 51.6679 14.7236 52.2037C15.9618 52.4551 17.2785 52.6031 18.6415 52.6304L20.6305 52.6701C20.2724 52.0921 19.9416 51.4967 19.6356 50.8865L18.677 50.8675Z" fill="#6C2383"/>
<path d="M19.1473 29.5583L20.0736 29.5765C20.4052 28.9794 20.7592 28.3973 21.1414 27.8342L19.182 27.7953C17.5353 27.7614 15.9498 27.9036 14.4834 28.1989C14.7605 28.7396 15.0739 29.2821 15.4287 29.8221C16.604 29.6261 17.8579 29.5326 19.1473 29.5583Z" fill="#6C2383"/>
<path d="M12.7328 28.6429C11.8627 28.9108 11.0514 29.2366 10.3145 29.6145C10.5187 30.2256 10.6651 30.8193 10.7644 31.3684C11.5881 30.9086 12.545 30.5241 13.5979 30.2289C13.2762 29.7013 12.9875 29.1713 12.7328 28.6429Z" fill="#6C2383"/>
<path d="M65.7451 53.0761C66.3505 52.9554 66.936 52.8082 67.4976 52.6371C67.2437 52.1087 66.9576 51.5794 66.6367 51.0519C66.0528 51.2148 65.4399 51.3512 64.8047 51.4562C65.1578 51.9945 65.4697 52.5362 65.7451 53.0761Z" fill="#6C2383"/>
<path d="M14.4833 28.1989C13.8779 28.3212 13.2932 28.4701 12.7324 28.6421C12.9872 29.1705 13.275 29.7005 13.5967 30.2281C14.1807 30.0643 14.7927 29.9279 15.4287 29.8212C15.0739 29.2829 14.7604 28.7396 14.4833 28.1989Z" fill="#6C2383"/>
<path d="M28.255 66.8209C27.3915 67.2806 26.5339 67.632 25.7109 67.8644C26.0401 68.3275 26.3784 68.8443 26.6935 69.4016C27.3733 69.18 28.0639 68.8931 28.757 68.5449C28.5651 67.9942 28.3973 67.4187 28.255 66.8209Z" fill="#6C2383"/>
<path d="M58.0716 13.3461C58.5894 13.5834 61.9961 15.0561 65.6914 14.5112C65.2035 18.2389 66.6947 21.4398 66.9535 21.9599C67.1198 22.4701 67.1934 23.0374 67.1868 23.6418C67.6499 23.9957 68.2181 24.3827 68.8674 24.7317C69.0278 23.5021 68.9493 22.3477 68.6035 21.3356L68.5506 21.2116C68.5316 21.1752 66.6351 17.4839 67.6648 13.5933L68.0651 12.0826L66.5657 12.5217C62.8149 13.6182 58.8119 11.7469 58.773 11.7287L58.6605 11.684C57.6217 11.3508 56.4423 11.2995 55.1909 11.4988C55.5672 12.1537 55.9758 12.7086 56.3397 13.1452C56.9609 13.1195 57.544 13.1849 58.0716 13.3461Z" fill="#6C2383"/>
<path d="M67.2255 29.5029C67.7697 28.4999 68.1923 27.4943 68.4826 26.5153C67.9045 26.235 67.3744 25.9249 66.9071 25.614C66.6225 26.7195 66.1255 27.8896 65.4473 29.0597C66.0601 29.1829 66.6548 29.3309 67.2255 29.5029Z" fill="#6C2383"/>
<path d="M62.5208 32.8923L61.8311 33.6002C62.0403 34.2452 62.219 34.9034 62.3711 35.5723L63.7846 34.1228C64.7366 33.1454 65.5711 32.1159 66.2766 31.0666C65.6769 30.9037 65.0508 30.768 64.4032 30.663C63.8466 31.4263 63.2189 32.1762 62.5208 32.8923Z" fill="#6C2383"/>
<path d="M12.9469 51.7572C12.3655 52.8239 11.923 53.8923 11.6294 54.93C12.1992 55.2153 12.7327 55.5279 13.2124 55.8371C13.4903 54.6762 14.0048 53.4408 14.7252 52.2046C14.1115 52.0797 13.5168 51.93 12.9469 51.7572Z" fill="#6C2383"/>
<path d="M22.0314 67.9826C21.6526 67.8437 17.8919 66.5041 14.5034 66.9217C14.8185 63.5355 13.3662 59.7517 13.2214 59.3862C13.0577 58.9057 12.98 58.374 12.9725 57.8076C12.4895 57.4611 11.9056 57.0775 11.2663 56.7269C11.1331 57.9044 11.2241 59.0083 11.5615 59.9807L11.5764 60.0204C11.5946 60.0667 13.4059 64.6428 12.5664 67.8123L12.1669 69.323L13.6664 68.8839C16.8366 67.9562 21.364 69.6149 21.4368 69.6422L21.4806 69.6579C22.11 69.8564 22.7915 69.9531 23.5086 69.9531C23.961 69.9531 24.4283 69.9109 24.9047 69.8365C24.5217 69.2139 24.1123 68.6499 23.7509 68.1902C23.1347 68.2117 22.555 68.1447 22.0314 67.9826Z" fill="#6C2383"/>
<path d="M51.8828 14.5005C52.7272 14.0531 53.5643 13.7083 54.3698 13.4776C54.0456 13.0245 53.7181 12.5085 53.4171 11.9313C52.7471 12.1504 52.0656 12.4332 51.3833 12.7756C51.5744 13.3255 51.7414 13.9026 51.8828 14.5005Z" fill="#6C2383"/>
<path d="M17.6362 48.3992L18.3244 47.693C18.1151 47.048 17.9365 46.389 17.7851 45.72L16.3733 47.1688C15.4296 48.1371 14.6017 49.1574 13.9004 50.196C14.4992 50.3598 15.1253 50.4962 15.7721 50.6029C16.3229 49.8487 16.9456 49.1078 17.6362 48.3992Z" fill="#6C2383"/>
<path d="M47.222 18.0479C48.1946 17.0506 49.2342 16.1824 50.2887 15.4646C50.1614 14.837 50.0051 14.2334 49.8215 13.6612C48.4899 14.5054 47.1789 15.5655 45.959 16.8174L44.5786 18.2331C45.251 18.3671 45.9111 18.5341 46.5611 18.7259L47.222 18.0479Z" fill="#6C2383"/>
<path d="M32.8941 63.285C31.928 64.2757 30.8959 65.1389 29.8472 65.8542C29.9754 66.481 30.1325 67.0838 30.3169 67.656C31.6411 66.8142 32.9445 65.7599 34.157 64.5163L35.573 63.0634C34.9005 62.9286 34.2405 62.7624 33.5913 62.5706L32.8941 63.285Z" fill="#6C2383"/>
<path d="M13.8999 50.196C13.55 50.7128 13.2316 51.2346 12.9463 51.7572C13.517 51.9308 14.1108 52.0797 14.7237 52.2046C15.0363 51.6687 15.3845 51.1329 15.7715 50.6037C15.1248 50.4962 14.4987 50.3597 13.8999 50.196Z" fill="#6C2383"/>
<path d="M66.2754 31.0665C66.6244 30.5489 66.942 30.0263 67.2256 29.5029C66.655 29.3309 66.0603 29.1829 65.4474 29.0597C65.1356 29.5963 64.7882 30.133 64.4028 30.663C65.0504 30.768 65.6766 30.9036 66.2754 31.0665Z" fill="#6C2383"/>
<path d="M30.3138 13.3966C30.6008 12.5581 30.9465 11.7932 31.3418 11.1193C30.7885 11.0093 30.1964 10.8572 29.591 10.6479C29.2783 11.2301 28.9963 11.8594 28.7515 12.5292C29.2717 12.7838 29.7944 13.0732 30.3138 13.3966Z" fill="#6C2383"/>
<path d="M49.8514 67.8404C49.547 68.7508 49.1749 69.5794 48.7456 70.2988C49.3039 70.4137 49.9027 70.5642 50.5056 70.7602C50.848 70.1317 51.1516 69.4471 51.4137 68.7153C50.8927 68.4573 50.3708 68.167 49.8514 67.8404Z" fill="#6C2383"/>
<path d="M29.3635 19.4966C29.3602 17.9801 29.5223 16.5189 29.8184 15.176C29.289 14.8238 28.7564 14.5096 28.2271 14.2375C27.8177 15.8541 27.596 17.6352 27.6002 19.4999L27.6043 21.4936C28.175 21.1214 28.7614 20.7733 29.366 20.4517L29.3635 19.4966Z" fill="#6C2383"/>
<path d="M50.6821 19.4089L50.6845 20.3971C51.29 20.7146 51.878 21.0586 52.4503 21.4274L52.4462 19.4056C52.4429 17.6774 52.2444 16.0203 51.8838 14.4996C51.3528 14.7816 50.8194 15.1041 50.29 15.4646C50.5406 16.7025 50.6796 18.0338 50.6821 19.4089Z" fill="#6C2383"/>
<path d="M51.3842 12.7747C51.127 12.0305 50.8259 11.3326 50.4877 10.6901C49.8781 10.8935 49.2834 11.0407 48.731 11.1449C49.1569 11.885 49.525 12.7317 49.8219 13.6611C50.3413 13.332 50.8631 13.036 51.3842 12.7747Z" fill="#6C2383"/>
<path d="M33.829 8.55009C34.365 8.35825 37.8304 7.02943 40.09 4.05508C42.3487 7.06086 45.6536 8.30533 46.2028 8.49634C46.6809 8.74607 47.1324 9.09998 47.5518 9.53906C48.1299 9.46878 48.8056 9.34888 49.5136 9.14381C48.7667 8.14988 47.9016 7.37838 46.9455 6.89547L46.8206 6.84421C46.7809 6.83181 42.8433 5.51951 40.8583 2.01842L40.0875 0.658997L39.3224 2.0209C37.4094 5.42773 33.2385 6.88886 33.198 6.90292L33.0863 6.95005C32.1534 7.41724 31.309 8.15649 30.5762 9.10991C31.2792 9.32076 31.9557 9.44894 32.5396 9.52584C32.9424 9.11653 33.3733 8.78576 33.829 8.55009Z" fill="#6C2383"/>
<path d="M28.7568 68.5449C29.0323 69.3371 29.3573 70.0763 29.7254 70.7511C30.3299 70.5559 30.9287 70.4071 31.487 70.293C31.028 69.5264 30.6327 68.6375 30.3167 67.656C29.7982 67.9851 29.2771 68.2828 28.7568 68.5449Z" fill="#6C2383"/>
<path d="M46.2895 72.8018C45.9215 72.9672 42.2973 74.6383 40.1675 77.3076C38.0246 74.6673 34.3383 72.9779 33.9802 72.8183C33.527 72.5901 33.0977 72.2676 32.6966 71.869C32.1094 71.9592 31.4254 72.0931 30.7266 72.2899C31.4544 73.2219 32.2897 73.9462 33.2094 74.4051L33.2474 74.4225C33.2929 74.4424 37.7938 76.4559 39.4058 79.2996L40.1766 80.659L40.9417 79.2971C42.5595 76.417 46.9553 74.4374 47.0265 74.406L47.0686 74.3861C47.9718 73.9289 48.7922 73.2136 49.5068 72.2974C48.8104 72.0998 48.1281 71.965 47.5401 71.874C47.148 72.2602 46.7303 72.5752 46.2895 72.8018Z" fill="#6C2383"/>
<path d="M29.4486 61.8785L29.447 60.8862C28.8415 60.5678 28.2535 60.2222 27.6812 59.8526L27.6853 61.8818C27.6886 63.6232 27.8895 65.2919 28.2551 66.8208C28.7861 66.5389 29.3188 66.2147 29.8473 65.8542C29.5917 64.6081 29.4511 63.266 29.4486 61.8785Z" fill="#6C2383"/>
<path d="M50.7671 61.8487C50.7704 63.3198 50.6183 64.7404 50.3379 66.051C50.8672 66.4082 51.3998 66.7257 51.93 67.0036C52.3228 65.4143 52.5346 63.6695 52.5305 61.8462L52.5263 59.8211C51.9556 60.1924 51.3692 60.5397 50.7647 60.8597L50.7671 61.8487Z" fill="#6C2383"/>
<path d="M30.3134 13.3966C29.794 13.0732 29.2721 12.7838 28.7511 12.53C28.5526 13.0741 28.3772 13.6455 28.2275 14.2383C28.7569 14.5104 29.2895 14.8246 29.8188 15.1769C29.9553 14.555 30.1207 13.9597 30.3134 13.3966Z" fill="#6C2383"/>
<path d="M49.8516 67.8404C50.371 68.167 50.8929 68.4573 51.4139 68.7153C51.6099 68.1687 51.7828 67.5973 51.9292 67.0028C51.399 66.7258 50.8664 66.4074 50.3371 66.0502C50.2048 66.6745 50.041 67.2732 49.8516 67.8404Z" fill="#6C2383"/>
<path d="M51.8828 14.5004C51.7414 13.9026 51.5743 13.3263 51.3841 12.7747C50.863 13.036 50.3412 13.332 49.8218 13.6611C50.0054 14.2342 50.1617 14.8378 50.2891 15.4646C50.8184 15.1049 51.3518 14.7816 51.8828 14.5004Z" fill="#6C2383"/>
<path d="M28.2549 66.8208C28.3971 67.4179 28.565 67.9942 28.7569 68.5449C29.278 68.2828 29.7991 67.9851 30.3168 67.6552C30.1324 67.0838 29.9752 66.4802 29.847 65.8534C29.3185 66.2147 28.785 66.5389 28.2549 66.8208Z" fill="#6C2383"/>
<path d="M57.2429 58.1384C57.8732 58.284 58.491 58.3873 59.0923 58.4526C58.8888 57.2412 58.5506 55.9918 58.0758 54.7407C57.6565 55.2757 57.2148 55.7909 56.75 56.2862C56.9502 56.908 57.1164 57.5282 57.2429 58.1384Z" fill="#6C2383"/>
<path d="M22.8041 14.2508L22.7074 14.345C21.3717 15.8682 20.7844 18.2926 20.9523 21.0578C21.5338 21.1041 22.1284 21.1851 22.7346 21.2992C22.5237 18.8888 22.9431 16.7893 23.9959 15.5506C24.2308 15.3447 25.0852 14.5592 25.9453 13.3197C25.2622 13.1245 24.6022 13.0137 23.9819 12.993C23.3442 13.7877 22.8165 14.2408 22.8041 14.2508Z" fill="#6C2383"/>
<path d="M38.9319 63.4802C38.2471 63.4463 37.5722 63.3776 36.9048 63.285C37.4887 64.6569 38.195 65.9121 38.9832 67.0102C39.3719 66.5579 39.7466 66.0626 40.1014 65.5284C39.6804 64.895 39.2876 64.2087 38.9319 63.4802Z" fill="#6C2383"/>
<path d="M41.2206 67.0102C40.8633 67.508 40.4895 67.9744 40.1016 68.4043C41.8243 70.3161 43.8052 71.5185 45.7124 71.6822L45.7587 71.6847C45.7769 71.6855 46.5139 71.7128 47.5394 71.8724C47.9778 71.4366 48.3822 70.9074 48.7453 70.2988C47.2533 69.9903 46.0532 69.9316 45.8423 69.9234C44.3221 69.7844 42.6754 68.7037 41.2206 67.0102Z" fill="#6C2383"/>
<path d="M34.4382 11.3938C35.9319 11.536 37.5447 12.5829 38.9772 14.2251C39.3361 13.7298 39.7124 13.2684 40.1011 12.8417C38.3858 10.9613 36.4207 9.78549 34.5284 9.63169L34.468 9.62673L34.4093 9.63004C34.3919 9.63086 33.626 9.66643 32.5392 9.5242C32.1025 9.96742 31.7014 10.5041 31.3408 11.1185C32.8916 11.4285 34.1297 11.4079 34.4382 11.3938Z" fill="#6C2383"/>
<path d="M23.0088 23.1548C22.3778 23.0101 21.76 22.9092 21.1587 22.8447C21.3597 24.0288 21.6888 25.2493 22.1487 26.4715C22.5696 25.9398 23.0146 25.4271 23.4803 24.9351C23.2901 24.3364 23.1313 23.7402 23.0088 23.1548Z" fill="#6C2383"/>
<path d="M52.5189 71.6135C51.8779 71.2604 51.1898 70.9818 50.5058 70.7602C50.2014 71.3192 49.8673 71.8335 49.5059 72.2957C50.5827 72.6009 51.6926 73.0548 52.5387 73.7329L53.7578 74.7103L53.9638 73.1615C54.1077 72.0774 54.6238 70.9528 55.2184 69.9647C54.637 69.8787 54.0382 69.734 53.4311 69.5397C53.0713 70.1929 52.748 70.8941 52.5189 71.6135Z" fill="#6C2383"/>
<path d="M27.6492 9.76483C28.2877 10.1369 28.946 10.4247 29.5911 10.648C29.8914 10.089 30.2205 9.57299 30.577 9.1091C29.5762 8.80811 28.5226 8.33843 27.6053 7.60332L26.3862 6.62592L26.1803 8.1747C26.0207 9.37039 25.5963 10.4404 25.1001 11.3368C25.6766 11.4252 26.2688 11.5691 26.87 11.7643C27.1736 11.1573 27.4473 10.49 27.6492 9.76483Z" fill="#6C2383"/>
<path d="M57.5223 66.9407C58.8654 65.4234 59.4593 63.003 59.2963 60.2387C58.7149 60.1916 58.1203 60.1097 57.5148 59.994C57.7233 62.4217 57.2907 64.5295 56.2138 65.7583C56.0732 65.9038 55.2602 66.7654 54.3984 67.9967C55.0833 68.1861 55.7441 68.2894 56.3635 68.3018C56.983 67.5006 57.4801 66.9837 57.4925 66.9713L57.5223 66.9407Z" fill="#6C2383"/>
<path d="M41.3278 17.8238C42.0134 17.861 42.6908 17.9304 43.3582 18.0264C42.7611 16.6231 42.0357 15.3422 41.226 14.2259C40.8357 14.6733 40.4593 15.1653 40.1021 15.6953C40.5437 16.3502 40.9564 17.063 41.3278 17.8238Z" fill="#6C2383"/>
<path d="M25.9449 13.3213C26.2625 12.8632 26.5793 12.3414 26.8679 11.7651C26.2675 11.5699 25.6745 11.4261 25.098 11.3376C24.7391 11.9867 24.3429 12.5449 23.9814 12.9939C24.6017 13.0154 25.2618 13.1262 25.9449 13.3213Z" fill="#6C2383"/>
<path d="M54.3985 67.9967C54.071 68.4647 53.7385 68.984 53.4316 69.5405C54.0387 69.7348 54.6375 69.8804 55.2189 69.9655C55.5944 69.3421 55.9997 68.7732 56.3644 68.3027C55.7441 68.2894 55.0841 68.1852 54.3985 67.9967Z" fill="#6C2383"/>
<path d="M48.7454 70.2979C48.3823 70.9065 47.9779 71.4358 47.5396 71.8715C48.1268 71.9625 48.8099 72.0981 49.5063 72.2949C49.8677 71.8318 50.2019 71.3175 50.5063 70.7594C49.9025 70.5642 49.3037 70.4137 48.7454 70.2979Z" fill="#6C2383"/>
<path d="M31.3412 11.1193C31.7018 10.5049 32.103 9.96738 32.5396 9.52499C31.9557 9.44892 31.2792 9.32076 30.5762 9.10907C30.2197 9.57296 29.8906 10.0889 29.5903 10.6479C30.1957 10.858 30.7879 11.0093 31.3412 11.1193Z" fill="#6C2383"/>
<path d="M70.8018 53.7567C69.94 54.0072 69.1072 54.3876 68.3496 54.8068C68.5349 55.4195 68.6697 56.0224 68.7507 56.6086C69.821 55.9628 71.0897 55.3766 72.3171 55.2409L73.8703 55.0689L72.92 53.8286C72.2534 52.9587 71.8216 51.7969 71.5421 50.6756C71.0698 51.0271 70.5455 51.3504 69.9781 51.6423C70.1857 52.3592 70.4545 53.0844 70.8018 53.7567Z" fill="#6C2383"/>
<path d="M62.9251 39.9193C63.2824 40.1021 63.6281 40.2931 63.9631 40.4924C64.5247 40.1476 65.0515 39.7804 65.5395 39.3984C64.6901 38.8435 63.763 38.3358 62.7729 37.8926C62.8523 38.5599 62.9036 39.2355 62.9251 39.9193Z" fill="#6C2383"/>
<path d="M59.0923 58.4518C59.194 59.0596 59.2627 59.6566 59.2966 60.2387C59.7018 60.2718 60.1022 60.2941 60.4917 60.2941C62.7546 60.2941 64.7197 59.7351 66.0422 58.6205L66.0769 58.5899C66.0876 58.58 66.4681 58.2277 67.081 57.7547C67.0702 57.1304 66.9742 56.4664 66.7956 55.7751C65.746 56.5061 65.0273 57.1585 64.8892 57.2859C63.6345 58.3319 61.5148 58.7156 59.0923 58.4518Z" fill="#6C2383"/>
<path d="M15.4026 24.004C16.6539 22.9687 18.7555 22.5875 21.159 22.8447C21.0564 22.2378 20.9869 21.6407 20.9522 21.0586C18.1931 20.8386 15.7632 21.3819 14.2198 22.695L14.1338 22.7794C14.1239 22.7901 13.7666 23.1846 13.1479 23.7022C13.1769 24.3282 13.2894 24.9913 13.4813 25.6793C14.5333 24.9136 15.2181 24.2033 15.4026 24.004Z" fill="#6C2383"/>
<path d="M9.20422 34.2534L9.19846 34.3204L9.2026 34.3882C9.34734 36.563 10.836 38.8626 13.1932 40.7859C13.6481 40.4072 14.136 40.0425 14.6538 39.6961C12.5059 38.0514 11.1106 36.0949 10.9659 34.3303C10.9866 34.0186 11.0337 32.856 10.7633 31.3684C10.1429 31.7148 9.59792 32.1027 9.14551 32.5277C9.25799 33.5423 9.20587 34.2385 9.20422 34.2534Z" fill="#6C2383"/>
<path d="M16.2436 40.7719C15.682 41.1159 15.1543 41.4814 14.6655 41.8626C15.4992 42.41 16.4073 42.9111 17.3775 43.3501C17.2989 42.6812 17.2501 42.004 17.2303 41.3193C16.892 41.1448 16.562 40.9621 16.2436 40.7719Z" fill="#6C2383"/>
<path d="M55.41 57.6075C54.908 58.0615 54.3845 58.4931 53.8428 58.9016C55.0776 59.401 56.3141 59.7649 57.515 59.9939C57.4637 59.392 57.3743 58.771 57.2428 58.1384C56.6382 57.9986 56.0254 57.82 55.41 57.6075Z" fill="#6C2383"/>
<path d="M24.7805 23.6617C25.2851 23.2069 25.8094 22.7744 26.3528 22.3659C25.1354 21.8797 23.9179 21.525 22.7344 21.3009C22.7873 21.9029 22.8775 22.523 23.009 23.1556C23.5929 23.2879 24.1851 23.4591 24.7805 23.6617Z" fill="#6C2383"/>
<path d="M71.0296 46.9149C70.894 44.7245 69.3945 42.4067 67.0125 40.4717C66.5576 40.8513 66.0705 41.2176 65.5527 41.5657C67.7379 43.2319 69.148 45.2189 69.2671 47.005C69.2713 47.206 69.3052 48.3876 69.5673 49.8653C70.1852 49.5139 70.7261 49.1202 71.1735 48.6911C71.0445 47.6897 71.0304 46.9744 71.0296 46.9571V46.9149Z" fill="#6C2383"/>
<path d="M9.45182 27.6564C10.3608 27.4158 11.1928 27.0553 11.933 26.6542C11.7395 26.0498 11.5948 25.4536 11.5013 24.8739C10.4948 25.4751 9.25749 26.0101 7.89117 26.1614L6.33789 26.3334L7.28823 27.5737C8.02102 28.5296 8.47751 29.5831 8.7612 30.5663C9.23098 30.2206 9.75121 29.9023 10.3136 29.6145C10.0994 28.9712 9.82152 28.3097 9.45182 27.6564Z" fill="#6C2383"/>
<path d="M66.7949 55.7759C66.9736 56.4664 67.0695 57.1312 67.0802 57.7555C67.5293 57.4091 68.1033 56.9981 68.7509 56.6086C68.6699 56.0224 68.5359 55.4196 68.3498 54.8068C67.7816 55.1202 67.2556 55.4551 66.7949 55.7759Z" fill="#6C2383"/>
<path d="M13.4806 25.6785C13.2888 24.9905 13.1763 24.3273 13.1473 23.7014C12.7164 24.0619 12.159 24.4811 11.5015 24.8731C11.5949 25.4536 11.7396 26.0489 11.9332 26.6534C12.5088 26.3425 13.0299 26.0059 13.4806 25.6785Z" fill="#6C2383"/>
<path d="M10.7646 31.3675C10.6645 30.8185 10.5181 30.2248 10.3146 29.6137C9.75222 29.9014 9.23198 30.2198 8.76221 30.5654C8.96815 31.2782 9.08391 31.953 9.14677 32.5268C9.59917 32.1026 10.1443 31.714 10.7646 31.3675Z" fill="#6C2383"/>
<path d="M69.5688 49.8653C69.6689 50.4276 69.8013 51.0312 69.9782 51.6414C70.5456 51.3487 71.07 51.0262 71.5422 50.6748C71.3661 49.9686 71.2503 49.2807 71.175 48.6902C70.7276 49.1202 70.1867 49.5138 69.5688 49.8653Z" fill="#6C2383"/>
<path d="M22.7345 21.3001C22.129 21.1851 21.5336 21.1049 20.9521 21.0586C20.9869 21.6407 21.0564 22.2378 21.1589 22.8447C21.7602 22.9092 22.378 23.0101 23.0091 23.1548C22.8776 22.5222 22.7874 21.902 22.7345 21.3001Z" fill="#6C2383"/>
<path d="M57.5148 59.994C58.1202 60.1097 58.7149 60.1916 59.2963 60.2387C59.2624 59.6566 59.1938 59.0604 59.092 58.4518C58.4907 58.3865 57.8729 58.2831 57.2427 58.1376C57.3734 58.771 57.4627 59.392 57.5148 59.994Z" fill="#6C2383"/>
<path d="M17.2245 40.2137C17.2369 39.5299 17.2758 38.8518 17.3477 38.1837C16.3833 38.6327 15.4819 39.1421 14.6548 39.6961C15.1469 40.0731 15.6787 40.4337 16.2436 40.7719C16.5604 40.5784 16.8879 40.3923 17.2245 40.2137Z" fill="#6C2383"/>
<path d="M65.8628 22.4767L65.7752 22.3932C64.2625 21.1355 61.9218 20.6129 59.2653 20.8138C59.2396 21.3943 59.1792 21.9897 59.085 22.5966C61.3826 22.3643 63.3874 22.7306 64.6073 23.7162C64.8141 23.9345 65.6428 24.7738 66.9066 25.6148C67.0836 24.926 67.1787 24.2636 67.1861 23.6426C66.3632 23.0125 65.8736 22.4883 65.8628 22.4767Z" fill="#6C2383"/>
<path d="M57.2447 22.8985C57.3663 22.2667 57.4465 21.6482 57.4887 21.0495C56.2208 21.2868 54.9116 21.6779 53.604 22.2196C54.1515 22.6214 54.6784 23.0489 55.187 23.4971C55.8801 23.2515 56.5682 23.0506 57.2447 22.8985Z" fill="#6C2383"/>
<path d="M9.56002 54.1147C10.0802 53.0794 10.4144 51.9218 10.6286 50.8592C10.0456 50.5781 9.50133 50.2688 9.00509 49.9323C8.77268 51.3454 8.3211 53.0364 7.44358 54.2098L6.50732 55.4609L8.06222 55.6147C9.15064 55.7222 10.2747 56.1836 11.2663 56.7261C11.3316 56.1423 11.4548 55.5403 11.6277 54.9275C10.976 54.6034 10.2779 54.314 9.56002 54.1147Z" fill="#6C2383"/>
<path d="M70.6012 27.2984C70.0305 28.3345 69.6807 29.3921 69.4656 30.3563C70.0471 30.63 70.5888 30.9334 71.0867 31.2617C71.3051 30.0147 71.774 28.5131 72.764 27.1901L73.7002 25.939L72.1453 25.7852C70.9337 25.6653 69.8155 25.2394 68.8685 24.7317C68.7932 25.3122 68.6642 25.9084 68.4839 26.5161C69.1315 26.8304 69.8395 27.1065 70.6012 27.2984Z" fill="#6C2383"/>
<path d="M62.9325 41.0786C62.9201 41.7625 62.8812 42.4397 62.8101 43.107C63.7934 42.6506 64.7123 42.1313 65.5535 41.5649C65.0605 41.1895 64.5287 40.8297 63.963 40.4924C63.6313 40.6966 63.2873 40.8918 62.9325 41.0786Z" fill="#6C2383"/>
<path d="M69.1638 33.9896C69.0397 35.7559 67.6684 37.7289 65.5396 39.3984C66.0614 39.7391 66.5535 40.0979 67.0134 40.4717C69.3474 38.521 70.8096 36.2041 70.9287 34.0277L70.9321 33.9599L70.9255 33.8945C70.9246 33.8855 70.9064 33.6705 70.9056 33.3116C70.4126 32.899 69.8346 32.5211 69.187 32.1829C69.1117 33.0949 69.1464 33.7647 69.1638 33.9896Z" fill="#6C2383"/>
<path d="M14.3767 58.9231C15.6802 59.9964 17.5899 60.5323 19.7866 60.5323C20.1472 60.5323 20.5185 60.5124 20.8932 60.4835C20.918 59.9038 20.9776 59.3076 21.0702 58.7007C18.7561 58.938 16.7355 58.57 15.5131 57.5753C15.3584 57.4355 14.4726 56.6516 13.2105 55.8371C13.0451 56.5276 12.9633 57.1899 12.9724 57.8093C13.7887 58.3947 14.3188 58.8727 14.3411 58.8933L14.3767 58.9231Z" fill="#6C2383"/>
<path d="M14.6663 41.8625C14.1444 41.5202 13.6532 41.1605 13.1942 40.7859C10.8353 42.7482 9.36232 45.0841 9.25315 47.2754L9.25234 47.3176C9.25234 47.3275 9.25066 47.5433 9.22998 47.8981C9.71051 48.3099 10.2737 48.6894 10.9081 49.0293C11.0032 48.1346 11.014 47.4896 11.0148 47.3457C11.1132 45.558 12.5002 43.5544 14.6663 41.8625Z" fill="#6C2383"/>
<path d="M22.9106 58.3972C22.7899 59.029 22.7104 59.6475 22.6699 60.2453C23.9362 60.0064 25.2438 59.6153 26.5472 59.0736C26.0005 58.6718 25.4737 58.2443 24.9651 57.7961C24.2745 58.0425 23.5863 58.2443 22.9106 58.3972Z" fill="#6C2383"/>
<path d="M10.9081 49.0293C10.2737 48.6894 9.70969 48.3107 9.22999 47.8981C9.2027 48.376 9.1415 49.107 9.00586 49.9331C9.5021 50.2696 10.0463 50.5789 10.6294 50.86C10.7634 50.1944 10.851 49.5668 10.9081 49.0293Z" fill="#6C2383"/>
<path d="M69.187 32.1821C69.8354 32.5203 70.4135 32.899 70.9056 33.3108C70.9056 32.8361 70.9379 32.1085 71.0859 31.2617C70.588 30.9334 70.0463 30.63 69.4649 30.3563C69.316 31.0244 69.2317 31.6454 69.187 32.1821Z" fill="#6C2383"/>
<path d="M13.2115 55.8363C12.7318 55.527 12.1984 55.2137 11.6285 54.9292C11.4548 55.5419 11.3324 56.1439 11.2671 56.7277C11.9064 57.0783 12.4903 57.462 12.9733 57.8085C12.9642 57.1891 13.0461 56.5276 13.2115 55.8363Z" fill="#6C2383"/>
<path d="M66.9072 25.614C67.3753 25.9257 67.9047 26.235 68.4828 26.5153C68.6631 25.9083 68.7921 25.3113 68.8674 24.7309C68.2173 24.3827 67.6499 23.9949 67.1868 23.641C67.1793 24.2628 67.0842 24.926 66.9072 25.614Z" fill="#6C2383"/>
<path d="M14.6549 39.696C14.1372 40.0433 13.6492 40.408 13.1943 40.7859C13.6534 41.1605 14.1446 41.5202 14.6665 41.8625C15.1545 41.4813 15.6822 41.115 16.2446 40.7718C15.6788 40.4336 15.147 40.0731 14.6549 39.696Z" fill="#6C2383"/>
<path d="M65.5534 41.5649C66.0703 41.2168 66.5582 40.8513 67.0131 40.4709C66.5533 40.098 66.0612 39.7391 65.5393 39.3976C65.0513 39.7804 64.5245 40.1476 63.9629 40.4916C64.5286 40.8298 65.0604 41.1895 65.5534 41.5649Z" fill="#6C2383"/>
<path d="M40.1023 15.6953C39.745 15.1653 39.3679 14.6733 38.9783 14.2259C38.1695 15.3398 37.4458 16.619 36.8486 18.0197C37.5169 17.9255 38.1935 17.8552 38.8791 17.8196C39.2488 17.0614 39.6607 16.3494 40.1023 15.6953Z" fill="#6C2383"/>
<path d="M45.7956 9.63085L45.7352 9.62755L45.6748 9.63251C43.7833 9.78631 41.8174 10.9622 40.1021 12.8425C40.4908 13.2692 40.8671 13.7306 41.226 14.2259C42.6585 12.5837 44.2713 11.5369 45.765 11.3946C46.066 11.4062 47.2421 11.4269 48.7309 11.1449C48.376 10.5289 47.9815 9.98807 47.5523 9.53906C46.5259 9.66392 45.8113 9.63168 45.7956 9.63085Z" fill="#6C2383"/>
<path d="M56.7114 24.9715C57.1762 25.4643 57.6196 25.9786 58.0397 26.5112C58.5393 25.1906 58.8874 23.8709 59.0851 22.5966C58.488 22.657 57.8726 22.757 57.2449 22.8984C57.1142 23.579 56.9356 24.2728 56.7114 24.9715Z" fill="#6C2383"/>
<path d="M27.6852 71.6135C27.4387 70.8429 27.0856 70.0945 26.6944 69.4024C26.0873 69.6009 25.4885 69.7447 24.9062 69.8365C25.5332 70.8553 26.089 72.0303 26.2395 73.1623L26.4454 74.7111L27.6645 73.7337C28.5156 73.0515 29.6387 72.5951 30.7255 72.2899C30.3632 71.8269 30.0299 71.3109 29.7248 70.7511C29.0325 70.9735 28.3344 71.2555 27.6852 71.6135Z" fill="#6C2383"/>
<path d="M56.2087 15.5515C57.2252 16.7472 57.6503 18.7449 57.489 21.0495C58.0928 20.9362 58.6866 20.8577 59.2655 20.8138C59.3846 18.1504 58.7933 15.8235 57.4965 14.345L57.3997 14.2507C57.3881 14.2408 56.9233 13.8456 56.3394 13.1435C55.7166 13.1675 55.0558 13.2816 54.3701 13.4776C55.1922 14.6253 55.9837 15.3555 56.2087 15.5515Z" fill="#6C2383"/>
<path d="M52.5553 9.76483C52.7753 10.5562 53.0788 11.2797 53.4179 11.9305C54.02 11.7337 54.613 11.589 55.1903 11.4972C54.6585 10.5711 54.1937 9.44647 54.025 8.1747L53.819 6.62592L52.5999 7.60332C51.648 8.36654 50.548 8.84448 49.5142 9.14382C49.8657 9.61185 50.1915 10.1295 50.4876 10.6901C51.1716 10.4619 51.8746 10.1609 52.5553 9.76483Z" fill="#6C2383"/>
<path d="M40.1021 65.5284C40.4569 66.0626 40.8323 66.5579 41.221 67.0102C42.0101 65.9104 42.7172 64.6527 43.3019 63.2784C42.6345 63.3726 41.9588 63.4421 41.2732 63.4777C40.9167 64.207 40.5239 64.895 40.1021 65.5284Z" fill="#6C2383"/>
<path d="M22.6702 60.2453C22.0664 60.3586 21.4726 60.4388 20.8936 60.4835C20.7795 63.1453 21.3775 65.468 22.6818 66.9407L22.7099 66.9713C22.7215 66.9837 23.1738 67.4526 23.752 68.1902C24.3706 68.1687 25.029 68.0579 25.7105 67.8652C24.8842 66.7051 24.1242 65.8988 23.9894 65.7583C22.9506 64.5725 22.5122 62.5664 22.6702 60.2453Z" fill="#6C2383"/>
<path d="M23.4415 56.3217C22.9758 55.828 22.5334 55.3137 22.1124 54.7803C21.6137 56.1042 21.2663 57.4264 21.0703 58.7015C21.6675 58.6403 22.282 58.5402 22.9097 58.398C23.0404 57.7158 23.2182 57.0212 23.4415 56.3217Z" fill="#6C2383"/>
<path d="M34.4912 71.6813C36.3976 71.5176 38.3793 70.3153 40.1021 68.4035C39.715 67.9735 39.3412 67.508 38.9839 67.0094C37.5291 68.7029 35.8823 69.7836 34.3614 69.9225C34.1521 69.9308 32.9653 69.9887 31.4873 70.2913C31.852 70.9008 32.2573 71.4308 32.6965 71.8674C33.7055 71.7119 34.4276 71.6838 34.4458 71.683L34.4912 71.6813Z" fill="#6C2383"/>
<path d="M54.3694 13.4776C55.0543 13.2816 55.7159 13.1683 56.3387 13.1435C55.9748 12.7069 55.5662 12.1521 55.1899 11.4972C54.6118 11.5889 54.0188 11.7336 53.4175 11.9304C53.7177 12.5076 54.0461 13.0244 54.3694 13.4776Z" fill="#6C2383"/>
<path d="M25.7109 67.8644C25.0294 68.057 24.3711 68.1679 23.7524 68.1894C24.113 68.6491 24.5225 69.2131 24.9062 69.8357C25.4893 69.7439 26.0873 69.5992 26.6943 69.4016C26.3784 68.8443 26.0401 68.3274 25.7109 67.8644Z" fill="#6C2383"/>
<path d="M31.4872 70.2922C30.929 70.4063 30.3302 70.556 29.7256 70.7503C30.0308 71.3093 30.3649 71.8252 30.7264 72.2891C31.4252 72.0932 32.1092 71.9584 32.6964 71.8682C32.2572 71.4325 31.852 70.9016 31.4872 70.2922Z" fill="#6C2383"/>
<path d="M48.7308 11.1449C49.2825 11.0407 49.878 10.8935 50.4875 10.6901C50.1914 10.1295 49.8656 9.61182 49.5141 9.1438C48.8061 9.34804 48.1304 9.46877 47.5522 9.53905C47.9807 9.98806 48.376 10.5289 48.7308 11.1449Z" fill="#6C2383"/>
<path d="M41.226 14.2259C40.8671 13.7306 40.4907 13.2692 40.102 12.8425C39.7133 13.2692 39.337 13.7306 38.978 14.2259C39.3684 14.6733 39.7447 15.1653 40.102 15.6953C40.4593 15.1653 40.8356 14.6733 41.226 14.2259Z" fill="#6C2383"/>
<path d="M38.9834 67.0102C39.3407 67.508 39.7145 67.9743 40.1016 68.4043C40.4887 67.9743 40.8625 67.5088 41.2206 67.0102C40.8319 66.5579 40.4572 66.0626 40.1016 65.5284C39.7476 66.0626 39.3721 66.5579 38.9834 67.0102Z" fill="#6C2383"/>
<path d="M59.0848 22.5966C59.1791 21.9897 59.2395 21.3943 59.2652 20.8138C58.6862 20.8577 58.0924 20.9362 57.4886 21.0495C57.4464 21.6482 57.3662 22.2667 57.2446 22.8985C57.8724 22.7571 58.4885 22.657 59.0848 22.5966Z" fill="#6C2383"/>
<path d="M21.071 58.7007C20.9776 59.3076 20.9189 59.9038 20.894 60.4835C21.473 60.4388 22.0668 60.3594 22.6706 60.2453C22.7111 59.6467 22.7905 59.029 22.9112 58.3972C22.2827 58.5394 21.6673 58.6395 21.071 58.7007Z" fill="#6C2383"/>
</svg>
