<svg width="81" height="80" viewBox="0 0 81 80" fill="none" xmlns="http://www.w3.org/2000/svg">
<path d="M40.0627 69.7945C20.8798 69.7945 5.27441 56.4282 5.27441 39.9995C5.27441 23.5709 20.8808 10.2046 40.0627 10.2046C59.2457 10.2046 74.851 23.5709 74.851 39.9995C74.851 56.4282 59.2457 69.7945 40.0627 69.7945ZM40.0627 12.4019C22.295 12.4019 7.83995 24.7821 7.83995 39.9995C7.83995 55.217 22.295 67.5972 40.0627 67.5972C57.8305 67.5972 72.2855 55.217 72.2855 39.9995C72.2855 24.7821 57.8305 12.4019 40.0627 12.4019Z" fill="#F28C00"/>
<path d="M40.0626 63.8832C24.6863 63.8832 12.1763 53.1688 12.1763 39.9995C12.1763 26.8302 24.6863 16.1158 40.0626 16.1158C55.439 16.1158 67.949 26.8302 67.949 39.9995C67.949 53.1688 55.439 63.8832 40.0626 63.8832ZM40.0626 18.314C26.1015 18.314 14.7429 28.0423 14.7429 39.9995C14.7429 51.9567 26.1015 61.685 40.0626 61.685C54.0238 61.685 65.3824 51.9567 65.3824 39.9995C65.3824 28.0423 54.0238 18.314 40.0626 18.314Z" fill="#F28C00"/>
<path d="M40.0626 54.0682C27.846 54.0682 17.9067 45.5556 17.9067 35.0925C17.9067 24.6294 27.846 16.1168 40.0626 16.1168C52.2793 16.1168 62.2185 24.6294 62.2185 35.0925C62.2195 45.5556 52.2803 54.0682 40.0626 54.0682ZM40.0626 18.3141C29.2612 18.3141 20.4733 25.8405 20.4733 35.0916C20.4733 44.3426 29.2612 51.87 40.0626 51.87C50.864 51.87 59.6519 44.3435 59.6519 35.0916C59.6519 25.8396 50.8651 18.3141 40.0626 18.3141Z" fill="#F28C00"/>
<path d="M49.5343 71.8652C49.0098 72.0189 43.3458 73.7236 40.1059 76.4767C36.865 73.7462 31.1176 72.009 30.6057 71.8571C28.075 71.0129 26.0319 68.9277 24.8784 66.2423C24.0489 66.4963 23.2152 66.6979 22.3867 66.847C23.7724 70.2094 26.377 72.817 29.7034 73.9161L29.7509 73.9306C29.8195 73.9505 36.6592 75.9751 39.0738 78.7934L40.108 80L41.1423 78.7934C43.5917 75.9353 50.3174 73.9595 50.385 73.9396L50.4377 73.9233C53.7589 72.8206 56.3603 70.2094 57.7428 66.8479C56.9144 66.6997 56.0817 66.4981 55.2522 66.2441C54.1019 68.9295 52.0619 71.0174 49.5343 71.8652Z" fill="#F28C00"/>
<path d="M21.6973 64.7076C22.0149 64.6542 22.3326 64.5928 22.6513 64.5214C22.2714 64.3234 21.8967 64.1173 21.5273 63.9067C21.5759 64.177 21.6339 64.4436 21.6973 64.7076Z" fill="#F28C00"/>
<path d="M22.6817 15.4615C22.3556 15.3901 22.0295 15.3268 21.7045 15.2744C21.6391 15.5437 21.58 15.8158 21.5293 16.0915C21.9092 15.8746 22.2923 15.6639 22.6817 15.4615Z" fill="#F28C00"/>
<path d="M58.6042 16.096C58.5546 15.8185 58.4944 15.5446 58.43 15.2726C58.1018 15.3259 57.7736 15.3892 57.4443 15.4615C57.8369 15.6657 58.2221 15.8782 58.6042 16.096Z" fill="#F28C00"/>
<path d="M57.4746 64.5214C57.7944 64.5928 58.1131 64.6551 58.4307 64.7085C58.4941 64.4436 58.5521 64.1761 58.6007 63.9049C58.2302 64.1164 57.8556 64.3225 57.4746 64.5214Z" fill="#F28C00"/>
<path d="M30.5805 8.1655C31.3277 7.99105 36.7458 6.64881 40.2137 3.56031C43.6699 6.69401 48.8284 7.96213 49.5925 8.13657C52.0905 8.99615 54.1062 11.0714 55.2481 13.7342C56.0808 13.4829 56.9155 13.285 57.7461 13.1404C56.3657 9.78341 53.7717 7.17305 50.4589 6.06672L50.307 6.02515C50.2468 6.01159 44.2208 4.66935 41.2542 1.20665L40.22 0L39.1858 1.20665C36.2899 4.58619 29.9241 6.04232 29.8618 6.05588L29.7246 6.09294C26.3971 7.18481 23.7904 9.78522 22.3984 13.1422C23.2279 13.2877 24.0616 13.4856 24.8943 13.7369C26.0436 11.0768 28.0709 9.01151 30.5805 8.1655Z" fill="#F28C00"/>
<path d="M55.5648 14.5549C55.4677 14.2756 55.3621 14.0017 55.2482 13.7342C54.9442 13.8264 54.6403 13.9258 54.3374 14.0325C54.75 14.1988 55.1595 14.3732 55.5648 14.5549Z" fill="#F28C00"/>
<path d="M80.0631 19.3897L78.3218 19.2568C73.4461 18.8853 68.695 14.9761 68.6485 14.9372L68.5398 14.8559C65.7347 12.9894 61.8025 12.4317 57.7437 13.1404C58.0244 13.8219 58.2534 14.5359 58.4286 15.2726C61.6727 14.7447 64.7743 15.1605 66.9125 16.5579C67.4729 17.0152 71.6214 20.289 76.5013 21.2299C75.161 25.385 76.5668 29.8211 76.7873 30.471C77.2654 32.9684 75.9821 35.7984 73.4957 38.1512C73.5105 38.3554 73.5242 38.5606 73.5337 38.7658C74.0688 39.149 74.5711 39.5512 75.0428 39.967C78.3334 37.0403 79.985 33.3797 79.3043 30.0327L79.2663 29.8989C79.2484 29.8474 77.4606 24.7568 79.3909 20.7717L80.0631 19.3897Z" fill="#F28C00"/>
<path d="M13.1082 63.4349C12.6818 63.1294 8.04675 59.8637 3.61959 58.9147C4.6686 55.1257 3.42752 50.0143 3.31354 49.5615C2.79748 47.037 4.0945 44.1654 6.62521 41.7865C6.61044 41.5831 6.59777 41.3788 6.58827 41.1736C6.05321 40.7886 5.55192 40.3855 5.08229 39.967C1.75374 42.9091 0.0894653 46.5968 0.790213 49.9664L0.799714 50.0098C1.23346 51.6991 2.07245 56.6722 0.771211 59.3585L0.101074 60.7414L1.84238 60.8742C5.96561 61.1879 11.4217 65.0926 11.4766 65.1323L11.5199 65.1622C13.543 66.4972 16.1476 67.1597 18.9622 67.1597C20.0787 67.1597 21.228 67.053 22.3857 66.8452C22.1039 66.1618 21.8738 65.446 21.6965 64.7066C18.4144 65.2598 15.2663 64.8494 13.1082 63.4349Z" fill="#F28C00"/>
<path d="M24.5693 65.4478C24.6633 65.7181 24.7667 65.9829 24.8786 66.2423C25.1709 66.1528 25.4632 66.0561 25.7545 65.9531C25.3556 65.7913 24.9598 65.6223 24.5693 65.4478Z" fill="#F28C00"/>
<path d="M24.5693 65.4478C23.9171 65.1559 23.2776 64.8476 22.6518 64.5213C22.3331 64.5927 22.0154 64.6542 21.6978 64.7075C21.8751 65.4478 22.1051 66.1628 22.3869 66.8461C23.2153 66.6978 24.048 66.4963 24.8785 66.2414C24.7667 65.9829 24.6633 65.7181 24.5693 65.4478Z" fill="#F28C00"/>
<path d="M55.5647 14.5549C56.2032 14.8405 56.8311 15.1424 57.4443 15.4615C57.7736 15.3892 58.1028 15.3259 58.43 15.2726C58.2537 14.535 58.0247 13.8219 57.7451 13.1404C56.9145 13.285 56.0797 13.4829 55.2471 13.7342C55.3621 14.0018 55.4676 14.2756 55.5647 14.5549Z" fill="#F28C00"/>
<path d="M73.5379 41.1736C73.5284 41.3788 73.5157 41.5831 73.501 41.7865C76.0317 44.1654 77.3276 47.037 76.8126 49.5615C76.6987 50.0152 75.4565 55.1257 76.5066 58.9147C72.0784 59.8628 67.4444 63.1294 67.018 63.4349C64.8598 64.8494 61.7128 65.2589 58.4307 64.7075C58.2544 65.4469 58.0244 66.1628 57.7437 66.847C58.9003 67.054 60.0485 67.1597 61.163 67.1597C63.9765 67.1597 66.5822 66.4972 68.6052 65.1622L68.6485 65.1323C68.7034 65.0926 74.1606 61.1888 78.2827 60.8742L80.024 60.7414L79.3539 59.3585C77.7899 56.129 79.3096 50.0704 79.3254 50.0089L79.3349 49.9664C80.0367 46.5968 78.3714 42.9082 75.0428 39.967C74.5743 40.3855 74.073 40.7886 73.5379 41.1736Z" fill="#F28C00"/>
<path d="M24.8919 13.7369C24.7768 14.0018 24.6713 14.272 24.5742 14.5486C24.9752 14.3696 25.3794 14.197 25.79 14.0316C25.4913 13.9267 25.1916 13.8282 24.8919 13.7369Z" fill="#F28C00"/>
<path d="M55.2523 66.2432C55.3642 65.9829 55.4665 65.7163 55.5615 65.4451C55.1689 65.6205 54.7721 65.7904 54.3711 65.9531C54.6645 66.0561 54.9579 66.1538 55.2523 66.2432Z" fill="#F28C00"/>
<path d="M6.59028 38.7667C6.60083 38.5616 6.61349 38.3564 6.62827 38.1521C4.14188 35.7993 2.85753 32.9694 3.3356 30.472C3.55617 29.8221 4.96189 25.3859 3.62266 21.2309C8.50256 20.29 12.6511 17.0153 13.2115 16.5588C15.3517 15.1605 18.4576 14.7457 21.7049 15.2753C21.8833 14.5378 22.1133 13.8246 22.3962 13.144C18.332 12.4318 14.3935 12.9885 11.5852 14.8577L11.4776 14.9382C11.4301 14.978 6.67893 18.8872 1.8043 19.2586L0.0629883 19.3915L0.733125 20.7744C2.6549 24.7415 0.875592 29.8519 0.857652 29.9016L0.820727 30.0354C0.140031 33.3824 1.79164 37.0431 5.08219 39.9698C5.55182 39.5513 6.05417 39.15 6.59028 38.7667Z" fill="#F28C00"/>
<path d="M22.6818 15.4615C23.2992 15.1397 23.9314 14.836 24.5741 14.5486C24.6712 14.2729 24.7767 14.0017 24.8917 13.7369C24.0601 13.4847 23.2264 13.2877 22.3958 13.1422C22.113 13.8237 21.8829 14.5368 21.7046 15.2735C22.0296 15.3268 22.3547 15.3891 22.6818 15.4615Z" fill="#F28C00"/>
<path d="M57.4745 64.5213C56.8508 64.8476 56.2123 65.1549 55.5612 65.446C55.4662 65.7172 55.3638 65.9838 55.252 66.2441C56.0815 66.4981 56.9152 66.6996 57.7426 66.8479C58.0243 66.1637 58.2533 65.4478 58.4296 64.7084C58.1119 64.6542 57.7943 64.5927 57.4745 64.5213Z" fill="#F28C00"/>
<path d="M6.5871 41.1737C6.5681 40.7841 6.5565 40.3927 6.5565 39.9996C6.5565 39.5865 6.56916 39.1752 6.58921 38.7667C6.05415 39.1499 5.55076 39.5521 5.08008 39.9679C5.55076 40.3855 6.0531 40.7886 6.5871 41.1737Z" fill="#F28C00"/>
<path d="M73.5361 38.7667C73.5562 39.1761 73.5689 39.5865 73.5689 39.9996C73.5689 40.3936 73.5572 40.7841 73.5382 41.1737C74.0733 40.7886 74.5746 40.3855 75.0442 39.967C74.5735 39.5512 74.0712 39.1499 73.5361 38.7667Z" fill="#F28C00"/>
<path d="M6.5874 41.1736C6.5969 41.3788 6.60851 41.5831 6.62434 41.7865C6.7436 41.6744 6.86497 41.5641 6.9895 41.4538C6.85442 41.3616 6.71932 41.2686 6.5874 41.1736Z" fill="#F28C00"/>
<path d="M73.536 38.7667C73.5254 38.5615 73.5127 38.3563 73.498 38.1521C73.3787 38.2641 73.2573 38.3762 73.1328 38.4865C73.2679 38.5787 73.403 38.6718 73.536 38.7667Z" fill="#F28C00"/>
<path d="M22.6514 64.5213C23.2772 64.8476 23.9167 65.1558 24.5689 65.4478C24.417 65.0139 24.2882 64.5665 24.1827 64.1092C23.6729 64.2691 23.1622 64.4065 22.6514 64.5213Z" fill="#F28C00"/>
<path d="M57.444 15.4615C56.8309 15.1424 56.2029 14.8405 55.5645 14.5549C55.7122 14.9797 55.8357 15.4163 55.938 15.8628C56.4393 15.7082 56.9427 15.5717 57.444 15.4615Z" fill="#F28C00"/>
<path d="M73.5014 41.7865C73.5161 41.5831 73.5278 41.3788 73.5383 41.1736C73.4064 41.2686 73.2724 41.3616 73.1362 41.4538C73.2608 41.5641 73.3832 41.6744 73.5014 41.7865Z" fill="#F28C00"/>
<path d="M6.62832 38.1511C6.61354 38.3554 6.59983 38.5606 6.59033 38.7657C6.72331 38.6708 6.85734 38.5777 6.99348 38.4846C6.86895 38.3753 6.74757 38.2641 6.62832 38.1511Z" fill="#F28C00"/>
<path d="M24.5744 14.5486C23.9317 14.836 23.2995 15.1397 22.6821 15.4615C23.1855 15.5727 23.6889 15.7082 24.1923 15.8637C24.2968 15.4145 24.4245 14.9752 24.5744 14.5486Z" fill="#F28C00"/>
<path d="M55.561 65.4451C56.2111 65.154 56.8496 64.8467 57.4744 64.5204C56.9646 64.4065 56.4549 64.2691 55.9452 64.1092C55.8396 64.5665 55.7119 65.0121 55.561 65.4451Z" fill="#F28C00"/>
</svg>
