<?xml version="1.0" standalone="no"?>
<!DOCTYPE svg PUBLIC "-//W3C//DTD SVG 20010904//EN"
 "http://www.w3.org/TR/2001/REC-SVG-20010904/DTD/svg10.dtd">
<svg version="1.0" xmlns="http://www.w3.org/2000/svg"
 width="1155.000000pt" height="1280.000000pt" viewBox="0 0 1155.000000 1280.000000"
 preserveAspectRatio="xMidYMid meet">
<g transform="translate(0.000000,1280.000000) scale(0.100000,-0.100000)"
fill="#000000" stroke="none">
<path d="M5033 12416 c-412 -79 -723 -402 -784 -816 -32 -225 24 -480 148
-667 51 -78 174 -206 250 -259 130 -93 305 -158 469 -172 479 -44 900 254
1031 730 14 49 18 102 18 233 0 196 -14 263 -89 420 -52 109 -111 189 -208
281 -123 116 -233 179 -405 230 -109 32 -315 42 -430 20z"/>
<path d="M2886 10804 c-25 -25 -19 -54 33 -161 106 -216 265 -427 506 -669
655 -656 1503 -1063 2430 -1166 181 -20 673 -17 855 6 483 59 1038 217 1425
407 63 30 70 37 73 66 5 47 -60 229 -129 368 -132 263 -307 493 -590 778 -180
181 -210 207 -238 207 -23 0 -57 -20 -135 -77 -433 -322 -922 -518 -1456 -585
-135 -17 -561 -17 -700 0 -616 75 -1210 300 -1765 667 -77 51 -166 111 -199
134 -64 44 -86 50 -110 25z"/>
<path d="M2393 8485 c-433 -49 -824 -168 -1213 -368 -121 -63 -298 -169 -331
-200 -40 -37 -12 -128 96 -312 260 -445 617 -827 918 -981 l72 -36 215 111
c250 128 373 181 566 244 277 90 481 123 713 114 342 -12 598 -120 822 -347
209 -212 358 -540 359 -788 0 -68 -3 -84 -17 -89 -9 -4 -177 8 -372 25 -687
61 -1015 77 -1426 69 -498 -11 -813 -57 -1075 -158 -108 -41 -144 -67 -148
-106 -7 -69 110 -328 227 -502 171 -255 472 -558 649 -654 l49 -27 99 24 c521
126 1071 185 1464 157 524 -38 899 -177 1162 -429 220 -211 328 -468 328 -777
0 -206 -43 -390 -135 -583 -175 -365 -449 -636 -830 -822 -346 -169 -681 -223
-1180 -190 -480 32 -892 135 -1260 315 -278 136 -482 282 -705 505 -275 275
-448 529 -725 1065 -115 223 -174 326 -208 362 -22 25 -66 30 -85 11 -15 -15
-15 -98 -1 -226 122 -1129 804 -2239 1774 -2887 516 -344 1051 -538 1710 -617
171 -20 678 -17 830 5 461 69 822 225 1145 495 510 427 821 1146 856 1977 14
350 -46 758 -151 1025 -19 48 -35 90 -35 93 0 3 36 31 81 62 172 121 311 279
400 458 74 146 124 307 169 543 23 115 54 277 70 359 72 373 165 583 342 769
146 155 343 278 523 326 120 33 311 38 435 12 258 -54 484 -183 690 -392 126
-128 215 -255 300 -425 107 -214 149 -363 171 -597 34 -351 -82 -788 -293
-1111 -315 -479 -864 -808 -1540 -922 -110 -18 -157 -30 -165 -42 -34 -45 4
-271 73 -433 133 -318 438 -644 830 -891 102 -65 307 -169 332 -169 8 0 71 16
141 36 481 137 893 375 1221 703 454 455 722 1051 796 1771 20 200 15 617 -11
800 -87 632 -285 1171 -610 1666 -450 682 -1096 1154 -1841 1345 -404 103
-720 110 -1019 24 -358 -103 -700 -346 -940 -667 -177 -235 -256 -428 -415
-1010 -50 -180 -106 -370 -125 -423 -97 -267 -202 -384 -346 -385 -67 0 -69 2
-69 103 0 110 -18 295 -45 471 -210 1355 -1152 2300 -2500 2507 -182 27 -625
35 -812 14z"/>
</g>
</svg>
