<?xml version="1.0" encoding="utf-8"?>

<!DOCTYPE svg PUBLIC "-//W3C//DTD SVG 1.1//EN" "http://www.w3.org/Graphics/SVG/1.1/DTD/svg11.dtd">
<svg version="1.1" id="Layer_1" xmlns="http://www.w3.org/2000/svg" xmlns:xlink="http://www.w3.org/1999/xlink" x="0px" y="0px"
	 viewBox="0 0 1107.615 1792.068" enable-background="new 0 0 1107.615 1792.068" xml:space="preserve">
<path d="M543.803,98.703c9.089-0.809,18.15-1.942,27.244-2.67c1.18,13.177,1.57,26.44,3.488,39.546
	c34.576,214.339,6.564,155.892,182.476,308.728c33.969,29.739,47.381,40.95,103.233,101.915c5.806,7.6,7.438,17.679,6.691,27.025
	c-8.012,208.202-84.393,318.748-94.543,369.007c-5.056,24.306-5.242,43.476-10.974,80.319
	c-49.883,330.356-53.344,322.991-40.345,346.593c3.486,5.727,1.954,11.597-4.764,43.043c1.071,0.628,2.099,1.337,3.069,2.137
	c99.568-72.938,75.612-53.991,82.618-61.165c29.026-33.767,75.291-37.771,113.222-55.221c26.615-11.621,57.873,5.105,76.655,27.911
	c9.052,11.353,17.783,26.203,12.982,57.915c-2.202,14.408-15.353,59.423-16.732,60.389c-1.609,1.099-3.545,1.566-5.354,2.241
	c-1.541,11.835,4.381,9.976-15.985,43.462c-57.603,92.46-152.31,163.69-170.798,174.734
	c-79.849,49.242-212.628,15.771-317.017,26.844c-29.686,2.702-126.115,30.92-247.315-95.057
	c-80.983-84.048-114.291-163.042-129.154-242.899c-5.463-31.405,12.055-53.783,38.375-71.301
	c70.713-47.23,206.268,106.528,229.327,120.255c53.081-76.444-31.791-307.475-34.449-424.105
	c0.449-102.701-51.162-120.092-84.626-263.305c-41.008-175.026-9.318-178.667,26.469-212.714
	c15.232-14.273,15.258-17.512,34.273-31.874c1.002-0.777,68.226-59.232,70.145-61.636c31.316-34.178,27.66-14.888,79.115-60.342
	c46.688-40.482,42.708-72.96,46.346-90.769C507.474,257.709,532.42,159.87,543.803,98.703 M346.308,558.718
	c-43.082,47.71-1.892,68.991,12.858,128.711c2.848,10.939,5.378,39.705,22.709,69.674c4.93,9.081,3.007,5.115,4.511,15.48
	c3.921,2.379,8.361,4.026,11.721,7.248c71.758,85.533,60.928,84.973,85.159,77.697c13.119-3.456-9.314-77.875-16.051-88.59
	c-15.741-26.444-21.877,2.971-44.314-60.86c-5.725-19.37,0.759-35.023-2.594-52.951c-10.877-66.745,41.48-117.388,70.054-132.728
	c19.109-10.263,40.532-12.296,64.372-3.227c9.63,3.833,18.305-1.147,28.539,0.971c18.189,3.267,66.793,49.887,78.225,110.904
	c3.831,21.957,8.633,44.1,7.11,66.519c-0.854,12.174-5.434,34.734-14.819,42.43c-18.679,15.378-30.016,11.495-41.011,106.907
	c-3.055,18.275,19.83,19.66,29.766,15.647c5.838-2.211,5.806,0.89,74.732-95.7c21.418-29.884,17.618-36.242,49.159-146.971
	c2.537-8.94,8.571-24.868-2.484-40.217c-113.777-156.24-184.753-223.087-212.276-250.903
	C495.435,387.179,607.102,261.815,346.308,558.718z"/>
</svg>
