<!-- fill="#8CBE2A" -->
<svg width="81" height="81" viewBox="0 0 81 81" fill="none" xmlns="http://www.w3.org/2000/svg">
<path d="M40.5416 70.6382C24.0542 70.6382 10.6416 57.2563 10.6416 40.8085C10.6416 24.3608 24.0551 10.9789 40.5416 10.9789C57.0291 10.9789 70.4416 24.3608 70.4416 40.8085C70.4416 57.2563 57.0282 70.6382 40.5416 70.6382ZM40.5416 13.1787C25.2705 13.1787 12.8466 25.5734 12.8466 40.8085C12.8466 56.0437 25.2705 68.4383 40.5416 68.4383C55.8127 68.4383 68.2366 56.0437 68.2366 40.8085C68.2357 25.5734 55.8118 13.1787 40.5416 13.1787Z" fill="#64748b"/>
<path d="M40.3201 71.2499C39.9264 71.2499 39.5618 71.0399 39.365 70.6997L14.2433 27.29C14.0465 26.9497 14.0465 26.5298 14.2433 26.1896C14.4402 25.8493 14.8039 25.6394 15.1985 25.6394H65.4418C65.8363 25.6394 66.2 25.8493 66.3969 26.1896C66.5937 26.5298 66.5937 26.9497 66.3969 27.29L41.2752 70.6997C41.0784 71.0399 40.7147 71.2499 40.3201 71.2499ZM17.1087 27.8393L40.3201 67.9478L63.5315 27.8393H17.1087Z" fill="#64748b"/>
<path d="M65.4427 56.7441H15.1994C14.8048 56.7441 14.4411 56.5341 14.2443 56.1939C14.0475 55.8536 14.0475 55.4338 14.2443 55.0935L39.3659 11.6838C39.5628 11.3435 39.9274 11.1336 40.3211 11.1336C40.7147 11.1336 41.0794 11.3435 41.2762 11.6838L66.3979 55.0935C66.5947 55.4338 66.5947 55.8536 66.3979 56.1939C66.2001 56.5341 65.8364 56.7441 65.4427 56.7441ZM17.1088 54.5433H63.5325L40.3211 14.4347L17.1088 54.5433Z" fill="#64748b"/>
<path d="M37.0688 69.3297C37.2584 69.7513 37.4552 70.1459 37.6575 70.5142C37.9287 70.1857 38.1936 69.8328 38.4539 69.4627C37.9895 69.4292 37.5278 69.3839 37.0688 69.3297Z" fill="#64748b"/>
<path d="M44.1071 12.2983C43.9193 11.8775 43.7243 11.4811 43.5239 11.111C43.2454 11.4404 42.9742 11.7924 42.7075 12.1598C43.1774 12.1942 43.6436 12.2412 44.1071 12.2983Z" fill="#64748b"/>
<path d="M58.805 18.2408C58.7025 18.277 58.6 18.3096 58.4966 18.3476C58.5855 18.4182 58.6744 18.4888 58.7623 18.5612C58.775 18.4544 58.7932 18.3458 58.805 18.2408Z" fill="#64748b"/>
<path d="M22.269 63.4595C22.396 63.4152 22.523 63.3708 22.6509 63.322C22.5403 63.2342 22.4305 63.1464 22.3217 63.0568C22.3044 63.1908 22.2845 63.3265 22.269 63.4595Z" fill="#64748b"/>
<path d="M32.4597 72.3982C31.5744 72.7267 30.8496 72.9493 30.2102 73.1457C28.9439 73.5348 27.9906 73.828 26.9493 74.5917C26.6028 72.9864 25.8518 71.6336 25.069 70.2219C24.8803 69.8826 24.6899 69.5378 24.5003 69.1831C23.9987 68.2411 23.7447 66.6185 23.8517 64.6232C23.2748 64.8702 22.7098 65.0738 22.1538 65.2385C22.122 67.1352 22.4068 68.7903 23.03 69.9613C23.2232 70.3242 23.4191 70.678 23.6123 71.0255C24.5883 72.7846 25.4309 74.3031 25.4826 76.2794L25.5343 78.2512L26.9103 76.835C28.2137 75.4939 29.0437 75.2388 30.6981 74.7302C31.3585 74.5275 32.1077 74.2967 33.0374 73.952C34.2665 73.4959 35.4048 72.7729 36.4643 71.7811C36.1804 71.3033 35.911 70.7911 35.6588 70.2472C34.6683 71.2571 33.6044 71.9729 32.4597 72.3982Z" fill="#64748b"/>
<path d="M48.6235 9.23601C49.4035 8.94644 50.0766 8.74825 50.6698 8.5736C51.9088 8.20802 52.9501 7.90035 54.1828 7.02078C54.4649 8.67134 55.0563 9.68394 55.7175 10.816C55.9996 11.2992 56.2917 11.7987 56.5865 12.3942C57.0826 13.395 57.3556 15.0347 57.2386 17.0735C57.8101 16.8346 58.3733 16.631 58.9266 16.4645C58.9657 14.5687 58.689 12.8946 58.0776 11.6603C57.7575 11.0133 57.4373 10.4649 57.1543 9.98165C56.3543 8.61161 55.7765 7.62254 55.684 5.35663L55.6096 3.54318L54.2835 4.78563C52.7379 6.2344 51.7818 6.51674 50.1972 6.98367C49.5786 7.16647 48.8765 7.37278 48.0439 7.68226C46.9046 8.10485 45.7889 8.84056 44.7295 9.83687C45.0089 10.312 45.2746 10.8223 45.5232 11.3644C46.5182 10.3554 47.5631 9.62874 48.6235 9.23601Z" fill="#64748b"/>
<path d="M22.2688 63.4595C20.5699 64.054 19.0025 64.2241 17.5485 63.9671C16.6188 63.8033 15.8804 63.6287 15.2292 63.4758C14.196 63.2323 13.3679 63.0369 12.4182 63.0369C12.1824 63.0369 11.9384 63.0495 11.6826 63.0758C12.1978 61.5166 12.2377 59.971 12.2785 58.3567C12.2885 57.9694 12.2985 57.5757 12.3157 57.1739C12.3602 56.1269 12.947 54.6329 14.0164 52.9996C13.396 52.9199 12.8064 52.8104 12.2459 52.6702C11.2862 54.2601 10.7084 55.8012 10.6531 57.1033C10.6359 57.5142 10.625 57.9178 10.615 58.3141C10.5642 60.3239 10.5198 62.0596 9.56103 63.7907L8.60498 65.5172L10.5107 64.9915C12.3148 64.4929 13.1602 64.6929 14.8455 65.0901C15.5185 65.2485 16.2814 65.4286 17.2582 65.6005C17.7961 65.6955 18.3449 65.7435 18.9036 65.7435C19.9476 65.7435 21.0298 65.5734 22.1536 65.2394C22.1636 64.6657 22.2007 64.0712 22.2688 63.4595Z" fill="#64748b"/>
<path d="M57.2161 17.3821C57.2234 17.2789 57.2333 17.1739 57.2397 17.0726C57.1445 17.1124 57.0474 17.1576 56.9521 17.1993C57.0392 17.2599 57.1281 17.3196 57.2161 17.3821Z" fill="#64748b"/>
<path d="M23.8793 64.2431C23.8693 64.3707 23.8593 64.4992 23.8521 64.6241C23.9682 64.5743 24.0852 64.5191 24.2022 64.4666C24.0942 64.3924 23.9863 64.3191 23.8793 64.2431Z" fill="#64748b"/>
<path d="M13.2397 51.1915C13.3976 51.2232 13.5554 51.2549 13.7178 51.282C13.6552 51.1237 13.5953 50.9644 13.5354 50.8042C13.4366 50.9327 13.3359 51.0621 13.2397 51.1915Z" fill="#64748b"/>
<path d="M67.5518 30.8273C67.6534 30.6979 67.7541 30.5676 67.8502 30.4373C67.6906 30.4057 67.5328 30.3731 67.3677 30.3459C67.4312 30.5052 67.4919 30.6663 67.5518 30.8273Z" fill="#64748b"/>
<path d="M63.5427 17.6635C64.3627 17.8083 65.043 17.9766 65.6425 18.1259C66.897 18.4363 67.951 18.696 69.4612 18.5612C68.8671 20.1267 68.8635 21.2986 68.8589 22.6089C68.8571 23.1681 68.8553 23.7464 68.8072 24.4088C68.7292 25.4919 68.1614 26.9896 67.0865 28.6347C67.697 28.718 68.2811 28.8302 68.839 28.9668C69.7868 27.3986 70.3701 25.8639 70.4671 24.5282C70.5188 23.8088 70.5215 23.1735 70.5234 22.6143C70.5288 21.0289 70.5324 19.8833 71.6018 17.8825L72.4581 16.2808L70.6839 16.6826C68.6158 17.1513 67.648 16.9115 66.0444 16.5143C65.4185 16.3586 64.7083 16.1831 63.833 16.0292C62.3708 15.7704 60.7036 15.927 58.9267 16.4627C58.9149 17.0373 58.875 17.6309 58.8052 18.2408C60.5503 17.63 62.1667 17.421 63.5427 17.6635Z" fill="#64748b"/>
<path d="M57.2163 17.3821C57.6526 17.6916 58.0789 18.0146 58.4971 18.3476C58.6014 18.3087 58.7029 18.277 58.8054 18.2408C58.8753 17.6318 58.9152 17.0373 58.927 16.4627C58.3737 16.6292 57.8104 16.8328 57.239 17.0717C57.2335 17.1739 57.2236 17.2789 57.2163 17.3821Z" fill="#64748b"/>
<path d="M23.8791 64.2432C23.4609 63.9473 23.0528 63.6387 22.6519 63.321C22.524 63.3699 22.397 63.4143 22.27 63.4586C22.202 64.0703 22.1648 64.6649 22.1548 65.2395C22.7099 65.0748 23.275 64.8712 23.8528 64.6241C23.8582 64.4992 23.8691 64.3708 23.8791 64.2432Z" fill="#64748b"/>
<path d="M14.2792 52.6122C14.1894 52.7426 14.1005 52.872 14.0171 53.0005C14.1704 53.0204 14.3273 53.0366 14.4851 53.0529C14.4162 52.9063 14.3464 52.7597 14.2792 52.6122Z" fill="#64748b"/>
<path d="M74.8476 32.5458C74.3841 32.0978 73.8589 31.5902 73.1796 31.0183C72.0702 30.0835 70.5918 29.3967 68.8393 28.9668C68.5445 29.4555 68.2144 29.9468 67.8516 30.4364C69.6094 30.7884 71.0652 31.4083 72.1074 32.2861C72.7433 32.8218 73.2467 33.3086 73.6911 33.7375C74.6191 34.6343 75.4 35.3881 76.7742 36.027C75.4717 37.083 74.8794 38.0947 74.2163 39.225C73.9333 39.7073 73.6404 40.2068 73.2657 40.7561C72.6353 41.6791 71.3383 42.7225 69.5015 43.6228C69.9913 44.002 70.4457 44.3911 70.8629 44.7902C72.5374 43.8925 73.8626 42.8292 74.6399 41.6908C75.0472 41.0945 75.3683 40.547 75.6522 40.0638C76.4549 38.6956 77.0345 37.7065 78.9656 36.5129L80.5121 35.5564L78.7761 35.0153C76.7515 34.3846 76.035 33.6923 74.8476 32.5458Z" fill="#64748b"/>
<path d="M69.2508 45.5584C69.1619 45.4806 69.0757 45.4019 68.9832 45.325C68.9642 45.4462 68.9433 45.5675 68.9233 45.6887C69.0322 45.6453 69.1438 45.6037 69.2508 45.5584Z" fill="#64748b"/>
<path d="M11.8198 36.0423C11.9123 36.1238 12.003 36.2052 12.1001 36.2848C12.12 36.1563 12.1418 36.0279 12.1636 35.8994C12.0484 35.9464 11.9341 35.9935 11.8198 36.0423Z" fill="#64748b"/>
<path d="M66.8163 29.032C66.9088 28.8989 67.0014 28.7659 67.0866 28.6347C66.9288 28.613 66.7664 28.5967 66.605 28.5786C66.6757 28.7297 66.7474 28.8799 66.8163 29.032Z" fill="#64748b"/>
<path d="M9.02711 49.2903C8.30509 48.6822 7.75452 48.1619 7.26834 47.7031C6.30596 46.7945 5.58123 46.1095 4.40297 45.5801C5.63384 44.4897 6.44565 43.1722 7.29284 41.7976C7.49602 41.4673 7.7028 41.1325 7.91959 40.794C8.49557 39.8955 9.78721 38.8765 11.5832 37.9888C11.0834 37.6087 10.6235 37.2187 10.2063 36.8178C8.5355 37.7219 7.23205 38.7842 6.5173 39.9009C6.29598 40.2475 6.08372 40.5904 5.8751 40.9289C4.81929 42.6419 3.90773 44.1205 2.20701 45.1376L0.511719 46.1521L2.4247 46.6516C4.23607 47.1248 4.86648 47.7203 6.12456 48.9075C6.62616 49.3817 7.19578 49.9192 7.95317 50.5572C9.12326 51.5426 10.5482 52.2449 12.2462 52.6702C12.5428 52.1797 12.8739 51.6856 13.2395 51.1906C11.5288 50.8477 10.1292 50.2178 9.02711 49.2903Z" fill="#64748b"/>
<path d="M66.8164 29.032C67.0114 29.4645 67.1956 29.9016 67.3688 30.345C67.533 30.3721 67.6917 30.4047 67.8514 30.4364C68.2151 29.9459 68.5443 29.4546 68.8391 28.9668C68.2813 28.8302 67.6981 28.718 67.0867 28.6347C67.0005 28.7659 66.908 28.8989 66.8164 29.032Z" fill="#64748b"/>
<path d="M14.2789 52.6123C14.0811 52.1743 13.8943 51.7309 13.7183 51.282C13.555 51.2549 13.3981 51.2232 13.2403 51.1916C12.8748 51.6856 12.5428 52.1806 12.2471 52.6711C12.8076 52.8114 13.3972 52.9208 14.0176 53.0005C14.1011 52.8711 14.1891 52.7417 14.2789 52.6123Z" fill="#64748b"/>
<path d="M62.9749 59.4C62.9304 59.2634 62.8878 59.1277 62.8379 58.9901C62.7417 59.1078 62.6438 59.2236 62.5449 59.3394C62.6891 59.3611 62.8325 59.3828 62.9749 59.4Z" fill="#64748b"/>
<path d="M11.8959 37.8404C11.7907 37.8902 11.6846 37.939 11.583 37.9888C11.6746 38.0585 11.7699 38.1263 11.8633 38.1951C11.8742 38.0766 11.8841 37.958 11.8959 37.8404Z" fill="#64748b"/>
<path d="M9.057 32.191C8.74316 31.3024 8.53179 30.5748 8.34585 29.9342C7.97759 28.6646 7.70005 27.7081 6.95264 26.6565C8.56809 26.338 9.93682 25.6123 11.3654 24.854C11.7083 24.6721 12.0566 24.4875 12.4149 24.3056C13.3573 23.826 14.9655 23.6006 16.9356 23.7337C16.6989 23.1554 16.5039 22.5889 16.3487 22.0324C14.4739 21.9754 12.8312 22.2315 11.6593 22.8269C11.2929 23.0134 10.9355 23.2025 10.5845 23.3889C8.80483 24.3327 7.26737 25.1471 5.28547 25.1661L3.30811 25.1842L4.70406 26.5814C6.02563 27.9044 6.2669 28.7369 6.74855 30.3957C6.94084 31.0581 7.15854 31.8091 7.48871 32.7421C8.00935 34.2171 8.91185 35.5709 10.2071 36.8178C10.7133 36.5437 11.253 36.284 11.8208 36.0423C10.4666 34.8587 9.54771 33.5801 9.057 32.191Z" fill="#64748b"/>
<path d="M72.0825 49.3908C72.3592 50.1735 72.5469 50.8477 72.712 51.4422C73.0576 52.6847 73.3478 53.7289 74.2086 54.9741C72.5496 55.2275 71.5256 55.8003 70.38 56.4401C69.8911 56.7133 69.385 56.9957 68.7827 57.2798C67.7858 57.7504 66.174 57.9947 64.1758 57.8581C64.4025 58.4291 64.5912 58.9901 64.7463 59.5412C64.9286 59.5475 65.1137 59.5575 65.2914 59.5575C66.9332 59.5575 68.3845 59.3023 69.4938 58.7793C70.1478 58.4707 70.7029 58.1603 71.1927 57.887C72.5796 57.1124 73.581 56.5523 75.8522 56.4989L77.6718 56.4554L76.4482 55.1107C75.0232 53.5443 74.7565 52.586 74.3148 50.997C74.1424 50.3762 73.9465 49.6731 73.6517 48.837C73.1583 47.4398 72.2023 46.0688 70.8616 44.7884C70.3546 45.0598 69.8167 45.3168 69.2507 45.5557C70.6421 46.7747 71.619 48.0759 72.0825 49.3908Z" fill="#64748b"/>
<path d="M18.1294 22.1718C18.1757 22.3111 18.221 22.4505 18.2736 22.5926C18.3725 22.4722 18.4732 22.3537 18.5738 22.2351C18.4251 22.2134 18.2754 22.1899 18.1294 22.1718Z" fill="#64748b"/>
<path d="M69.187 43.7703C69.2913 43.7214 69.3984 43.6735 69.4999 43.6237C69.4092 43.5531 69.3131 43.4844 69.2196 43.4147C69.2088 43.5332 69.1997 43.6518 69.187 43.7703Z" fill="#64748b"/>
<path d="M69.4999 43.6237C69.3983 43.6735 69.2913 43.7215 69.187 43.7703C69.1335 44.2934 69.0645 44.811 68.9829 45.325C69.0754 45.4019 69.1616 45.4806 69.2505 45.5584C69.8165 45.3195 70.3544 45.0625 70.8614 44.7911C70.4442 44.392 69.9897 44.0029 69.4999 43.6237Z" fill="#64748b"/>
<path d="M11.5829 37.9888C11.6845 37.9381 11.7906 37.8893 11.8959 37.8404C11.9494 37.3174 12.0183 36.7988 12.1 36.2848C12.0029 36.2043 11.9122 36.1229 11.8197 36.0423C11.2519 36.2848 10.7122 36.5436 10.2061 36.8178C10.6233 37.2196 11.0831 37.6096 11.5829 37.9888Z" fill="#64748b"/>
<path d="M17.7052 17.5088C17.883 16.583 18.068 15.8491 18.2313 15.2012C18.5542 13.919 18.7973 12.9534 18.683 11.6693C20.2386 12.206 21.7878 12.2666 23.4042 12.3308C23.7924 12.3462 24.1861 12.3616 24.5879 12.3842C25.6555 12.4448 27.1793 13.0702 28.8338 14.1968C28.9209 13.5769 29.037 12.986 29.183 12.4277C27.5748 11.4178 26.0083 10.8024 24.6822 10.7273C24.2704 10.7038 23.8668 10.6875 23.4695 10.6721C21.4558 10.5925 19.717 10.5237 17.9946 9.54278L16.2775 8.56458L16.7773 10.473C17.2508 12.2802 17.0385 13.1208 16.6167 14.7958C16.448 15.4655 16.2576 16.2238 16.0707 17.1957C15.7786 18.7159 15.8711 20.3222 16.3473 22.0315C16.9215 22.0487 17.5165 22.0949 18.1288 22.1709C17.5728 20.4896 17.4304 18.9412 17.7052 17.5088Z" fill="#64748b"/>
<path d="M17.3564 23.7681C17.2149 23.7554 17.0734 23.7427 16.9355 23.7337C16.9872 23.8604 17.0453 23.9898 17.1015 24.1174C17.185 23.9997 17.2703 23.8839 17.3564 23.7681Z" fill="#64748b"/>
<path d="M30.6506 13.4511C30.6234 13.5823 30.5953 13.7135 30.5708 13.8484C30.7032 13.7995 30.8366 13.7534 30.9708 13.7063C30.8638 13.6212 30.7577 13.5335 30.6506 13.4511Z" fill="#64748b"/>
<path d="M63.4572 64.0495C63.3003 64.8648 63.1225 65.5408 62.9646 66.138C62.6354 67.385 62.3588 68.4329 62.4739 69.9405C60.9129 69.3251 59.7392 69.3043 58.4258 69.2817C57.8652 69.2717 57.2856 69.2618 56.6225 69.2048C55.5078 69.1089 53.9604 68.4917 52.2733 67.3352C52.1816 67.947 52.0646 68.5333 51.9204 69.0908C53.525 70.1079 55.1032 70.7395 56.4792 70.8581C57.1994 70.9205 57.8362 70.9314 58.3968 70.9413C59.9859 70.9694 61.1333 70.9893 63.1225 72.0842L64.7153 72.9611L64.3379 71.1857C63.898 69.1161 64.152 68.1542 64.5729 66.5606C64.737 65.938 64.9239 65.2322 65.0908 64.3617C65.3665 62.9283 65.2386 61.2913 64.747 59.5421C64.1737 59.5231 63.5833 59.4769 62.9756 59.4C63.5388 61.1176 63.7157 62.7021 63.4572 64.0495Z" fill="#64748b"/>
<path d="M50.4607 68.0655C50.4815 67.9642 50.506 67.8664 50.525 67.7633C50.4244 67.8004 50.3228 67.8366 50.2212 67.8719C50.301 67.9361 50.3799 68.004 50.4607 68.0655Z" fill="#64748b"/>
<path d="M63.7476 57.8209C63.8909 57.8345 64.036 57.8499 64.1766 57.8599C64.124 57.7286 64.065 57.5956 64.0097 57.4635C63.9226 57.5829 63.8346 57.7015 63.7476 57.8209Z" fill="#64748b"/>
<path d="M17.3563 23.7681C17.652 23.3681 17.9568 22.9763 18.2733 22.5926C18.2216 22.4514 18.1754 22.3112 18.1291 22.1718C17.5177 22.0958 16.9227 22.0496 16.3477 22.0324C16.5028 22.5881 16.6978 23.1554 16.9345 23.7337C17.0733 23.7427 17.2139 23.7545 17.3563 23.7681Z" fill="#64748b"/>
<path d="M63.7477 57.821C63.4538 58.2191 63.1508 58.6091 62.8379 58.991C62.8878 59.1286 62.9304 59.2643 62.9749 59.4009C63.5826 59.4778 64.174 59.524 64.7463 59.543C64.5912 58.9919 64.4026 58.43 64.1758 57.8599C64.0361 57.8499 63.891 57.8336 63.7477 57.821Z" fill="#64748b"/>
<path d="M32.663 9.16091C33.2862 8.45236 33.8177 7.91303 34.2875 7.43704C35.2164 6.49412 35.9166 5.78468 36.469 4.62005C37.5384 5.86793 38.8428 6.70316 40.2042 7.5755C40.5317 7.78453 40.8637 7.99719 41.1984 8.2198C41.9476 8.71751 42.7712 9.72738 43.5231 11.111C43.915 10.6459 44.3177 10.2224 44.7295 9.83508C43.9476 8.50576 43.0578 7.46148 42.1208 6.8389C41.778 6.61086 41.4378 6.39278 41.1031 6.17831C39.4069 5.09242 37.943 4.15492 36.9561 2.4392L35.9719 0.727997L35.435 2.62652C34.9261 4.42368 34.3166 5.04174 33.1029 6.27333C32.6177 6.7656 32.0689 7.32213 31.414 8.06597C30.38 9.24145 29.6389 10.6893 29.1836 12.4277C29.6707 12.7335 30.1623 13.0747 30.6521 13.4502C31.0222 11.6938 31.6898 10.2685 32.663 9.16091Z" fill="#64748b"/>
<path d="M45.5239 11.3625C45.2191 11.672 44.9189 12.0059 44.625 12.367C45.1021 12.4349 45.5756 12.5136 46.0454 12.6041C45.8813 12.1761 45.7071 11.7616 45.5239 11.3625Z" fill="#64748b"/>
<path d="M35.661 70.2482C35.9585 69.945 36.2506 69.6175 36.5363 69.26C36.0701 69.1949 35.6075 69.1198 35.1494 69.0329C35.31 69.4519 35.4805 69.8582 35.661 70.2482Z" fill="#64748b"/>
<path d="M29.1443 14.4185C29.04 14.3443 28.9357 14.2683 28.8323 14.1986C28.8151 14.3226 28.8006 14.4492 28.7852 14.575C28.9049 14.5216 29.0246 14.47 29.1443 14.4185Z" fill="#64748b"/>
<path d="M52.0269 67.1597C52.1085 67.2176 52.191 67.2791 52.2727 67.3352C52.2872 67.2366 52.299 67.1352 52.3117 67.0357C52.2173 67.0773 52.1221 67.118 52.0269 67.1597Z" fill="#64748b"/>
<path d="M48.4974 72.4064C47.9486 73.0299 47.4515 73.5231 47.0125 73.9583C46.0955 74.8678 45.3254 75.6315 44.6587 76.9898C43.6247 75.6704 42.6224 75.0596 41.5022 74.3764C41.0242 74.085 40.5298 73.7837 39.9865 73.3991C39.2346 72.867 38.41 71.877 37.6572 70.5133C37.2726 70.9784 36.8744 71.3992 36.4653 71.782C37.2282 73.0652 38.0953 74.0959 39.0232 74.7519C39.6128 75.1691 40.1561 75.5003 40.6341 75.7926C41.9902 76.6197 42.9698 77.216 44.1299 79.1661L45.0587 80.728L45.6347 79.0059C46.3059 76.9988 47.0134 76.2975 48.1853 75.1356C48.6434 74.6822 49.1613 74.1673 49.7482 73.5013C50.7278 72.3874 51.458 70.8843 51.9206 69.0917C51.4344 68.784 50.9464 68.4419 50.4611 68.0664C50.0783 69.8708 49.4189 71.3585 48.4974 72.4064Z" fill="#64748b"/>
<path d="M43.5239 11.111C43.7244 11.4802 43.9194 11.8766 44.1072 12.2983C44.2804 12.32 44.4527 12.3435 44.6251 12.3679C44.919 12.0069 45.2192 11.672 45.524 11.3635C45.2745 10.8214 45.0097 10.311 44.7303 9.83597C44.3185 10.2224 43.9158 10.6459 43.5239 11.111Z" fill="#64748b"/>
<path d="M37.6571 70.5133C37.4539 70.1459 37.258 69.7505 37.0684 69.3288C36.8906 69.308 36.7128 69.2844 36.5359 69.2591C36.2511 69.6156 35.9591 69.9441 35.6606 70.2473C35.9119 70.7911 36.1813 71.3033 36.4661 71.7811C36.8743 71.3992 37.2725 70.9784 37.6571 70.5133Z" fill="#64748b"/>
<path d="M29.1446 14.4185C29.6135 14.2167 30.0888 14.0258 30.5704 13.8484C30.5949 13.7136 30.6231 13.5823 30.6503 13.4511C30.1605 13.0756 29.6697 12.7345 29.1817 12.4286C29.0357 12.9878 28.9196 13.5778 28.8325 14.1977C28.9359 14.2683 29.0403 14.3443 29.1446 14.4185Z" fill="#64748b"/>
<path d="M52.0264 67.1597C51.533 67.3742 51.0323 67.576 50.5243 67.7633C50.5044 67.8664 50.4808 67.9642 50.46 68.0655C50.9461 68.4411 51.4341 68.7831 51.9194 69.0908C52.0636 68.5325 52.1806 67.9461 52.2722 67.3353C52.1906 67.2791 52.1081 67.2185 52.0264 67.1597Z" fill="#64748b"/>
<path d="M36.5361 69.26C36.713 69.2844 36.8908 69.308 37.0686 69.3297C36.9969 69.1704 36.9253 69.0103 36.8563 68.8438C36.7502 68.9858 36.6441 69.1252 36.5361 69.26Z" fill="#64748b"/>
<path d="M44.6253 12.3679C44.453 12.3435 44.2807 12.32 44.1074 12.2982C44.1764 12.4539 44.2462 12.6077 44.3133 12.7697C44.4167 12.634 44.5192 12.4973 44.6253 12.3679Z" fill="#64748b"/>
</svg>
