<!-- fill="#E5004A" -->
<svg width="81" height="81" viewBox="0 0 81 81" fill="none" xmlns="http://www.w3.org/2000/svg">
<path d="M40.7391 75.2045C21.45 75.2045 5.7583 59.5069 5.7583 40.2129C5.7583 20.9188 21.4511 5.22119 40.7391 5.22119C60.0272 5.22119 75.7199 20.9188 75.7199 40.2129C75.7199 59.508 60.0272 75.2045 40.7391 75.2045ZM40.7391 7.8028C22.8731 7.8028 8.33804 22.3423 8.33804 40.2129C8.33804 58.0845 22.8731 72.624 40.7391 72.624C58.6052 72.624 73.1402 58.0845 73.1402 40.2129C73.1392 22.3423 58.6041 7.8028 40.7391 7.8028Z" fill="#64748b"/>
<path d="M64.3735 65.1308H17.1031C16.3995 65.1308 15.8286 64.5597 15.8286 63.8559V16.5708C15.8286 15.8671 16.3995 15.296 17.1031 15.296H64.3735C65.077 15.296 65.648 15.8671 65.648 16.5708V63.8559C65.648 64.5597 65.0781 65.1308 64.3735 65.1308ZM18.3776 62.581H63.099V17.8457H18.3776V62.581Z" fill="#64748b"/>
<path d="M40.7389 49.9671L30.5176 32.2579H50.9602L40.7389 49.9671Z" fill="#64748b"/>
<path d="M6.8418 38.3584C6.92245 38.4444 7.0031 38.5293 7.08587 38.6132C7.09436 38.4359 7.10497 38.2597 7.11558 38.0835L6.8418 38.3584Z" fill="#64748b"/>
<path d="M38.9083 74.0963C34.8132 77.956 28.6052 78.7521 23.6633 76.0092C23.1189 75.6822 15.7671 71.3215 10.32 70.7027C9.68649 65.2847 5.26878 57.8085 4.94937 57.2756C2.19772 52.3332 2.98618 46.1223 6.84145 42.0196L5.29212 40.4697C5.1998 40.3774 5.11173 40.2819 5.02259 40.1884C0.345955 45.1086 -0.618662 52.6007 2.70602 58.5515L2.72619 58.5866C4.1418 60.9463 7.81456 67.9406 7.81456 71.9213V73.2121H9.10496C13.9599 73.2121 22.2679 78.1831 22.3506 78.233L22.3888 78.2553C24.7532 79.5727 27.3605 80.2138 29.9529 80.2138C33.8836 80.2138 37.7781 78.7362 40.7377 75.9158C40.6475 75.8298 40.5552 75.747 40.4671 75.6578L38.9083 74.0963Z" fill="#64748b"/>
<path d="M39.1846 6.54916C39.0934 6.45893 39.001 6.36976 38.9066 6.28271L38.6084 6.58101C38.8005 6.56933 38.9925 6.55765 39.1846 6.54916Z" fill="#64748b"/>
<path d="M42.3389 73.8755C42.4153 73.9509 42.4917 74.0231 42.5691 74.0963L42.8164 73.849C42.6572 73.8586 42.498 73.8681 42.3389 73.8755Z" fill="#64748b"/>
<path d="M42.5705 6.28264C46.6709 2.45802 52.848 1.68311 57.773 4.42075C58.4765 4.89313 65.2373 9.33979 71.3073 9.9077C71.84 16.0411 76.0837 22.459 76.5654 23.1713C79.2704 28.0999 78.4692 34.2779 74.6352 38.3583L76.1845 39.9082C76.2768 40.0005 76.3649 40.096 76.454 40.1895C81.1158 35.2842 82.09 27.8101 78.7939 21.8678L78.7281 21.7627C78.6793 21.6916 73.8329 14.5805 73.8329 8.67741V7.38661H72.5425C66.7973 7.38661 59.2501 2.30516 59.1748 2.25421L59.0803 2.19582C53.142 -1.13627 45.6659 -0.190462 40.7378 4.46533C40.845 4.56617 40.9522 4.66703 41.0562 4.77105L42.5705 6.28264Z" fill="#64748b"/>
<path d="M74.3633 42.2924L74.6349 42.0206C74.5554 41.9357 74.4747 41.8508 74.3919 41.7669C74.3845 41.9421 74.3739 42.1172 74.3633 42.2924Z" fill="#64748b"/>
<path d="M76.1844 40.4708L74.6351 42.0206C78.4903 46.1234 79.2788 52.3343 76.5272 57.2767C76.2088 57.8095 71.7911 65.2858 71.1576 70.7037C65.7105 71.3226 58.3586 75.6833 57.8143 76.0102C52.8723 78.7542 46.6644 77.957 42.5693 74.0974L41.0094 75.6578C40.9213 75.7459 40.829 75.8287 40.7388 75.9158C43.6984 78.7373 47.5919 80.2138 51.5236 80.2138C54.116 80.2138 56.7234 79.5727 59.0877 78.2553L59.1259 78.233C59.2097 78.1821 67.5166 73.2121 72.3716 73.2121H73.662V71.9213C73.662 67.1307 78.6994 58.6715 78.7503 58.5866L78.7705 58.5515C82.0952 52.6007 81.1306 45.1086 76.4539 40.1884C76.3648 40.2829 76.2767 40.3785 76.1844 40.4708Z" fill="#64748b"/>
<path d="M42.5705 6.28271C42.4771 6.36976 42.3848 6.45893 42.2925 6.54916C42.4846 6.55765 42.6766 6.56933 42.8687 6.58101L42.5705 6.28271Z" fill="#64748b"/>
<path d="M6.84139 38.3584C3.00733 34.2779 2.20614 28.101 4.91109 23.1713C5.39287 22.4601 9.63654 16.0412 10.1693 9.90774C16.2403 9.33984 23 4.89317 23.7036 4.4208C28.6285 1.68316 34.8067 2.45806 38.9061 6.28269L40.4183 4.77003C40.5223 4.666 40.6305 4.56516 40.7366 4.46432C35.8085 -0.19147 28.3335 -1.13622 22.3941 2.19481L22.2996 2.25318C22.2243 2.30414 14.6899 7.3856 8.93191 7.3856H7.64151V8.6764C7.64151 14.5657 2.79509 21.6905 2.74628 21.7627L2.68155 21.8678C-0.614486 27.8102 0.35862 35.2843 5.02146 40.1895C5.1106 40.095 5.19973 40.0006 5.29099 39.9082L6.84139 38.3584Z" fill="#64748b"/>
<path d="M74.3911 38.6132C74.4739 38.5293 74.5556 38.4433 74.6352 38.3584L74.3604 38.0835C74.372 38.2597 74.3826 38.4359 74.3911 38.6132Z" fill="#64748b"/>
<path d="M38.9084 74.0963C38.9859 74.0242 39.0633 73.9509 39.1387 73.8755C38.9795 73.8681 38.8203 73.8586 38.6611 73.849L38.9084 74.0963Z" fill="#64748b"/>
<path d="M7.08481 41.7669C7.00204 41.8508 6.92245 41.9357 6.8418 42.0206L7.11346 42.2924C7.10284 42.1172 7.0933 41.9421 7.08481 41.7669Z" fill="#64748b"/>
<path d="M38.9072 6.28269C39.0006 6.36974 39.094 6.45891 39.1853 6.54914C39.701 6.52579 40.2178 6.51198 40.7388 6.51198C41.2599 6.51198 41.7777 6.52579 42.2924 6.54914C42.3837 6.45891 42.476 6.36974 42.5704 6.28269L41.0582 4.77003C40.9532 4.66601 40.846 4.56517 40.7399 4.46432C40.6327 4.56517 40.5255 4.66601 40.4215 4.77003L38.9072 6.28269Z" fill="#64748b"/>
<path d="M42.5693 74.0963C42.4918 74.0241 42.4144 73.9509 42.339 73.8755C41.8084 73.8999 41.2757 73.9137 40.7387 73.9137C40.2018 73.9137 39.6691 73.8999 39.1385 73.8755C39.0631 73.9509 38.9857 74.023 38.9082 74.0963L40.4681 75.6567C40.5562 75.7448 40.6485 75.8276 40.7387 75.9147C40.8289 75.8287 40.9213 75.7459 41.0093 75.6567L42.5693 74.0963Z" fill="#64748b"/>
<path d="M74.6352 38.3584C74.5545 38.4444 74.4739 38.5293 74.3911 38.6132C74.4155 39.1439 74.4293 39.6768 74.4293 40.2129C74.4293 40.7341 74.4155 41.2521 74.3922 41.7669C74.475 41.8508 74.5545 41.9357 74.6352 42.0206L76.1845 40.4708C76.2768 40.3785 76.3649 40.2829 76.4541 40.1895C76.3649 40.095 76.2768 40.0006 76.1845 39.9082L74.6352 38.3584Z" fill="#64748b"/>
<path d="M6.84133 42.0206C6.92198 41.9357 7.00157 41.8508 7.08434 41.7669C7.06099 41.2521 7.04719 40.7341 7.04719 40.2129C7.04719 39.6757 7.06099 39.1429 7.0854 38.6132C7.00263 38.5293 6.92198 38.4433 6.84133 38.3584L5.292 39.9082C5.19968 40.0006 5.1116 40.0961 5.02246 40.1895C5.1116 40.284 5.20074 40.3785 5.292 40.4708L6.84133 42.0206Z" fill="#64748b"/>
</svg>
