<!-- fill="#009FE3" -->
<svg width="81" height="81" viewBox="0 0 81 81" fill="none" xmlns="http://www.w3.org/2000/svg">
<path d="M40.1069 69.8015C23.8473 69.8015 10.6201 56.5697 10.6201 40.3065C10.6201 24.0432 23.8482 10.8115 40.1069 10.8115C56.3656 10.8115 69.5937 24.0432 69.5937 40.3065C69.5937 56.5697 56.3665 69.8015 40.1069 69.8015ZM40.1069 12.9866C25.0468 12.9866 12.7956 25.2422 12.7956 40.3065C12.7956 55.3707 25.0477 67.6263 40.1069 67.6263C55.166 67.6263 67.4191 55.3707 67.4191 40.3065C67.4191 25.2422 55.1669 12.9866 40.1069 12.9866Z" fill="#64748b"/>
<path d="M40.4572 54.637C32.3422 54.637 25.7397 48.0328 25.7397 39.9146C25.7397 31.7973 32.3422 25.193 40.4572 25.193C48.5731 25.193 55.1755 31.7973 55.1755 39.9146C55.1747 48.0328 48.5722 54.637 40.4572 54.637ZM40.4572 27.3691C33.5417 27.3691 27.9143 32.9971 27.9143 39.9146C27.9143 46.8329 33.5408 52.4609 40.4572 52.4609C47.3736 52.4609 53.0001 46.8329 53.0001 39.9146C52.9992 32.9971 47.3727 27.3691 40.4572 27.3691Z" fill="#64748b"/>
<path d="M40.2837 69.0114C39.8955 69.0114 39.5359 68.8038 39.3418 68.4674L15.0235 26.3356C14.8294 25.9992 14.8294 25.584 15.0235 25.2476C15.2176 24.9111 15.5772 24.7036 15.9654 24.7036H64.602C64.9911 24.7036 65.3498 24.9111 65.5439 25.2476C65.738 25.584 65.738 25.9992 65.5439 26.3356L41.2256 68.4674C41.0306 68.8038 40.6719 69.0114 40.2837 69.0114ZM17.8493 26.8796L40.2837 65.7482L62.7181 26.8796H17.8493Z" fill="#64748b"/>
<path d="M56.5028 16.6606C56.3883 16.7259 56.2712 16.7983 56.1558 16.8681C56.2506 16.9335 56.3454 16.9988 56.4393 17.065C56.4608 16.9299 56.4832 16.7939 56.5028 16.6606Z" fill="#64748b"/>
<path d="M49.1402 9.36194C49.7798 9.02461 50.3272 8.78213 50.8102 8.56828C51.754 8.15042 52.5554 7.7961 53.5063 6.98634C53.6244 8.38217 53.9929 9.25725 54.4026 10.229C54.5878 10.6692 54.7801 11.1246 54.9671 11.6713C55.2658 12.5464 55.3606 13.9852 55.162 15.7989C55.6782 15.4777 56.1863 15.1913 56.6827 14.9453C56.7713 13.46 56.6604 12.1697 56.3312 11.206C56.1281 10.611 55.917 10.1109 55.731 9.66973C55.2023 8.41438 54.8195 7.50709 54.925 5.31224L55.0234 3.27039L53.6673 4.79954C52.3103 6.33048 51.482 6.69643 50.2288 7.25118C49.7243 7.47398 49.1527 7.7272 48.4693 8.08779C47.7689 8.45732 47.0658 8.99777 46.3726 9.68137C46.5568 10.1538 46.7259 10.6692 46.8798 11.2177C47.6294 10.3891 48.3897 9.75832 49.1402 9.36194Z" fill="#64748b"/>
<path d="M34.6108 68.1802C34.7414 68.734 34.8863 69.2449 35.0411 69.7129C35.364 69.3138 35.6807 68.8835 35.9928 68.4164C35.5277 68.3484 35.067 68.2697 34.6108 68.1802Z" fill="#64748b"/>
<path d="M23.6982 64.0276C23.8342 63.9498 23.9729 63.8656 24.1115 63.7806C23.9979 63.7028 23.8852 63.6249 23.7734 63.5462C23.7474 63.7082 23.7206 63.8692 23.6982 64.0276Z" fill="#64748b"/>
<path d="M31.0708 71.2662C30.3445 71.6492 29.7532 71.9194 29.2317 72.1574C28.2755 72.5941 27.5384 72.9305 26.736 73.6221C26.5616 72.2361 26.1 71.0676 25.6197 69.8516C25.4971 69.542 25.3728 69.2262 25.2511 68.9023C24.9452 68.0853 24.8611 66.6716 25.0499 64.9053C24.5319 65.2301 24.0239 65.5147 23.5247 65.7563C23.4433 67.2326 23.5614 68.4996 23.9022 69.4087C24.0274 69.7415 24.1545 70.0645 24.2797 70.3822C24.9175 71.9972 25.4685 73.3913 25.3531 75.315L25.2207 77.5322L26.6296 75.8152C27.7898 74.4015 28.4714 74.0901 29.8301 73.4691C30.3695 73.2231 30.9805 72.9439 31.7435 72.5413C32.511 72.1359 33.2409 71.5946 33.9422 70.9173C33.7553 70.4377 33.5844 69.9187 33.4306 69.3657C32.6711 70.2006 31.8866 70.8349 31.0708 71.2662Z" fill="#64748b"/>
<path d="M64.3573 24.8494C64.2312 24.8655 64.1015 24.8852 63.9727 24.904C64.0326 24.9971 64.0916 25.091 64.1507 25.185C64.2195 25.0731 64.2902 24.9604 64.3573 24.8494Z" fill="#64748b"/>
<path d="M25.104 64.4285C25.0825 64.5913 25.0664 64.7479 25.0503 64.9054C25.1845 64.8213 25.3195 64.7354 25.4555 64.645C25.3374 64.5734 25.2202 64.5009 25.104 64.4285Z" fill="#64748b"/>
<path d="M55.1163 16.1881C55.1333 16.0557 55.1477 15.9277 55.1611 15.7989C55.051 15.8669 54.941 15.9385 54.8301 16.01C54.9267 16.0682 55.0206 16.1291 55.1163 16.1881Z" fill="#64748b"/>
<path d="M60.3949 15.2567C61.1159 15.1922 61.7144 15.1806 62.243 15.1699C63.2744 15.1493 64.151 15.1323 65.3398 14.752C64.9096 16.0852 64.9122 17.0346 64.914 18.0895C64.9149 18.5673 64.9158 19.0612 64.8774 19.6383C64.8148 20.5644 64.3442 21.9334 63.4542 23.5368C64.0553 23.4393 64.635 23.3704 65.1887 23.3337C65.847 21.9933 66.246 20.755 66.3149 19.7358C66.3569 19.1086 66.356 18.5664 66.3551 18.0868C66.3524 16.7241 66.3506 15.7398 67.2952 13.7561L68.1746 11.9111L66.3327 12.7969C64.4891 13.6837 63.5848 13.7016 62.2144 13.7293C61.6634 13.74 61.0381 13.7526 60.2679 13.8214C59.1838 13.9181 57.9708 14.3037 56.6818 14.9453C56.6496 15.492 56.5888 16.0673 56.5029 16.6605C57.9306 15.8418 59.2535 15.3578 60.3949 15.2567Z" fill="#64748b"/>
<path d="M15.8491 55.7886C15.9824 55.7725 16.1193 55.751 16.2561 55.7313C16.1926 55.6329 16.1291 55.5336 16.0665 55.4343C15.9931 55.5524 15.9198 55.6705 15.8491 55.7886Z" fill="#64748b"/>
<path d="M19.8188 65.3697C19.0003 65.4422 18.3509 65.4637 17.7784 65.4816C16.7273 65.5147 15.9178 65.5397 14.9106 65.8681C15.2854 64.5215 15.3113 63.2661 15.3382 61.9589C15.3453 61.626 15.3516 61.2869 15.365 60.9407C15.3981 60.0593 15.8776 58.7029 16.7524 57.1236C16.1459 57.2247 15.5672 57.2882 15.0126 57.3195C14.3515 58.6706 13.9633 59.9036 13.9257 60.887C13.9123 61.2422 13.9052 61.5894 13.898 61.9303C13.8622 63.667 13.8318 65.1657 12.9829 66.8953L12.0034 68.8889L13.966 67.8491C15.5824 66.9937 16.3311 66.9696 17.824 66.9231C18.4162 66.9043 19.088 66.8828 19.9476 66.8067C21.1015 66.7038 22.2867 66.3576 23.5265 65.7581C23.557 65.2087 23.6151 64.6307 23.7001 64.0303C22.3118 64.8177 21.0228 65.2624 19.8188 65.3697Z" fill="#64748b"/>
<path d="M25.1037 64.4284C24.7683 64.2191 24.4373 64.0043 24.1117 63.7815C23.9731 63.8656 23.8353 63.9506 23.6984 64.0285C23.6135 64.6289 23.5553 65.2069 23.5249 65.7563C24.0231 65.5147 24.5312 65.2301 25.05 64.9053C25.0661 64.7479 25.0822 64.5913 25.1037 64.4284Z" fill="#64748b"/>
<path d="M55.1162 16.1881C55.4678 16.4073 55.8139 16.6337 56.1548 16.8681C56.271 16.7983 56.3873 16.7258 56.5018 16.6605C56.5877 16.0664 56.6485 15.492 56.6807 14.9453C56.1843 15.1922 55.6771 15.4785 55.1601 15.7989C55.1466 15.9277 55.1332 16.0557 55.1162 16.1881Z" fill="#64748b"/>
<path d="M68.5271 25.0588C69.2159 25.2789 69.7732 25.4999 70.2634 25.695C71.2223 26.0753 72.0372 26.3992 73.2806 26.511C72.3673 27.574 72.0014 28.4491 71.5953 29.4226C71.4111 29.8637 71.2205 30.3191 70.9611 30.8363C70.5461 31.6631 69.5863 32.7377 68.1532 33.8669C68.7436 34.01 69.3036 34.172 69.8278 34.3536C70.9486 33.3765 71.7921 32.3932 72.2492 31.4823C72.531 30.9204 72.7403 30.4202 72.9246 29.9782C73.4497 28.7211 73.8289 27.8129 75.4686 26.3508L76.9937 24.9908L74.9525 25.0937C72.9094 25.1948 72.0685 24.8628 70.7947 24.3564C70.2822 24.1533 69.7016 23.9225 68.9655 23.6862C67.9198 23.3516 66.6406 23.2379 65.1888 23.3337C64.9464 23.8267 64.6673 24.334 64.3569 24.8494C66.0064 24.6427 67.4278 24.7072 68.5271 25.0588Z" fill="#64748b"/>
<path d="M63.269 23.8652C63.3334 23.7542 63.3933 23.646 63.4541 23.5368C63.3298 23.5574 63.2037 23.5789 63.0767 23.6012C63.1411 23.6889 63.2064 23.7766 63.269 23.8652Z" fill="#64748b"/>
<path d="M11.7056 45.1946C11.8487 45.2357 11.9981 45.2724 12.1466 45.31C12.1242 45.1821 12.1036 45.0532 12.083 44.9235C11.956 45.0138 11.8281 45.1042 11.7056 45.1946Z" fill="#64748b"/>
<path d="M68.1288 35.677C68.2469 35.5938 68.3641 35.5106 68.4786 35.4273C68.3462 35.3898 68.2067 35.3558 68.0698 35.3209C68.0904 35.4381 68.1092 35.558 68.1288 35.677Z" fill="#64748b"/>
<path d="M16.9541 56.7603C16.8826 56.8829 16.819 57.0019 16.752 57.1227C16.8879 57.1003 17.0257 57.0744 17.1644 57.0484C17.0937 56.9527 17.023 56.8569 16.9541 56.7603Z" fill="#64748b"/>
<path d="M11.7063 55.5282C10.9245 55.2786 10.3181 55.0451 9.78313 54.8402C8.80096 54.4635 8.0442 54.1727 6.98868 54.085C7.85546 52.9889 8.36533 51.8418 8.89667 50.6464C9.03264 50.3413 9.16949 50.0326 9.31619 49.7176C9.68473 48.9267 10.6338 47.8762 12.0266 46.7739C11.4317 46.6316 10.8726 46.4678 10.3511 46.2817C9.24104 47.2579 8.4199 48.2296 8.01021 49.1101C7.85993 49.4322 7.71948 49.7498 7.58083 50.0612C6.87506 51.6476 6.2668 53.0184 4.81321 54.2827L3.13867 55.7412L5.34993 55.5434C7.17116 55.3815 7.87155 55.649 9.2661 56.185C9.81891 56.3971 10.446 56.6377 11.2671 56.9008C12.184 57.1934 13.185 57.341 14.2861 57.341C14.5223 57.341 14.7647 57.3321 15.0098 57.3187C15.2522 56.823 15.5349 56.3103 15.847 55.7886C14.245 55.9864 12.8692 55.8996 11.7063 55.5282Z" fill="#64748b"/>
<path d="M63.269 23.8652C63.5115 24.2061 63.7449 24.5524 63.9721 24.904C64.1009 24.8852 64.2306 24.8646 64.3568 24.8494C64.6663 24.334 64.9463 23.8267 65.1887 23.3337C64.635 23.3704 64.0544 23.4393 63.4542 23.5368C63.3934 23.646 63.3334 23.7542 63.269 23.8652Z" fill="#64748b"/>
<path d="M16.9537 56.7603C16.714 56.423 16.4814 56.0794 16.256 55.7313C16.1191 55.7519 15.9823 55.7725 15.849 55.7886C15.5368 56.3102 15.2541 56.8229 15.0117 57.3186C15.5672 57.2882 16.1459 57.2238 16.7515 57.1227C16.8177 57.0019 16.8821 56.8829 16.9537 56.7603Z" fill="#64748b"/>
<path d="M12.0742 33.8239C12.178 33.9062 12.2871 33.9886 12.3953 34.07C12.4204 33.9563 12.4463 33.8436 12.4732 33.7309C12.339 33.7613 12.2066 33.7926 12.0742 33.8239Z" fill="#64748b"/>
<path d="M8.03008 43.3657C7.40481 42.8324 6.93521 42.3832 6.52105 41.9869C5.76071 41.2594 5.1757 40.6993 4.23557 40.2108C5.45837 39.5343 6.37256 38.6736 7.32343 37.777C7.56584 37.5479 7.81273 37.3162 8.06857 37.0827C8.71977 36.4894 10.0195 35.8828 11.7548 35.4014C11.2602 35.0399 10.8058 34.674 10.3961 34.3C8.97381 34.7724 7.82524 35.3567 7.0989 36.017C6.83591 36.2559 6.58366 36.4939 6.33498 36.7275C5.07193 37.9184 3.98062 38.9465 2.15133 39.5522L0.0429688 40.2501L2.15939 40.923C3.9019 41.4769 4.44399 41.9949 5.52367 43.0275C5.95214 43.4373 6.43784 43.9017 7.09352 44.4609C7.97551 45.2125 9.05251 45.8156 10.3487 46.28C10.7619 45.9167 11.2155 45.5534 11.703 45.1937C10.1707 44.758 8.95053 44.1504 8.03008 43.3657Z" fill="#64748b"/>
<path d="M67.8282 34.1183C67.94 34.0342 68.0465 33.9501 68.1529 33.866C68.0205 33.8338 67.8855 33.8033 67.7495 33.7729C67.7772 33.8874 67.8023 34.0029 67.8282 34.1183Z" fill="#64748b"/>
<path d="M74.5709 37.4504C74.1764 37.0648 73.7301 36.6272 73.1415 36.1262C72.3132 35.4193 71.1879 34.8243 69.8273 34.3536C69.4141 34.7133 68.9614 35.073 68.4784 35.4274C70.0626 35.8729 71.3355 36.4787 72.2076 37.2222C72.7577 37.692 73.1862 38.1108 73.5637 38.4803C74.3008 39.2024 74.9279 39.8162 76.0317 40.3987C74.7794 41.0259 74.104 41.6925 73.3526 42.4325C73.0127 42.768 72.6612 43.1152 72.2219 43.491C71.5171 44.0958 70.2093 44.7195 68.4399 45.2071C68.9301 45.5677 69.3872 45.9337 69.8005 46.3032C71.2201 45.8344 72.3821 45.251 73.1585 44.5853C73.6353 44.1764 74.0217 43.7952 74.3625 43.4588C75.3322 42.5023 76.0335 41.8115 78.1105 41.0957L80.0427 40.43L78.1204 39.7365C76.1963 39.0422 75.5495 38.4096 74.5709 37.4504Z" fill="#64748b"/>
<path d="M68.1351 46.7711C68.0332 46.6906 67.9267 46.6101 67.8202 46.5305C67.7961 46.6405 67.7711 46.7506 67.7451 46.8606C67.8766 46.8311 68.0072 46.8016 68.1351 46.7711Z" fill="#64748b"/>
<path d="M12.3846 46.4929C12.2602 46.5868 12.144 46.6799 12.0259 46.7738C12.1726 46.8087 12.3202 46.8427 12.4714 46.8749C12.4418 46.7479 12.4132 46.6208 12.3846 46.4929Z" fill="#64748b"/>
<path d="M67.8281 34.1183C67.9167 34.5156 67.9981 34.9164 68.0697 35.32C68.2065 35.3549 68.3461 35.3897 68.4785 35.4264C68.9624 35.0721 69.415 34.7124 69.8274 34.3527C69.3041 34.1711 68.7441 34.0091 68.1528 33.866C68.0464 33.9501 67.9399 34.0342 67.8281 34.1183Z" fill="#64748b"/>
<path d="M12.3843 46.4929C12.2975 46.1019 12.217 45.7073 12.1464 45.3109C11.9979 45.2733 11.8485 45.2357 11.7054 45.1955C11.217 45.5552 10.7643 45.9193 10.3511 46.2817C10.8726 46.4687 11.4317 46.6325 12.0265 46.7738C12.1446 46.6799 12.26 46.5868 12.3843 46.4929Z" fill="#64748b"/>
<path d="M63.4794 57.1245C63.4114 57.0019 63.3381 56.8766 63.2656 56.7522C63.1941 56.8533 63.1207 56.9518 63.0474 57.0511C63.1932 57.0779 63.3363 57.1012 63.4794 57.1245Z" fill="#64748b"/>
<path d="M68.0669 45.3064C68.1939 45.2742 68.3165 45.2402 68.439 45.2071C68.3353 45.1301 68.2288 45.0541 68.1215 44.978C68.1036 45.0872 68.0866 45.1972 68.0669 45.3064Z" fill="#64748b"/>
<path d="M9.36407 30.6896C8.99374 29.9559 8.73522 29.3599 8.50712 28.8338C8.08759 27.8684 7.76557 27.1257 7.08842 26.3106C8.4776 26.1612 9.65299 25.7209 10.8776 25.2637C11.1898 25.1465 11.5073 25.0284 11.8338 24.9121C12.6559 24.6204 14.0701 24.5622 15.8323 24.7832C15.5174 24.2598 15.2419 23.7462 15.0102 23.2433C13.5361 23.1351 12.2677 23.2299 11.3526 23.5538C11.0171 23.6728 10.6924 23.7945 10.3722 23.9135C8.74595 24.5211 7.34246 25.0463 5.42194 24.896L3.20801 24.7224L4.89865 26.163C6.29052 27.3485 6.59018 28.0366 7.18503 29.4074C7.42118 29.9514 7.68862 30.567 8.07684 31.3374C8.60282 32.3798 9.36854 33.3604 10.3963 34.2981C10.9205 34.1237 11.4823 33.9653 12.0736 33.823C10.8132 32.82 9.91331 31.7785 9.36407 30.6896Z" fill="#64748b"/>
<path d="M12.1481 35.2931C12.013 35.328 11.886 35.3647 11.7554 35.4005C11.8654 35.481 11.9763 35.5606 12.0899 35.6403C12.1096 35.5249 12.1275 35.4085 12.1481 35.2931Z" fill="#64748b"/>
<path d="M70.9091 49.8948C71.2347 50.5408 71.4673 51.0929 71.6721 51.5796C72.072 52.5307 72.4119 53.3387 73.2044 54.305C71.8063 54.3981 70.9252 54.7507 69.9466 55.1417C69.5029 55.3188 69.0449 55.5023 68.4948 55.6794C67.6146 55.9622 66.1753 56.0302 64.3657 55.7984C64.677 56.3201 64.9534 56.8337 65.1914 57.3338C65.6064 57.366 66.0072 57.3839 66.3891 57.3839C67.3722 57.3839 68.2372 57.2757 68.9358 57.0511C69.5333 56.8587 70.0379 56.6574 70.4824 56.4793C71.7473 55.9729 72.6606 55.6069 74.853 55.7537L76.8925 55.8888L75.3888 54.5046C73.8834 53.1186 73.5327 52.2838 73.0014 51.0213C72.7876 50.513 72.5452 49.9368 72.1972 49.2461C71.7025 48.2654 70.8876 47.2731 69.8026 46.3041C69.2811 46.4768 68.722 46.6316 68.1379 46.772C69.4385 47.8037 70.3885 48.8631 70.9091 49.8948Z" fill="#64748b"/>
<path d="M16.7339 23.4491C16.8046 23.5798 16.8833 23.7122 16.9602 23.8437C17.0353 23.7381 17.1132 23.6335 17.1901 23.5288C17.0371 23.501 16.8842 23.4733 16.7339 23.4491Z" fill="#64748b"/>
<path d="M12.1484 35.2931C12.2218 34.8824 12.305 34.4753 12.3953 34.0709C12.2871 33.9886 12.178 33.9071 12.0742 33.8248C11.4829 33.9671 10.9212 34.1255 10.397 34.3C10.8067 34.674 11.2611 35.0399 11.7557 35.4014C11.8863 35.3647 12.0133 35.328 12.1484 35.2931Z" fill="#64748b"/>
<path d="M68.0672 45.3064C67.9938 45.7171 67.9107 46.1251 67.8203 46.5296C67.9259 46.6092 68.0332 46.6897 68.1352 46.7703C68.7202 46.6307 69.2784 46.475 69.7999 46.3023C69.3857 45.9327 68.9295 45.5668 68.4393 45.2062C68.3168 45.2411 68.1942 45.2742 68.0672 45.3064Z" fill="#64748b"/>
<path d="M25.1421 15.7675C25.1546 15.8874 25.1707 16.01 25.1868 16.1326C25.2763 16.0771 25.3648 16.0217 25.4552 15.9671C25.3505 15.9 25.2459 15.8329 25.1421 15.7675Z" fill="#64748b"/>
<path d="M15.4635 19.5444C15.4053 18.7248 15.3973 18.0752 15.3892 17.5016C15.3749 16.4494 15.3651 15.6396 15.0547 14.6259C16.3938 15.0249 17.6479 15.0742 18.9547 15.1243C19.2875 15.1377 19.6256 15.1502 19.9727 15.1699C20.8592 15.22 22.2188 15.73 23.795 16.6462C23.7046 16.0378 23.6456 15.4526 23.6241 14.897C22.2761 14.2035 21.0416 13.7875 20.0532 13.732C19.6981 13.7123 19.3519 13.698 19.0102 13.6855C17.2757 13.6175 15.7774 13.5602 14.0644 12.6789L12.0894 11.6633L13.0921 13.6452C13.9177 15.2773 13.9276 16.0271 13.9473 17.5213C13.9553 18.1137 13.9643 18.7856 14.0242 19.6464C14.1056 20.8024 14.4303 21.9942 15.0073 23.2451C15.5556 23.2854 16.1326 23.3543 16.731 23.45C15.9698 22.0479 15.5484 20.7514 15.4635 19.5444Z" fill="#64748b"/>
<path d="M16.282 24.8432C16.1281 24.8208 15.9814 24.8029 15.832 24.7841C15.9099 24.913 15.9886 25.0418 16.0709 25.1716C16.1406 25.0615 16.2104 24.9514 16.282 24.8432Z" fill="#64748b"/>
<path d="M55.122 64.8114C55.1095 64.6924 55.0934 64.5707 55.0773 64.449C54.9887 64.5036 54.902 64.56 54.8125 64.6136C54.9163 64.6799 55.0191 64.747 55.122 64.8114Z" fill="#64748b"/>
<path d="M64.8113 61.0435C64.8623 61.7656 64.8632 62.3642 64.8641 62.893C64.8659 63.9247 64.8668 64.8024 65.2246 65.9987C63.8998 65.5442 62.9507 65.529 61.897 65.512C61.4193 65.5048 60.9255 65.4968 60.3504 65.4467C59.421 65.367 58.0497 64.8651 56.4512 63.9345C56.5379 64.5376 56.5979 65.121 56.6247 65.6766C57.9629 66.3683 59.2018 66.7942 60.2269 66.8819C60.8531 66.9355 61.3952 66.9445 61.8737 66.9526C63.2361 66.9749 64.22 66.9901 66.1853 67.9717L68.0137 68.8843L67.1612 67.0259C66.3078 65.1666 66.3069 64.2611 66.3043 62.8903C66.3034 62.3391 66.3025 61.7137 66.2479 60.9424C66.171 59.8562 65.8078 58.6357 65.1906 57.3338C64.644 57.2909 64.0715 57.2211 63.4794 57.1245C64.271 58.5668 64.7308 59.8991 64.8113 61.0435Z" fill="#64748b"/>
<path d="M63.9507 55.7421C64.092 55.7635 64.228 55.7814 64.3649 55.7984C64.2933 55.6794 64.219 55.5586 64.1439 55.4388C64.0804 55.5399 64.016 55.641 63.9507 55.7421Z" fill="#64748b"/>
<path d="M63.9509 55.7421C63.7291 56.0839 63.5019 56.4212 63.2666 56.7523C63.3391 56.8766 63.4124 57.0019 63.4804 57.1245C64.0726 57.2211 64.6451 57.2909 65.1916 57.3339C64.9546 56.8337 64.6773 56.3201 64.366 55.7984C64.2282 55.7805 64.0914 55.7626 63.9509 55.7421Z" fill="#64748b"/>
<path d="M16.2818 24.8431C16.5018 24.5058 16.7263 24.1721 16.9598 23.8446C16.8829 23.7122 16.8051 23.5797 16.7335 23.45C16.1351 23.3543 15.5581 23.2854 15.0098 23.2451C15.2414 23.7479 15.517 24.2607 15.8318 24.785C15.9812 24.8029 16.1279 24.8199 16.2818 24.8431Z" fill="#64748b"/>
<path d="M25.4782 11.5962C25.7429 10.8186 25.9871 10.2165 26.2036 9.68587C26.599 8.71058 26.904 7.95986 27.0122 6.90583C28.091 7.79433 29.2289 8.32671 30.4123 8.88057C30.7137 9.02195 31.0206 9.16511 31.3319 9.31722C32.1155 9.70108 33.1468 10.6701 34.222 12.0847C34.3759 11.4924 34.5494 10.9358 34.7471 10.4178C33.7927 9.28859 32.8373 8.4493 31.9652 8.02249C31.6467 7.8668 31.3328 7.71917 31.0233 7.57511C29.4507 6.83872 28.0928 6.20345 26.8557 4.72619L25.4299 3.02255L25.5846 5.23799C25.7116 7.06331 25.4298 7.75764 24.8681 9.14274C24.6454 9.69212 24.3922 10.314 24.114 11.1309C23.7339 12.2458 23.5702 13.4904 23.6229 14.8952C24.1158 15.1484 24.6239 15.4419 25.1409 15.7658C24.9701 14.1454 25.081 12.7603 25.4782 11.5962Z" fill="#64748b"/>
<path d="M35.8072 11.7939C35.7625 11.9398 35.7213 12.0919 35.6802 12.2431C35.8126 12.2225 35.945 12.2037 36.0773 12.1849C35.987 12.0525 35.8975 11.9219 35.8072 11.7939Z" fill="#64748b"/>
<path d="M56.1431 63.7529C56.2468 63.8155 56.3479 63.8746 56.4499 63.9336C56.4329 63.8155 56.415 63.6965 56.3953 63.5766C56.3112 63.6365 56.2272 63.6947 56.1431 63.7529Z" fill="#64748b"/>
<path d="M54.8355 69.0114C54.602 69.6959 54.3704 70.2489 54.1655 70.7356C53.7666 71.6868 53.4266 72.4956 53.2916 73.7376C52.2477 72.8043 51.3791 72.4214 50.4148 71.9963C49.9774 71.804 49.5257 71.6044 49.014 71.3351C48.1964 70.9047 47.14 69.9241 46.0389 68.4683C45.8841 69.0562 45.7114 69.6136 45.52 70.1334C46.4754 71.2734 47.4414 72.1359 48.3431 72.6102C48.8986 72.9027 49.3959 73.122 49.8334 73.3152C51.0803 73.8646 51.9802 74.2619 53.4105 75.9297L54.7407 77.4813L54.6772 75.4376C54.6137 73.3922 54.9634 72.5574 55.4939 71.2939C55.7067 70.7848 55.9492 70.2095 56.1987 69.4767C56.5557 68.4298 56.6943 67.1431 56.6236 65.6766C56.1343 65.4243 55.6316 65.1326 55.1208 64.8123C55.3006 66.4783 55.2103 67.9108 54.8355 69.0114Z" fill="#64748b"/>
<path d="M44.4732 68.7618C44.5126 68.6312 44.5492 68.4952 44.5859 68.36C44.4687 68.3788 44.3516 68.3958 44.2344 68.4128C44.314 68.531 44.3936 68.6482 44.4732 68.7618Z" fill="#64748b"/>
<path d="M24.1129 16.8305C24.0047 16.7652 23.901 16.7071 23.7954 16.6453C23.8133 16.7661 23.8312 16.8878 23.8518 17.0113C23.9385 16.9513 24.0253 16.8905 24.1129 16.8305Z" fill="#64748b"/>
<path d="M24.1123 16.8305C24.4648 16.5898 24.8226 16.3572 25.1858 16.1326C25.1697 16.01 25.1536 15.8875 25.1411 15.7676C24.6249 15.4436 24.1159 15.1502 23.623 14.8969C23.6445 15.4535 23.7036 16.0378 23.7939 16.6462C23.9004 16.7071 24.005 16.7652 24.1123 16.8305Z" fill="#64748b"/>
<path d="M56.1434 63.7529C55.7937 63.9927 55.4376 64.2244 55.0771 64.449C55.0924 64.5707 55.1085 64.6924 55.1219 64.8114C55.6318 65.1317 56.1354 65.4234 56.6247 65.6757C56.5978 65.121 56.5379 64.5367 56.4511 63.9336C56.3483 63.8746 56.2463 63.8155 56.1434 63.7529Z" fill="#64748b"/>
<path d="M45.7983 68.1426C45.8788 68.2544 45.9593 68.36 46.0398 68.4674C46.0738 68.3367 46.1069 68.2034 46.14 68.0692C46.0255 68.0943 45.9119 68.1193 45.7983 68.1426Z" fill="#64748b"/>
<path d="M33.4308 69.3639C33.7644 68.9962 34.0927 68.59 34.4165 68.1426C33.9621 68.0504 33.5113 67.9466 33.0649 67.833C33.1732 68.3663 33.2948 68.8781 33.4308 69.3639Z" fill="#64748b"/>
<path d="M46.8779 11.2177C46.5344 11.5971 46.1927 12.0203 45.8555 12.482C46.3269 12.5795 46.7947 12.6878 47.2572 12.8086C47.1463 12.2529 47.0192 11.7205 46.8779 11.2177Z" fill="#64748b"/>
<path d="M34.4995 12.4542C34.4064 12.3263 34.3143 12.2073 34.2222 12.0856C34.1837 12.2332 34.1461 12.3827 34.1104 12.5357C34.2401 12.5079 34.3689 12.4802 34.4995 12.4542Z" fill="#64748b"/>
<path d="M37.7062 8.15492C38.251 7.54021 38.709 7.07941 39.1124 6.67318C39.8539 5.92695 40.4246 5.3525 40.9327 4.42195C41.5848 5.65851 42.4274 6.58907 43.3059 7.5581C43.5295 7.80506 43.7567 8.0556 43.9857 8.31687C44.4321 8.82778 44.8802 9.72522 45.2675 10.9054C45.6316 10.4571 45.9993 10.0482 46.3705 9.68228C45.993 8.71504 45.5547 7.92227 45.0689 7.36752C44.8346 7.09999 44.602 6.84319 44.373 6.58997C43.2075 5.3033 42.2002 4.192 41.6304 2.35147L40.9739 0.22998L40.2609 2.33357C39.6732 4.06583 39.1446 4.59823 38.0917 5.65763C37.674 6.07817 37.2008 6.55418 36.6292 7.2002C35.8617 8.06723 35.2373 9.13289 34.748 10.4205C35.1032 10.841 35.4583 11.3009 35.808 11.7957C36.2723 10.2684 36.9038 9.06042 37.7062 8.15492Z" fill="#64748b"/>
<path d="M42.6065 72.4562C42.127 72.9976 41.6995 73.4172 41.3229 73.7876C40.5876 74.5115 39.9623 75.1253 39.3576 76.2178C38.7547 74.9535 38.1017 74.2646 37.3763 73.4995C37.048 73.1533 36.7081 72.7945 36.3395 72.3489C35.8878 71.8013 35.4325 70.8994 35.0389 69.712C34.6802 70.1549 34.3143 70.5549 33.9404 70.9155C34.3125 71.8738 34.7437 72.679 35.2277 73.2651C35.6275 73.7501 36.0005 74.1438 36.3306 74.4909C37.268 75.4797 37.9452 76.1937 38.6197 78.2847L39.2476 80.23L39.9784 78.3205C40.7092 76.4093 41.3551 75.7749 42.3319 74.8148C42.7255 74.4283 43.1709 73.9899 43.6835 73.411C44.4054 72.5958 45.0226 71.4827 45.5199 70.1308C45.1684 69.7102 44.8177 69.2512 44.4725 68.7609C43.9966 70.3374 43.3668 71.5982 42.6065 72.4562Z" fill="#64748b"/>
<path d="M35.0403 69.7129C34.8855 69.2458 34.7406 68.734 34.61 68.1802C34.5456 68.1677 34.4803 68.156 34.4159 68.1426C34.0921 68.59 33.7638 68.9962 33.4302 69.364C33.584 69.9169 33.7549 70.4359 33.9418 70.9155C34.3157 70.5558 34.6816 70.1558 35.0403 69.7129Z" fill="#64748b"/>
<path d="M45.7001 12.4516C45.752 12.4623 45.8039 12.4712 45.8557 12.482C46.193 12.0212 46.5338 11.5979 46.8782 11.2177C46.7243 10.6692 46.5553 10.1538 46.371 9.68137C45.9998 10.0473 45.6312 10.4562 45.2681 10.9045C45.4228 11.3769 45.5695 11.8914 45.7001 12.4516Z" fill="#64748b"/>
<path d="M34.4995 12.4543C34.8904 12.3755 35.284 12.3057 35.6802 12.2431C35.7214 12.0919 35.7625 11.9398 35.8073 11.7939C35.4566 11.2991 35.1024 10.8383 34.7473 10.4187C34.5505 10.9367 34.376 11.4933 34.2222 12.0856C34.3143 12.2073 34.4064 12.3263 34.4995 12.4543Z" fill="#64748b"/>
<path d="M45.798 68.1426C45.3973 68.224 44.9929 68.2965 44.5868 68.3609C44.5493 68.4951 44.5135 68.632 44.4741 68.7627C44.8194 69.253 45.1692 69.7129 45.5216 70.1326C45.713 69.6127 45.8857 69.0553 46.0404 68.4674C45.959 68.3609 45.8785 68.2545 45.798 68.1426Z" fill="#64748b"/>
<path d="M45.8563 12.482C45.8045 12.4713 45.7526 12.4614 45.7007 12.4516C45.715 12.5124 45.7275 12.5768 45.7418 12.6386C45.7785 12.5849 45.8179 12.5339 45.8563 12.482Z" fill="#64748b"/>
<path d="M34.416 68.1426C34.4804 68.156 34.5457 68.1668 34.6101 68.1802C34.5922 68.1041 34.5761 68.0245 34.5582 67.9467C34.5108 68.0138 34.4634 68.0773 34.416 68.1426Z" fill="#64748b"/>
</svg>
